 <svg xmlns="http://www.w3.org/2000/svg" width="28" height="28" viewBox="0 0 28 28" fill="none">
                        <g filter="url(#filter0_b_1981_1849)">
                          <rect width="28" height="28" rx="14" transform="matrix(1 2.13529e-05 2.13529e-05 -1 0 28.0005)" fill="url(#paint0_linear_1981_1849)"/>
                        </g>
                        <path d="M18.6364 5.00049H9.36364C9.00198 5.00049 8.65513 5.14865 8.3994 5.41237C8.14367 5.67609 8 6.03378 8 6.40674V21.5942C8 21.9672 8.14367 22.3249 8.3994 22.5886C8.65513 22.8523 9.00198 23.0005 9.36364 23.0005H18.6364C18.998 23.0005 19.3449 22.8523 19.6006 22.5886C19.8563 22.3249 20 21.9672 20 21.5942V6.40674C20 6.03378 19.8563 5.67609 19.6006 5.41237C19.3449 5.14865 18.998 5.00049 18.6364 5.00049ZM18.6364 21.5942H9.36364V6.40674H18.6364V21.5942Z" fill="white"/>
                        <path d="M14 20.0005C14.5523 20.0005 15 19.5528 15 19.0005C15 18.4482 14.5523 18.0005 14 18.0005C13.4477 18.0005 13 18.4482 13 19.0005C13 19.5528 13.4477 20.0005 14 20.0005Z" fill="white"/>
                        <defs>
                          <filter id="filter0_b_1981_1849" x="-4.28571" y="-4.28492" width="36.5714" height="36.5714" filterUnits="userSpaceOnUse" color-interpolation-filters="sRGB">
                            <feFlood flood-opacity="0" result="BackgroundImageFix"/>
                            <feGaussianBlur in="BackgroundImageFix" stdDeviation="2.14286"/>
                            <feComposite in2="SourceAlpha" operator="in" result="effect1_backgroundBlur_1981_1849"/>
                            <feBlend mode="normal" in="SourceGraphic" in2="effect1_backgroundBlur_1981_1849" result="shape"/>
                          </filter>
                          <linearGradient id="paint0_linear_1981_1849" x1="27.2135" y1="26.3846" x2="5.42714" y2="-3.56618" gradientUnits="userSpaceOnUse">
                            <stop offset="0.00104141" stop-color="#0FD3FE"/>
                            <stop offset="0.730208" stop-color="#0E41ED"/>
                          </linearGradient>
                        </defs>
                      </svg>