<svg width="64" height="64" viewBox="0 0 64 64" fill="none" xmlns="http://www.w3.org/2000/svg">
<circle cx="32" cy="32" r="21" fill="#05155C"/>
<circle cx="32" cy="32" r="32" fill="#0A1F7A" fill-opacity="0.24"/>
<path fill-rule="evenodd" clip-rule="evenodd" d="M30.0951 18.7798C30.5671 18.3085 31.1986 18.0311 31.865 18.0025C32.5315 17.9738 33.1844 18.196 33.6951 18.6252L33.8658 18.7812L36.3991 21.3132H39.9804C40.653 21.3133 41.3006 21.5675 41.7936 22.0249C42.2867 22.4824 42.5887 23.1092 42.6391 23.7798L42.6471 23.9798V27.5612L45.1804 30.0945C45.6522 30.5665 45.9298 31.1983 45.9584 31.8651C45.987 32.5318 45.7646 33.1851 45.3351 33.6958L45.1791 33.8652L42.6458 36.3985V39.9798C42.646 40.6526 42.3919 41.3006 41.9344 41.7939C41.477 42.2872 40.85 42.5894 40.1791 42.6398L39.9804 42.6465H36.4004L33.8671 45.1798C33.395 45.6516 32.7633 45.9292 32.0965 45.9578C31.4298 45.9864 30.7765 45.764 30.2658 45.3345L30.0964 45.1798L27.5631 42.6465H23.9804C23.3077 42.6467 22.6597 42.3926 22.1664 41.9352C21.6731 41.4777 21.3709 40.8507 21.3204 40.1798L21.3138 39.9798V36.3985L18.7804 33.8652C18.3087 33.3931 18.0311 32.7613 18.0025 32.0946C17.9738 31.4278 18.1962 30.7746 18.6258 30.2638L18.7804 30.0945L21.3138 27.5612V23.9798C21.3139 23.3073 21.5681 22.6596 22.0255 22.1666C22.483 21.6736 23.1098 21.3716 23.7804 21.3212L23.9804 21.3132H27.5618L30.0951 18.7798ZM36.0858 27.9572L30.4271 33.6158L28.0698 31.2585C27.8196 31.0085 27.4803 30.8681 27.1266 30.8682C26.7729 30.8683 26.4338 31.009 26.1838 31.2592C25.9338 31.5093 25.7934 31.8486 25.7935 32.2023C25.7936 32.556 25.9342 32.8951 26.1844 33.1452L29.3898 36.3505C29.526 36.4868 29.6877 36.5948 29.8657 36.6686C30.0437 36.7423 30.2344 36.7803 30.4271 36.7803C30.6198 36.7803 30.8105 36.7423 30.9885 36.6686C31.1665 36.5948 31.3282 36.4868 31.4644 36.3505L37.9711 29.8425C38.214 29.591 38.3484 29.2542 38.3453 28.9046C38.3423 28.555 38.2021 28.2206 37.9549 27.9734C37.7076 27.7262 37.3732 27.586 37.0236 27.5829C36.674 27.5799 36.3372 27.7143 36.0858 27.9572Z" fill="#0FD3FE"/>
</svg>
