<svg width="64" height="64" viewBox="0 0 64 64" fill="none" xmlns="http://www.w3.org/2000/svg">
<circle cx="32" cy="32" r="21" fill="#05155C"/>
<circle cx="32" cy="32" r="32" fill="#0A1F7A" fill-opacity="0.24"/>
<path d="M42.0021 25.3334C40.9037 23.6893 39.416 22.3422 37.6714 21.4118C35.9268 20.4813 33.9793 19.9964 32.0021 20C30.0283 19.9988 28.0847 20.485 26.344 21.4154C24.6032 22.3458 23.1191 23.6916 22.0234 25.3334" stroke="#0DAEDF" stroke-width="2" stroke-linecap="round" stroke-linejoin="round"/>
<path d="M31.3354 20C30.2963 21.6648 29.4779 23.4576 28.9008 25.3333M32.6688 20C33.7089 21.6647 34.5282 23.4575 35.1061 25.3333M42.0021 38.6667C40.9037 40.3107 39.416 41.6578 37.6714 42.5883C35.9268 43.5187 33.9793 44.0037 32.0021 44C30.0283 44.0012 28.0847 43.515 26.344 42.5846C24.6032 41.6542 23.1191 40.3084 22.0234 38.6667" stroke="#0DAEDF" stroke-width="2" stroke-linecap="round" stroke-linejoin="round"/>
<path d="M31.3346 43.9999C30.2955 42.3351 29.4771 40.5423 28.9 38.6666M32.668 43.9999C33.7081 42.3353 34.5274 40.5425 35.1053 38.6666M18.668 29.3333L20.0013 34.6666L22.0013 29.3333L24.0013 34.6666L25.3346 29.3333M38.668 29.3333L40.0013 34.6666L42.0013 29.3333L44.0013 34.6666L45.3346 29.3333M28.668 29.3333L30.0013 34.6666L32.0013 29.3333L34.0013 34.6666L35.3346 29.3333" stroke="#0DAEDF" stroke-width="2" stroke-linecap="round" stroke-linejoin="round"/>
</svg>
