<svg xmlns="http://www.w3.org/2000/svg" xmlns:xlink="http://www.w3.org/1999/xlink" width="1080" zoomAndPan="magnify" viewBox="0 0 810 809.999993" height="1080" preserveAspectRatio="xMidYMid meet" version="1.0"><defs><clipPath id="e246216176"><path d="M 81 81 L 729 81 L 729 632.25 L 81 632.25 Z M 81 81 " clip-rule="nonzero"/></clipPath></defs><g clip-path="url(#e246216176)"><path fill="#0084ff" d="M 219.625 367.355469 L 161.917969 367.355469 C 157.238281 384.917969 141.214844 397.871094 122.1875 397.871094 C 99.496094 397.871094 81.074219 379.449219 81.074219 356.757812 C 81.074219 334.070312 99.496094 315.648438 122.1875 315.648438 C 141.195312 315.648438 157.207031 328.578125 161.902344 346.113281 L 219.625 346.113281 L 219.625 330.328125 L 251.992188 317.871094 C 254.882812 305.824219 259.0625 294.191406 264.484375 283.128906 L 211.828125 283.128906 C 205.960938 283.128906 201.207031 278.375 201.207031 272.511719 L 201.207031 161.800781 C 183.660156 157.113281 170.714844 141.09375 170.714844 122.074219 C 170.714844 99.382812 189.136719 80.960938 211.828125 80.960938 C 234.519531 80.960938 252.941406 99.382812 252.941406 122.074219 C 252.941406 141.09375 240 157.113281 222.449219 161.800781 L 222.449219 261.890625 L 269.109375 261.890625 L 258.164062 237.273438 L 295.535156 199.90625 L 327.265625 214.011719 C 342.382812 204.695312 358.832031 197.882812 376.082031 193.78125 L 388.589844 161.359375 L 441.453125 161.359375 L 453.910156 193.78125 C 471.160156 197.882812 487.609375 204.695312 502.726562 214.011719 L 534.457031 199.90625 L 571.828125 237.273438 L 557.773438 269.003906 C 562.882812 277.300781 567.242188 285.996094 570.8125 295.015625 L 483.542969 295.015625 C 466.65625 276.292969 442.199219 264.53125 414.996094 264.53125 C 364.050781 264.53125 322.792969 305.789062 322.792969 356.734375 C 322.792969 407.679688 364.050781 448.992188 414.996094 448.992188 C 442.21875 448.992188 466.691406 437.195312 483.578125 418.433594 L 570.808594 418.433594 C 567.226562 427.453125 562.859375 436.160156 557.773438 444.464844 L 571.828125 476.195312 L 534.457031 513.566406 L 502.726562 499.511719 C 487.660156 508.828125 471.160156 515.640625 453.910156 519.742188 L 441.453125 552.109375 L 388.589844 552.109375 L 376.136719 519.742188 C 358.832031 515.640625 342.382812 508.773438 327.265625 499.511719 L 295.535156 513.566406 L 258.164062 476.195312 L 269.109375 451.578125 L 222.449219 451.578125 L 222.449219 551.667969 C 240 556.355469 252.941406 572.375 252.941406 591.394531 C 252.941406 614.085938 234.519531 632.507812 211.828125 632.507812 C 189.136719 632.507812 170.714844 614.085938 170.714844 591.394531 C 170.714844 572.375 183.660156 556.355469 201.207031 551.667969 L 201.207031 440.957031 C 201.207031 435.09375 205.960938 430.339844 211.828125 430.339844 L 264.46875 430.339844 C 259.058594 419.292969 254.878906 407.648438 251.992188 395.648438 L 219.625 383.191406 Z M 211.828125 571.523438 C 200.859375 571.523438 191.957031 580.425781 191.957031 591.394531 C 191.957031 602.359375 200.859375 611.265625 211.828125 611.265625 C 222.792969 611.265625 231.699219 602.359375 231.699219 591.394531 C 231.699219 580.425781 222.792969 571.523438 211.828125 571.523438 Z M 142.058594 356.734375 C 142.042969 345.78125 133.144531 336.890625 122.1875 336.890625 C 111.21875 336.890625 102.316406 345.792969 102.316406 356.757812 C 102.316406 367.726562 111.21875 376.628906 122.1875 376.628906 C 133.152344 376.628906 142.058594 367.726562 142.058594 356.757812 Z M 211.828125 141.945312 C 222.792969 141.945312 231.699219 133.042969 231.699219 122.074219 C 231.699219 111.109375 222.792969 102.203125 211.828125 102.203125 C 200.859375 102.203125 191.957031 111.109375 191.957031 122.074219 C 191.957031 133.042969 200.859375 141.945312 211.828125 141.945312 Z M 726.988281 360.917969 C 697.261719 386.171875 667.5 411.425781 637.773438 436.679688 C 636.117188 438.121094 633.898438 438.40625 631.890625 437.488281 C 629.917969 436.574219 628.71875 434.707031 628.71875 432.488281 L 628.71875 397.195312 L 444.828125 397.195312 C 438.769531 397.195312 433.839844 392.265625 433.839844 386.207031 L 433.839844 327.28125 C 433.839844 321.222656 438.769531 316.253906 444.828125 316.253906 L 628.71875 316.253906 L 628.71875 280.964844 C 628.71875 278.78125 629.917969 276.914062 631.890625 275.996094 C 633.898438 275.046875 636.117188 275.363281 637.773438 276.773438 C 667.5 302.027344 697.261719 327.28125 726.988281 352.535156 C 728.289062 353.625 728.925781 355.070312 728.925781 356.726562 C 728.925781 358.417969 728.289062 359.859375 726.988281 360.917969 Z M 726.988281 360.917969 " fill-opacity="1" fill-rule="evenodd"/></g></svg>