<svg xmlns="http://www.w3.org/2000/svg" xmlns:xlink="http://www.w3.org/1999/xlink" width="1080" zoomAndPan="magnify" viewBox="0 0 810 809.999993" height="1080" preserveAspectRatio="xMidYMid meet" version="1.0"><path fill="#0084ff" d="M 646.980469 125.390625 L 613.6875 125.390625 L 613.6875 114.292969 C 613.6875 95.980469 598.707031 81 580.394531 81 L 225.269531 81 C 225.269531 81 224.824219 81.109375 224.605469 81.109375 C 223.605469 81.109375 222.605469 81.332031 221.71875 81.664062 C 221.386719 81.777344 221.050781 81.886719 220.71875 82.109375 C 219.5 82.664062 218.390625 83.332031 217.390625 84.21875 L 84.21875 217.390625 C 83.332031 218.390625 82.664062 219.5 82.109375 220.71875 C 81.886719 221.050781 81.777344 221.386719 81.664062 221.71875 C 81.445312 222.605469 81.222656 223.605469 81.109375 224.605469 C 81.109375 224.824219 81 225.046875 81 225.269531 L 81 669.175781 C 81 687.488281 95.980469 702.46875 114.292969 702.46875 L 147.585938 702.46875 L 147.585938 713.566406 C 147.585938 731.878906 162.566406 746.859375 180.878906 746.859375 L 479.183594 746.859375 C 484.179688 746.859375 488.617188 743.417969 489.949219 738.648438 C 491.167969 733.765625 489.0625 728.546875 484.621094 726.105469 L 479.738281 723.332031 C 460.761719 712.566406 443.671875 699.25 428.910156 683.714844 C 426.914062 681.492188 423.917969 680.273438 420.921875 680.273438 L 114.292969 680.273438 C 108.1875 680.273438 103.195312 675.28125 103.195312 669.175781 L 103.195312 236.367188 L 225.269531 236.367188 C 231.375 236.367188 236.367188 231.375 236.367188 225.269531 L 236.367188 103.195312 L 580.394531 103.195312 C 586.5 103.195312 591.492188 108.1875 591.492188 114.292969 L 591.492188 323.484375 C 591.492188 328.144531 594.378906 332.25 598.707031 333.914062 L 665.292969 359.105469 C 666.511719 359.550781 667.84375 359.773438 669.175781 359.773438 C 671.394531 359.773438 673.613281 359.105469 675.5 357.777344 C 678.496094 355.777344 680.273438 352.335938 680.273438 348.675781 L 680.273438 158.683594 C 680.273438 140.371094 665.292969 125.390625 646.980469 125.390625 Z M 646.980469 125.390625 " fill-opacity="1" fill-rule="nonzero"/><path fill="#0084ff" d="M 569.296875 447.222656 C 520.355469 447.222656 480.515625 487.0625 480.515625 536.003906 C 480.515625 584.945312 520.355469 624.785156 569.296875 624.785156 C 618.238281 624.785156 658.078125 584.945312 658.078125 536.003906 C 658.078125 487.0625 618.238281 447.222656 569.296875 447.222656 Z M 621.566406 510.589844 L 554.980469 577.175781 C 552.761719 579.394531 549.988281 580.394531 547.101562 580.394531 C 544.214844 580.394531 541.441406 579.285156 539.222656 577.175781 L 505.929688 543.882812 C 501.601562 539.554688 501.601562 532.5625 505.929688 528.234375 C 510.257812 523.90625 517.25 523.90625 521.578125 528.234375 L 546.992188 553.648438 L 605.695312 494.941406 C 610.023438 490.613281 617.015625 490.613281 621.34375 494.941406 C 625.671875 499.269531 625.671875 506.261719 621.34375 510.589844 Z M 621.566406 510.589844 " fill-opacity="1" fill-rule="nonzero"/><path fill="#0084ff" d="M 739.644531 410.933594 L 573.179688 348.007812 C 570.628906 347.011719 567.855469 347.011719 565.300781 348.007812 L 398.835938 410.933594 C 394.507812 412.597656 391.625 416.703125 391.625 421.363281 L 391.625 538.554688 C 391.625 606.03125 429.578125 669.398438 490.613281 704.023438 L 563.636719 745.417969 C 565.300781 746.414062 567.1875 746.859375 569.074219 746.859375 C 570.960938 746.859375 572.847656 746.414062 574.511719 745.417969 L 647.535156 704.023438 C 708.574219 669.398438 746.527344 606.03125 746.527344 538.554688 L 746.527344 421.363281 C 746.527344 416.703125 743.640625 412.597656 739.3125 410.933594 Z M 569.296875 646.980469 C 508.148438 646.980469 458.320312 597.152344 458.320312 536.003906 C 458.320312 474.855469 508.148438 425.027344 569.296875 425.027344 C 630.445312 425.027344 680.273438 474.855469 680.273438 536.003906 C 680.273438 597.152344 630.445312 646.980469 569.296875 646.980469 Z M 569.296875 646.980469 " fill-opacity="1" fill-rule="nonzero"/><path fill="#0084ff" d="M 347.34375 547.101562 L 169.78125 547.101562 C 163.675781 547.101562 158.683594 552.09375 158.683594 558.199219 C 158.683594 564.304688 163.675781 569.296875 169.78125 569.296875 L 347.34375 569.296875 C 353.449219 569.296875 358.441406 564.304688 358.441406 558.199219 C 358.441406 552.09375 353.449219 547.101562 347.34375 547.101562 Z M 347.34375 547.101562 " fill-opacity="1" fill-rule="nonzero"/><path fill="#0084ff" d="M 347.34375 480.515625 L 169.78125 480.515625 C 163.675781 480.515625 158.683594 485.507812 158.683594 491.613281 C 158.683594 497.71875 163.675781 502.710938 169.78125 502.710938 L 347.34375 502.710938 C 353.449219 502.710938 358.441406 497.71875 358.441406 491.613281 C 358.441406 485.507812 353.449219 480.515625 347.34375 480.515625 Z M 347.34375 480.515625 " fill-opacity="1" fill-rule="nonzero"/><path fill="#0084ff" d="M 347.34375 413.929688 L 169.78125 413.929688 C 163.675781 413.929688 158.683594 418.921875 158.683594 425.027344 C 158.683594 431.132812 163.675781 436.125 169.78125 436.125 L 347.34375 436.125 C 353.449219 436.125 358.441406 431.132812 358.441406 425.027344 C 358.441406 418.921875 353.449219 413.929688 347.34375 413.929688 Z M 347.34375 413.929688 " fill-opacity="1" fill-rule="nonzero"/><path fill="#0084ff" d="M 347.34375 347.34375 L 169.78125 347.34375 C 163.675781 347.34375 158.683594 352.335938 158.683594 358.441406 C 158.683594 364.546875 163.675781 369.539062 169.78125 369.539062 L 347.34375 369.539062 C 353.449219 369.539062 358.441406 364.546875 358.441406 358.441406 C 358.441406 352.335938 353.449219 347.34375 347.34375 347.34375 Z M 347.34375 347.34375 " fill-opacity="1" fill-rule="nonzero"/><path fill="#0084ff" d="M 536.003906 291.855469 C 536.003906 285.75 531.011719 280.757812 524.90625 280.757812 L 169.78125 280.757812 C 163.675781 280.757812 158.683594 285.75 158.683594 291.855469 C 158.683594 297.960938 163.675781 302.953125 169.78125 302.953125 L 524.90625 302.953125 C 531.011719 302.953125 536.003906 297.960938 536.003906 291.855469 Z M 536.003906 291.855469 " fill-opacity="1" fill-rule="nonzero"/><path fill="#0084ff" d="M 524.90625 214.171875 L 325.148438 214.171875 C 319.042969 214.171875 314.050781 219.164062 314.050781 225.269531 C 314.050781 231.375 319.042969 236.367188 325.148438 236.367188 L 524.90625 236.367188 C 531.011719 236.367188 536.003906 231.375 536.003906 225.269531 C 536.003906 219.164062 531.011719 214.171875 524.90625 214.171875 Z M 524.90625 214.171875 " fill-opacity="1" fill-rule="nonzero"/></svg>