<svg width="173" height="173" viewBox="0 0 173 173" fill="none" xmlns="http://www.w3.org/2000/svg">
<circle cx="86.5" cy="86.5" r="55.5" fill="black" fill-opacity="0.2"/>
<circle cx="86.5" cy="86.5" r="66" stroke="#3561F6" stroke-opacity="0.6"/>
<circle cx="86.5" cy="86.5" r="77" stroke="#3561F6" stroke-opacity="0.4"/>
<circle cx="86.5" cy="86.5" r="86" stroke="#3561F6" stroke-opacity="0.2"/>
<path d="M93.7184 91.4211C90.9288 91.4211 88.6673 89.1673 88.6673 86.3871C88.6673 83.607 90.9288 81.3532 93.7184 81.3532C96.5081 81.3532 98.7696 83.607 98.7696 86.3871C98.7696 89.1673 96.5081 91.4211 93.7184 91.4211Z" fill="url(#paint0_linear_4319_994)"/>
<path d="M96.1362 87.4849C96.1362 90.5535 95.2232 93.5532 93.5125 96.1046C91.8019 98.6561 89.3705 100.645 86.5258 101.819C83.6811 102.993 80.5508 103.301 77.5309 102.702C74.511 102.103 71.737 100.626 69.5598 98.4557C67.3826 96.2859 65.8998 93.5214 65.2991 90.5118C64.6984 87.5021 65.0067 84.3826 66.1851 81.5476C67.3634 78.7126 69.3588 76.2894 71.9189 74.5846C74.4791 72.8798 77.489 71.9699 80.5681 71.9699L80.5681 77.4192C78.5705 77.4192 76.6177 78.0095 74.9568 79.1156C73.2958 80.2216 72.0013 81.7937 71.2368 83.6329C70.4724 85.4722 70.2723 87.4961 70.6621 89.4487C71.0518 91.4012 72.0137 93.1948 73.4262 94.6025C74.8388 96.0102 76.6384 96.9689 78.5977 97.3572C80.5569 97.7456 82.5877 97.5463 84.4333 96.7844C86.2788 96.0226 87.8563 94.7324 88.9661 93.0771C90.0759 91.4218 90.6682 89.4757 90.6682 87.4849H96.1362Z" fill="url(#paint1_linear_4319_994)"/>
<path d="M81.2816 82.5789C84.0712 82.5789 86.3327 84.8327 86.3327 87.6129C86.3327 90.393 84.0712 92.6468 81.2816 92.6468C78.4919 92.6468 76.2304 90.393 76.2304 87.6129C76.2304 84.8327 78.4919 82.5789 81.2816 82.5789Z" fill="url(#paint2_linear_4319_994)"/>
<path d="M78.8638 86.5151C78.8638 83.4465 79.7768 80.4468 81.4875 77.8954C83.1981 75.3439 85.6295 73.3553 88.4742 72.181C91.3189 71.0067 94.4492 70.6995 97.4691 71.2981C100.489 71.8968 103.263 73.3744 105.44 75.5443C107.617 77.7141 109.1 80.4786 109.701 83.4882C110.302 86.4979 109.993 89.6174 108.815 92.4524C107.637 95.2874 105.641 97.7106 103.081 99.4154C100.521 101.12 97.511 102.03 94.4319 102.03V96.5808C96.4295 96.5808 98.3823 95.9905 100.043 94.8844C101.704 93.7784 102.999 92.2063 103.763 90.3671C104.528 88.5278 104.728 86.5039 104.338 84.5513C103.948 82.5988 102.986 80.8053 101.574 79.3975C100.161 77.9898 98.3616 77.0312 96.4023 76.6428C94.4431 76.2544 92.4123 76.4537 90.5667 77.2156C88.7212 77.9774 87.1438 79.2676 86.0339 80.9229C84.9241 82.5782 84.3318 84.5243 84.3318 86.5151L78.8638 86.5151Z" fill="url(#paint3_linear_4319_994)"/>
<defs>
<linearGradient id="paint0_linear_4319_994" x1="87.5" y1="71" x2="87.5" y2="103" gradientUnits="userSpaceOnUse">
<stop stop-color="#0FD3FE"/>
<stop offset="0.906" stop-color="#3561F6"/>
</linearGradient>
<linearGradient id="paint1_linear_4319_994" x1="87.5" y1="71" x2="87.5" y2="103" gradientUnits="userSpaceOnUse">
<stop stop-color="#0FD3FE"/>
<stop offset="0.906" stop-color="#3561F6"/>
</linearGradient>
<linearGradient id="paint2_linear_4319_994" x1="87.5" y1="71" x2="87.5" y2="103" gradientUnits="userSpaceOnUse">
<stop stop-color="#0FD3FE"/>
<stop offset="0.906" stop-color="#3561F6"/>
</linearGradient>
<linearGradient id="paint3_linear_4319_994" x1="87.5" y1="71" x2="87.5" y2="103" gradientUnits="userSpaceOnUse">
<stop stop-color="#0FD3FE"/>
<stop offset="0.906" stop-color="#3561F6"/>
</linearGradient>
</defs>
</svg>
