 <svg xmlns="http://www.w3.org/2000/svg" width="28" height="28" viewBox="0 0 28 28" fill="none">
                        <g filter="url(#filter0_b_1981_1855)">
                            <rect width="28" height="28" rx="14" transform="matrix(1 2.13529e-05 2.13529e-05 -1 0 28)" fill="url(#paint0_linear_1981_1855)" />
                        </g>
                        <path d="M9 21C7.62121 21 6.44333 20.5078 5.46636 19.5234C4.48939 18.5391 4.00061 17.3359 4 15.9141C4 14.6953 4.35606 13.6094 5.06818 12.6563C5.7803 11.7031 6.71212 11.0937 7.86364 10.8281C8.24242 9.39062 9 8.22656 10.1364 7.33594C11.2727 6.44531 12.5606 6 14 6C15.7727 6 17.2767 6.63688 18.5118 7.91063C19.747 9.18438 20.3642 10.735 20.3636 12.5625C21.4091 12.6875 22.2767 13.1525 22.9664 13.9575C23.6561 14.7625 24.0006 15.7037 24 16.7812C24 17.9531 23.6024 18.9494 22.8073 19.77C22.0121 20.5906 21.0461 21.0006 19.9091 21H9ZM9 19.125H19.9091C20.5455 19.125 21.0833 18.8984 21.5227 18.4453C21.9621 17.9922 22.1818 17.4375 22.1818 16.7812C22.1818 16.125 21.9621 15.5703 21.5227 15.1172C21.0833 14.6641 20.5455 14.4375 19.9091 14.4375H18.5455V12.5625C18.5455 11.2656 18.1021 10.16 17.2155 9.24563C16.3288 8.33125 15.257 7.87437 14 7.875C12.7424 7.875 11.6706 8.33219 10.7845 9.24656C9.89849 10.1609 9.45515 11.2663 9.45455 12.5625H9C8.12121 12.5625 7.37121 12.8828 6.75 13.5234C6.12879 14.1641 5.81818 14.9375 5.81818 15.8438C5.81818 16.75 6.12879 17.5234 6.75 18.1641C7.37121 18.8047 8.12121 19.125 9 19.125Z" fill="white" />
                        <defs>
                            <filter id="filter0_b_1981_1855" x="-4.28571" y="-4.28541" width="36.5714" height="36.5714" filterUnits="userSpaceOnUse" color-interpolation-filters="sRGB">
                                <feFlood flood-opacity="0" result="BackgroundImageFix" />
                                <feGaussianBlur in="BackgroundImageFix" stdDeviation="2.14286" />
                                <feComposite in2="SourceAlpha" operator="in" result="effect1_backgroundBlur_1981_1855" />
                                <feBlend mode="normal" in="SourceGraphic" in2="effect1_backgroundBlur_1981_1855" result="shape" />
                            </filter>
                            <linearGradient id="paint0_linear_1981_1855" x1="27.2135" y1="26.3846" x2="5.42714" y2="-3.56618" gradientUnits="userSpaceOnUse">
                                <stop offset="0.00104141" stop-color="#0FD3FE" />
                                <stop offset="0.730208" stop-color="#0E41ED" />
                            </linearGradient>
                        </defs>
                    </svg>      