 <svg xmlns="http://www.w3.org/2000/svg" width="28" height="28" viewBox="0 0 28 28" fill="none">
                        <g filter="url(#filter0_b_1981_1844)">
                          <rect width="28" height="28" rx="14" transform="matrix(1 2.13529e-05 2.13529e-05 -1 0 28.001)" fill="url(#paint0_linear_1981_1844)"/>
                        </g>
                        <path d="M8.60256 17.1744L4.87898 14.001L8.60256 10.8275C8.67868 10.7652 8.74189 10.688 8.78848 10.6004C8.83507 10.5128 8.86411 10.4165 8.8739 10.3173C8.88369 10.2181 8.87403 10.1179 8.84548 10.0225C8.81694 9.92714 8.77009 9.83856 8.70767 9.76194C8.64525 9.68532 8.56851 9.6222 8.48195 9.57628C8.39539 9.53036 8.30074 9.50255 8.20355 9.49449C8.10636 9.48642 8.00856 9.49827 7.9159 9.52932C7.82323 9.56038 7.73755 9.61002 7.66387 9.67535L3.26379 13.4253C3.18122 13.4957 3.1148 13.5838 3.06921 13.6834C3.02363 13.7829 3 13.8915 3 14.0014C3 14.1114 3.02363 14.2199 3.06921 14.3195C3.1148 14.4191 3.18122 14.5071 3.26379 14.5775L7.66387 18.3275C7.81339 18.4548 8.00624 18.5162 8.19998 18.4981C8.39372 18.48 8.5725 18.3839 8.69698 18.231C8.82145 18.078 8.88144 17.8808 8.86373 17.6827C8.84602 17.4845 8.75208 17.3017 8.60256 17.1744ZM24.7362 14.5775L20.3361 18.3275C20.2621 18.3906 20.1766 18.4381 20.0847 18.4673C19.9927 18.4966 19.896 18.507 19.8 18.4981C19.7041 18.4891 19.6108 18.4609 19.5255 18.4151C19.4403 18.3692 19.3647 18.3067 19.303 18.231C19.1785 18.078 19.1186 17.8808 19.1363 17.6827C19.154 17.4845 19.2479 17.3017 19.3974 17.1744L23.121 14.001L19.3974 10.8275C19.3213 10.7652 19.2581 10.688 19.2115 10.6004C19.1649 10.5128 19.1359 10.4165 19.1261 10.3173C19.1163 10.2181 19.126 10.1179 19.1545 10.0225C19.1831 9.92714 19.2299 9.83856 19.2923 9.76194C19.3548 9.68532 19.4315 9.6222 19.518 9.57628C19.6046 9.53036 19.6993 9.50255 19.7964 9.49449C19.8936 9.48642 19.9914 9.49827 20.0841 9.52932C20.1768 9.56038 20.2624 9.61002 20.3361 9.67535L24.7362 13.4253C24.8188 13.4957 24.8852 13.5838 24.9308 13.6834C24.9764 13.7829 25 13.8915 25 14.0014C25 14.1114 24.9764 14.2199 24.9308 14.3195C24.8852 14.4191 24.8188 14.5071 24.7362 14.5775ZM17.1836 22.956C17.0931 22.9896 16.997 23.0046 16.9008 23.0002C16.8046 22.9959 16.7102 22.9721 16.6229 22.9304C16.5357 22.8887 16.4573 22.8299 16.3923 22.7572C16.3273 22.6845 16.2769 22.5995 16.244 22.5069L10.3773 6.00691C10.3443 5.91428 10.3294 5.81589 10.3336 5.71739C10.3378 5.61889 10.361 5.5222 10.4018 5.43286C10.4426 5.34352 10.5002 5.26329 10.5713 5.19674C10.6425 5.13019 10.7257 5.07864 10.8164 5.04504C10.8967 5.01584 10.9813 5.00093 11.0666 5.00098C11.2172 5.00097 11.3642 5.04839 11.4875 5.13678C11.6108 5.22518 11.7046 5.35026 11.756 5.49504L17.6227 21.995C17.6556 22.0876 17.6703 22.1859 17.666 22.2843C17.6618 22.3827 17.6386 22.4793 17.5978 22.5685C17.557 22.6577 17.4995 22.7379 17.4284 22.8043C17.3573 22.8708 17.2742 22.9223 17.1836 22.956Z" fill="white"/>
                        <defs>
                          <filter id="filter0_b_1981_1844" x="-4.28571" y="-4.28443" width="36.5714" height="36.5714" filterUnits="userSpaceOnUse" color-interpolation-filters="sRGB">
                            <feFlood flood-opacity="0" result="BackgroundImageFix"/>
                            <feGaussianBlur in="BackgroundImageFix" stdDeviation="2.14286"/>
                            <feComposite in2="SourceAlpha" operator="in" result="effect1_backgroundBlur_1981_1844"/>
                            <feBlend mode="normal" in="SourceGraphic" in2="effect1_backgroundBlur_1981_1844" result="shape"/>
                          </filter>
                          <linearGradient id="paint0_linear_1981_1844" x1="27.2135" y1="26.3846" x2="5.42714" y2="-3.56618" gradientUnits="userSpaceOnUse">
                            <stop offset="0.00104141" stop-color="#0FD3FE"/>
                            <stop offset="0.730208" stop-color="#0E41ED"/>
                          </linearGradient>
                        </defs>
                      </svg>