<svg width="28" height="28" viewBox="0 0 28 28" fill="none" xmlns="http://www.w3.org/2000/svg">
<g filter="url(#filter0_b_4195_3345)">
<rect width="28" height="28" rx="14" transform="matrix(1 2.13529e-05 2.13529e-05 -1 0 28)" fill="url(#paint0_linear_4195_3345)"/>
</g>
<path d="M11.25 7.5835H20.4167C20.9029 7.5835 21.3692 7.77665 21.713 8.12047C22.0568 8.46428 22.25 8.9306 22.25 9.41683V18.5835M20.4167 20.4168H7.58333C7.0971 20.4168 6.63079 20.2237 6.28697 19.8799C5.94315 19.536 5.75 19.0697 5.75 18.5835V9.41683C5.75 8.9306 5.94315 8.46428 6.28697 8.12047C6.63079 7.77665 7.0971 7.5835 7.58333 7.5835" stroke="white" stroke-width="2" stroke-linecap="round" stroke-linejoin="round"/>
<path d="M5.75 9.41667L14 14.9167L14.5179 14.5711M16.75 13.0833L22.25 9.41667M5.75 5.75L22.25 22.25" stroke="white" stroke-width="2" stroke-linecap="round" stroke-linejoin="round"/>
<defs>
<filter id="filter0_b_4195_3345" x="-4.28571" y="-4.28523" width="36.5714" height="36.5714" filterUnits="userSpaceOnUse" color-interpolation-filters="sRGB">
<feFlood flood-opacity="0" result="BackgroundImageFix"/>
<feGaussianBlur in="BackgroundImageFix" stdDeviation="2.14286"/>
<feComposite in2="SourceAlpha" operator="in" result="effect1_backgroundBlur_4195_3345"/>
<feBlend mode="normal" in="SourceGraphic" in2="effect1_backgroundBlur_4195_3345" result="shape"/>
</filter>
<linearGradient id="paint0_linear_4195_3345" x1="27.2135" y1="26.3846" x2="5.42714" y2="-3.56618" gradientUnits="userSpaceOnUse">
<stop offset="0.00104141" stop-color="#0FD3FE"/>
<stop offset="0.730208" stop-color="#0E41ED"/>
</linearGradient>
</defs>
</svg>
