<svg xmlns="http://www.w3.org/2000/svg" xmlns:xlink="http://www.w3.org/1999/xlink" width="1080" zoomAndPan="magnify" viewBox="0 0 810 809.999993" height="1080" preserveAspectRatio="xMidYMid meet" version="1.0"><defs><clipPath id="b37185a879"><path d="M 81 226 L 700 226 L 700 699 L 81 699 Z M 81 226 " clip-rule="nonzero"/></clipPath><clipPath id="ecafb32456"><path d="M 469 81 L 711.75 81 L 711.75 372 L 469 372 Z M 469 81 " clip-rule="nonzero"/></clipPath><clipPath id="1b2b67cea3"><path d="M 238 81 L 445 81 L 445 251 L 238 251 Z M 238 81 " clip-rule="nonzero"/></clipPath></defs><path fill="#0084ff" d="M 310.289062 226.417969 L 444.828125 226.417969 L 444.828125 262.785156 L 277.929688 262.785156 C 278.171875 262.546875 278.410156 262.417969 278.535156 262.179688 L 310.289062 226.429688 Z M 310.289062 226.417969 " fill-opacity="1" fill-rule="nonzero"/><g clip-path="url(#b37185a879)"><path fill="#0084ff" d="M 663.003906 590.035156 L 663.003906 347.621094 L 626.636719 347.621094 L 626.636719 590.035156 L 153.929688 590.035156 L 153.929688 262.785156 L 223.867188 262.785156 C 218.042969 256.355469 214.539062 247.871094 214.539062 238.542969 L 214.539062 226.417969 L 153.929688 226.417969 C 133.851562 226.417969 117.5625 242.691406 117.5625 262.785156 L 117.5625 590.050781 L 81.195312 590.050781 L 81.195312 650.65625 C 81.195312 677.429688 102.902344 699.136719 129.679688 699.136719 L 650.867188 699.136719 C 677.640625 699.136719 699.347656 677.429688 699.347656 650.65625 L 699.347656 590.050781 L 662.980469 590.050781 Z M 450.890625 662.757812 L 329.691406 662.757812 C 319.628906 662.757812 311.511719 654.640625 311.511719 644.582031 C 311.511719 634.523438 319.628906 626.402344 329.691406 626.402344 L 450.890625 626.402344 C 460.953125 626.402344 469.070312 634.523438 469.070312 644.582031 C 469.070312 654.640625 460.953125 662.757812 450.890625 662.757812 Z M 450.890625 662.757812 " fill-opacity="1" fill-rule="nonzero"/></g><path fill="#0084ff" d="M 190.296875 299.140625 L 190.296875 565.796875 L 432.714844 565.796875 L 432.714844 299.140625 Z M 311.5 335.507812 C 338.273438 335.507812 359.980469 357.210938 359.980469 383.988281 C 359.980469 410.761719 338.273438 432.46875 311.5 432.46875 C 284.726562 432.46875 263.019531 410.761719 263.019531 383.988281 C 263.019531 357.210938 284.726562 335.507812 311.5 335.507812 Z M 238.777344 529.441406 C 238.777344 489.28125 271.339844 456.722656 311.5 456.722656 C 351.660156 456.722656 384.222656 489.28125 384.222656 529.441406 Z M 238.777344 529.441406 " fill-opacity="1" fill-rule="nonzero"/><path fill="#0084ff" d="M 590.285156 153.695312 C 563.496094 153.695312 541.804688 175.390625 541.804688 202.175781 C 541.804688 208.84375 543.140625 215.261719 545.6875 221.085938 L 609.207031 157.578125 C 603.382812 155.03125 596.964844 153.695312 590.296875 153.695312 Z M 590.285156 153.695312 " fill-opacity="1" fill-rule="nonzero"/><path fill="#0084ff" d="M 571.503906 246.777344 C 577.199219 249.320312 583.628906 250.65625 590.285156 250.65625 C 617.070312 250.65625 638.765625 228.964844 638.765625 202.175781 C 638.765625 195.507812 637.429688 189.078125 634.882812 183.394531 L 571.488281 246.789062 Z M 571.503906 246.777344 " fill-opacity="1" fill-rule="nonzero"/><g clip-path="url(#ecafb32456)"><path fill="#0084ff" d="M 687.246094 80.976562 L 493.308594 80.976562 C 479.921875 80.976562 469.070312 91.828125 469.070312 105.214844 L 469.070312 354.679688 C 469.070312 364.5625 477.652344 371.871094 485.910156 371.871094 C 488.859375 371.871094 491.886719 371.230469 494.746094 369.589844 L 553.90625 323.390625 L 687.234375 323.390625 C 700.621094 323.390625 711.472656 312.539062 711.472656 299.152344 L 711.472656 105.214844 C 711.472656 91.828125 700.621094 80.976562 687.234375 80.976562 Z M 590.285156 287.023438 C 543.316406 287.023438 505.4375 248.832031 505.4375 202.175781 C 505.4375 155.523438 543.378906 117.328125 590.285156 117.328125 C 637.191406 117.328125 675.132812 155.523438 675.132812 202.175781 C 675.132812 248.832031 637.191406 287.023438 590.285156 287.023438 Z M 590.285156 287.023438 " fill-opacity="1" fill-rule="nonzero"/></g><g clip-path="url(#1b2b67cea3)"><path fill="#0084ff" d="M 263.019531 80.976562 C 249.632812 80.976562 238.777344 91.828125 238.777344 105.214844 L 238.777344 238.542969 C 238.777344 245.894531 244.730469 250.609375 250.90625 250.671875 C 254.257812 250.695312 257.660156 249.371094 260.222656 246.308594 L 299.398438 202.191406 L 420.601562 202.191406 C 433.988281 202.191406 444.839844 191.335938 444.839844 177.949219 L 444.839844 105.226562 C 444.839844 91.839844 433.988281 80.988281 420.601562 80.988281 L 263.03125 80.988281 Z M 390.285156 165.824219 L 293.324219 165.824219 C 283.277344 165.824219 275.144531 157.679688 275.144531 147.644531 C 275.144531 137.613281 283.289062 129.46875 293.324219 129.46875 L 390.285156 129.46875 C 400.332031 129.46875 408.460938 137.613281 408.460938 147.644531 C 408.460938 157.679688 400.320312 165.824219 390.285156 165.824219 Z M 390.285156 165.824219 " fill-opacity="1" fill-rule="nonzero"/></g><path fill="#0084ff" d="M 572.09375 468.835938 L 499.375 468.835938 C 489.328125 468.835938 481.195312 476.976562 481.195312 487.011719 C 481.195312 497.046875 489.339844 505.1875 499.375 505.1875 L 572.09375 505.1875 C 582.140625 505.1875 590.273438 497.046875 590.273438 487.011719 C 590.273438 476.976562 582.128906 468.835938 572.09375 468.835938 Z M 572.09375 468.835938 " fill-opacity="1" fill-rule="nonzero"/><path fill="#0084ff" d="M 559.980469 529.441406 L 511.5 529.441406 C 501.453125 529.441406 493.324219 537.585938 493.324219 547.621094 C 493.324219 557.652344 501.464844 565.796875 511.5 565.796875 L 559.980469 565.796875 C 570.027344 565.796875 578.15625 557.652344 578.15625 547.621094 C 578.15625 537.585938 570.015625 529.441406 559.980469 529.441406 Z M 559.980469 529.441406 " fill-opacity="1" fill-rule="nonzero"/><path fill="#0084ff" d="M 584.222656 408.226562 L 487.257812 408.226562 C 477.210938 408.226562 469.082031 416.371094 469.082031 426.40625 C 469.082031 436.4375 477.226562 444.582031 487.257812 444.582031 L 584.222656 444.582031 C 594.269531 444.582031 602.398438 436.4375 602.398438 426.40625 C 602.398438 416.371094 594.253906 408.226562 584.222656 408.226562 Z M 584.222656 408.226562 " fill-opacity="1" fill-rule="nonzero"/></svg>