<svg xmlns="http://www.w3.org/2000/svg" xmlns:xlink="http://www.w3.org/1999/xlink" width="1080" zoomAndPan="magnify" viewBox="0 0 810 809.999993" height="1080" preserveAspectRatio="xMidYMid meet" version="1.0"><defs><clipPath id="6e4aabdfa0"><path d="M 258 409 L 552 409 L 552 750 L 258 750 Z M 258 409 " clip-rule="nonzero"/></clipPath><clipPath id="233b921a50"><path d="M 112.726562 616 L 275 616 L 275 653 L 112.726562 653 Z M 112.726562 616 " clip-rule="nonzero"/></clipPath><clipPath id="ca320d4a7b"><path d="M 574 616 L 696.976562 616 L 696.976562 653 L 574 653 Z M 574 616 " clip-rule="nonzero"/></clipPath><clipPath id="2f70989c0e"><path d="M 112.726562 360 L 696.976562 360 L 696.976562 593 L 112.726562 593 Z M 112.726562 360 " clip-rule="nonzero"/></clipPath><clipPath id="6095d5febd"><path d="M 392 154 L 696.976562 154 L 696.976562 288 L 392 288 Z M 392 154 " clip-rule="nonzero"/></clipPath></defs><g clip-path="url(#6e4aabdfa0)"><path fill="#0084ff" d="M 513.503906 546.789062 L 405.011719 521.261719 L 405.011719 440.019531 C 405.011719 423.214844 391.394531 409.597656 374.589844 409.597656 C 357.785156 409.597656 344.167969 423.214844 344.167969 440.019531 L 344.167969 603 L 312.402344 566.125 C 306.824219 559.695312 298.597656 555.621094 289.410156 555.621094 C 272.605469 555.621094 258.988281 569.238281 258.988281 586.042969 C 258.988281 593.660156 261.785156 600.621094 266.402344 605.949219 L 358.707031 712.476562 C 378.792969 735.648438 408.441406 750.316406 441.507812 750.316406 C 502 750.316406 551.023438 701.277344 551.023438 640.800781 L 551.023438 594.167969 C 551.023438 571.578125 535.484375 551.964844 513.503906 546.789062 Z M 513.503906 546.789062 " fill-opacity="1" fill-rule="nonzero"/></g><g clip-path="url(#233b921a50)"><path fill="#0084ff" d="M 248.027344 621.882812 C 246.5625 620.1875 245.359375 618.300781 244.132812 616.453125 L 112.976562 616.453125 L 112.976562 628.628906 C 112.976562 642.066406 123.871094 652.960938 137.3125 652.960938 L 274.945312 652.960938 L 248.015625 621.882812 Z M 248.027344 621.882812 " fill-opacity="1" fill-rule="nonzero"/></g><g clip-path="url(#ca320d4a7b)"><path fill="#0084ff" d="M 575.371094 616.453125 L 575.371094 640.789062 C 575.371094 644.902344 575.121094 648.9375 574.753906 652.960938 L 672.714844 652.960938 C 686.152344 652.960938 697.050781 642.066406 697.050781 628.628906 L 697.050781 616.453125 Z M 575.371094 616.453125 " fill-opacity="1" fill-rule="nonzero"/></g><g clip-path="url(#2f70989c0e)"><path fill="#0084ff" d="M 648.378906 360.925781 L 161.648438 360.925781 L 112.976562 592.117188 L 235.210938 592.117188 C 234.980469 590.09375 234.664062 588.082031 234.664062 586.03125 C 234.664062 555.835938 259.226562 531.273438 289.421875 531.273438 C 300.355469 531.273438 310.910156 534.539062 319.84375 540.511719 L 319.84375 440.019531 C 319.84375 409.824219 344.410156 385.261719 374.601562 385.261719 C 404.796875 385.261719 429.359375 409.824219 429.359375 440.019531 L 429.359375 501.988281 L 519.082031 523.097656 C 551.542969 530.730469 574.285156 558.960938 575.195312 592.117188 L 697.050781 592.117188 Z M 222.492188 494.777344 L 185.980469 494.777344 L 185.980469 470.441406 L 222.492188 470.441406 Z M 222.492188 433.933594 L 185.980469 433.933594 L 185.980469 409.597656 L 222.492188 409.597656 Z M 283.335938 494.777344 L 246.828125 494.777344 L 246.828125 470.441406 L 283.335938 470.441406 Z M 283.335938 433.933594 L 246.828125 433.933594 L 246.828125 409.597656 L 283.335938 409.597656 Z M 551.039062 494.777344 L 514.527344 494.777344 L 514.527344 470.441406 L 551.039062 470.441406 Z M 551.039062 433.933594 L 514.527344 433.933594 L 514.527344 409.597656 L 551.039062 409.597656 Z M 611.882812 494.777344 L 575.371094 494.777344 L 575.371094 470.441406 L 611.882812 470.441406 Z M 611.882812 433.933594 L 575.371094 433.933594 L 575.371094 409.597656 L 611.882812 409.597656 Z M 611.882812 433.933594 " fill-opacity="1" fill-rule="nonzero"/></g><g clip-path="url(#6095d5febd)"><path fill="#0084ff" d="M 672.714844 154.070312 L 417.1875 154.070312 C 403.746094 154.070312 392.851562 164.964844 392.851562 178.40625 L 392.851562 227.074219 C 392.851562 240.515625 403.746094 251.410156 417.1875 251.410156 L 429.359375 251.410156 L 429.359375 269.242188 C 429.359375 279.554688 437.726562 287.917969 448.039062 287.917969 C 451.734375 287.917969 455.339844 286.832031 458.402344 284.78125 L 514.539062 251.410156 L 672.726562 251.410156 C 686.164062 251.410156 697.0625 240.515625 697.0625 227.074219 L 697.0625 178.40625 C 697.0625 164.964844 686.164062 154.070312 672.726562 154.070312 Z M 471.945312 214.914062 C 461.859375 214.914062 453.695312 206.738281 453.695312 196.664062 C 453.695312 186.59375 461.871094 178.417969 471.945312 178.417969 C 482.019531 178.417969 490.191406 186.59375 490.191406 196.664062 C 490.191406 206.738281 482.019531 214.914062 471.945312 214.914062 Z M 544.949219 214.914062 C 534.863281 214.914062 526.703125 206.738281 526.703125 196.664062 C 526.703125 186.59375 534.875 178.417969 544.949219 178.417969 C 555.023438 178.417969 563.199219 186.59375 563.199219 196.664062 C 563.199219 206.738281 555.023438 214.914062 544.949219 214.914062 Z M 617.957031 214.914062 C 607.871094 214.914062 599.707031 206.738281 599.707031 196.664062 C 599.707031 186.59375 607.882812 178.417969 617.957031 178.417969 C 628.03125 178.417969 636.203125 186.59375 636.203125 196.664062 C 636.203125 206.738281 628.03125 214.914062 617.957031 214.914062 Z M 617.957031 214.914062 " fill-opacity="1" fill-rule="nonzero"/></g><path fill="#0084ff" d="M 246.828125 81.0625 L 185.980469 81.0625 C 172.542969 81.0625 161.648438 91.960938 161.648438 105.398438 L 161.648438 336.589844 L 648.378906 336.589844 L 648.378906 275.746094 L 521.210938 275.746094 L 471.261719 305.433594 C 464.3125 309.890625 456.304688 312.242188 448.027344 312.242188 C 426.007812 312.242188 407.808594 295.625 405.304688 274.277344 C 384.183594 268.960938 368.503906 249.816406 368.503906 227.074219 L 368.503906 178.40625 C 368.503906 151.527344 390.296875 129.734375 417.175781 129.734375 L 648.367188 129.734375 L 648.367188 105.398438 C 648.367188 91.960938 637.46875 81.0625 624.03125 81.0625 L 271.160156 81.0625 L 271.160156 119.761719 C 280.046875 122.914062 287.828125 129.558594 293.964844 138.402344 L 311.226562 121.128906 L 328.4375 138.339844 L 304.570312 162.207031 C 305.898438 167.371094 306.910156 172.746094 307.292969 178.417969 L 332.007812 178.417969 L 332.007812 202.753906 L 305.796875 202.753906 C 304.824219 207.460938 303.367188 211.863281 301.710938 216.089844 L 328.4375 242.816406 L 311.226562 260.027344 L 288.675781 237.476562 C 280.464844 246.210938 270.175781 251.421875 258.988281 251.421875 C 247.800781 251.421875 237.511719 246.210938 229.300781 237.476562 L 206.75 260.027344 L 189.539062 242.816406 L 216.265625 216.089844 C 214.605469 211.863281 213.152344 207.460938 212.175781 202.753906 L 185.96875 202.753906 L 185.96875 178.417969 L 210.683594 178.417969 C 211.0625 172.761719 212.078125 167.382812 213.40625 162.207031 L 189.539062 138.339844 L 206.75 121.128906 L 224.011719 138.402344 C 230.148438 129.558594 237.929688 122.914062 246.8125 119.761719 L 246.8125 81.0625 Z M 246.828125 81.0625 " fill-opacity="1" fill-rule="nonzero"/></svg>