<svg width="28" height="28" viewBox="0 0 28 28" fill="none" xmlns="http://www.w3.org/2000/svg">
<g filter="url(#filter0_b_1984_3734)">
<rect width="28" height="28" rx="14" transform="matrix(1 2.13529e-05 2.13529e-05 -1 0 28)" fill="url(#paint0_linear_1984_3734)"/>
</g>
<path d="M14 5C12.22 5 10.4799 5.52784 8.99987 6.51677C7.51983 7.50571 6.36628 8.91131 5.68509 10.5558C5.0039 12.2004 4.82567 14.01 5.17294 15.7558C5.5202 17.5016 6.37737 19.1053 7.63604 20.364C8.89471 21.6226 10.4984 22.4798 12.2442 22.8271C13.99 23.1743 15.7996 22.9961 17.4442 22.3149C19.0887 21.6337 20.4943 20.4802 21.4832 19.0001C22.4722 17.5201 23 15.78 23 14C22.9975 11.6138 22.0485 9.3261 20.3612 7.63882C18.6739 5.95154 16.3862 5.00252 14 5ZM14 21.6154C12.4938 21.6154 11.0215 21.1687 9.76912 20.332C8.51678 19.4952 7.5407 18.3058 6.96431 16.9143C6.38792 15.5227 6.23711 13.9916 6.53095 12.5143C6.82479 11.0371 7.55008 9.68014 8.61511 8.61511C9.68014 7.55008 11.0371 6.82478 12.5143 6.53094C13.9916 6.2371 15.5228 6.38791 16.9143 6.9643C18.3058 7.54069 19.4952 8.51677 20.332 9.76912C21.1688 11.0215 21.6154 12.4938 21.6154 14C21.6131 16.019 20.81 17.9547 19.3824 19.3824C17.9547 20.81 16.019 21.6131 14 21.6154ZM19.5385 14C19.5385 14.1836 19.4655 14.3597 19.3357 14.4895C19.2059 14.6194 19.0298 14.6923 18.8462 14.6923H14C13.8164 14.6923 13.6403 14.6194 13.5105 14.4895C13.3806 14.3597 13.3077 14.1836 13.3077 14V9.15385C13.3077 8.97023 13.3806 8.79414 13.5105 8.66431C13.6403 8.53448 13.8164 8.46154 14 8.46154C14.1836 8.46154 14.3597 8.53448 14.4895 8.66431C14.6194 8.79414 14.6923 8.97023 14.6923 9.15385V13.3077H18.8462C19.0298 13.3077 19.2059 13.3806 19.3357 13.5105C19.4655 13.6403 19.5385 13.8164 19.5385 14Z" fill="white"/>
<defs>
<filter id="filter0_b_1984_3734" x="-4.28571" y="-4.28541" width="36.5714" height="36.5714" filterUnits="userSpaceOnUse" color-interpolation-filters="sRGB">
<feFlood flood-opacity="0" result="BackgroundImageFix"/>
<feGaussianBlur in="BackgroundImageFix" stdDeviation="2.14286"/>
<feComposite in2="SourceAlpha" operator="in" result="effect1_backgroundBlur_1984_3734"/>
<feBlend mode="normal" in="SourceGraphic" in2="effect1_backgroundBlur_1984_3734" result="shape"/>
</filter>
<linearGradient id="paint0_linear_1984_3734" x1="27.2135" y1="26.3846" x2="5.42714" y2="-3.56618" gradientUnits="userSpaceOnUse">
<stop offset="0.00104141" stop-color="#0FD3FE"/>
<stop offset="0.730208" stop-color="#0E41ED"/>
</linearGradient>
</defs>
</svg>
