<svg width="28" height="28" viewBox="0 0 28 28" fill="none" xmlns="http://www.w3.org/2000/svg">
<g filter="url(#filter0_b_1984_3709)">
<rect width="28" height="28" rx="14" transform="matrix(1 0 0 -1 0 28)" fill="url(#paint0_linear_1984_3709)"/>
</g>
<path d="M22 10H19.19C18.74 9.2 18.12 8.5 17.37 8L19 6.41L17.59 5L15.42 7.17C14.4902 6.94443 13.5198 6.94443 12.59 7.17L10.41 5L9 6.41L10.62 8C9.87 8.5 9.26 9.21 8.81 10H6V12H8.09C8.03 12.33 8 12.66 8 13V14H6V16H8V17C8 17.34 8.03 17.67 8.09 18H6V20H8.81C9.20416 20.6814 9.7288 21.2784 10.3539 21.7568C10.979 22.2352 11.6923 22.5857 12.453 22.7881C13.2137 22.9906 14.0068 23.0411 14.787 22.9368C15.5673 22.8324 16.3193 22.5753 17 22.18C17.91 21.66 18.67 20.9 19.19 20H22V18H19.91C19.97 17.67 20 17.34 20 17V16H22V14H20V13C20 12.66 19.97 12.33 19.91 12H22V10ZM18 17C18 18.0609 17.5786 19.0783 16.8284 19.8284C16.0783 20.5786 15.0609 21 14 21C12.9391 21 11.9217 20.5786 11.1716 19.8284C10.4214 19.0783 10 18.0609 10 17V13C10 11.9391 10.4214 10.9217 11.1716 10.1716C11.9217 9.42143 12.9391 9 14 9C15.0609 9 16.0783 9.42143 16.8284 10.1716C17.5786 10.9217 18 11.9391 18 13V17ZM16 12V14H12V12H16ZM12 16H16V18H12V16Z" fill="white"/>
<defs>
<filter id="filter0_b_1984_3709" x="-4.28571" y="-4.28571" width="36.5714" height="36.5714" filterUnits="userSpaceOnUse" color-interpolation-filters="sRGB">
<feFlood flood-opacity="0" result="BackgroundImageFix"/>
<feGaussianBlur in="BackgroundImageFix" stdDeviation="2.14286"/>
<feComposite in2="SourceAlpha" operator="in" result="effect1_backgroundBlur_1984_3709"/>
<feBlend mode="normal" in="SourceGraphic" in2="effect1_backgroundBlur_1984_3709" result="shape"/>
</filter>
<linearGradient id="paint0_linear_1984_3709" x1="27.2135" y1="26.3846" x2="5.42714" y2="-3.56618" gradientUnits="userSpaceOnUse">
<stop offset="0.00104141" stop-color="#0FD3FE"/>
<stop offset="0.730208" stop-color="#0E41ED"/>
</linearGradient>
</defs>
</svg>
