<svg xmlns="http://www.w3.org/2000/svg" xmlns:xlink="http://www.w3.org/1999/xlink" width="500" zoomAndPan="magnify" viewBox="0 0 375 374.999991" height="500" preserveAspectRatio="xMidYMid meet" version="1.0"><defs><clipPath id="99c1939092"><path d="M 83 170 L 274.746094 170 L 274.746094 316.441406 L 83 316.441406 Z M 83 170 " clip-rule="nonzero"/></clipPath></defs><path fill="#e80000" d="M 168.492188 231.15625 C 166.957031 231.609375 165.371094 231.867188 163.769531 231.929688 C 164.472656 231.929688 166.214844 231.929688 169.007812 231.929688 C 168.695312 231.464844 168.523438 231.207031 168.492188 231.15625 Z M 168.492188 231.15625 " fill-opacity="1" fill-rule="nonzero"/><path fill="#e80000" d="M 102.964844 170.8125 C 114.871094 170.8125 121.480469 170.8125 122.804688 170.8125 C 122.804688 151.722656 122.804688 141.113281 122.804688 138.996094 C 122.804688 106.847656 148.847656 80.785156 180.976562 80.785156 C 213.101562 80.785156 239.144531 106.847656 239.144531 138.996094 C 239.144531 141.113281 239.144531 151.722656 239.144531 170.8125 C 241.128906 170.8125 257.003906 170.8125 258.984375 170.8125 C 258.984375 151.722656 258.984375 141.113281 258.984375 138.996094 C 258.984375 95.988281 224.144531 61.128906 181.171875 61.128906 C 138.191406 61.128906 103.351562 95.988281 103.351562 138.996094 C 103.300781 138.996094 103.171875 138.996094 102.964844 138.996094 C 102.964844 143.238281 102.964844 153.839844 102.964844 170.8125 Z M 102.964844 170.8125 " fill-opacity="1" fill-rule="nonzero"/><path fill="#e80000" d="M 191.691406 230.765625 C 191.691406 223.621094 185.90625 217.832031 178.765625 217.832031 C 171.625 217.832031 165.839844 223.621094 165.839844 230.765625 C 165.839844 237.914062 171.625 243.699219 178.765625 243.699219 C 185.90625 243.699219 191.691406 237.914062 191.691406 230.765625 Z M 191.691406 230.765625 " fill-opacity="1" fill-rule="nonzero"/><g clip-path="url(#99c1939092)"><path fill="#e80000" d="M 88.992188 316.007812 C 106.941406 316.007812 250.527344 316.007812 268.476562 316.007812 C 271.792969 316.007812 274.488281 313.3125 274.488281 309.992188 C 274.488281 296.675781 274.488281 190.140625 274.488281 176.824219 C 274.488281 173.507812 271.792969 170.8125 268.476562 170.8125 C 250.527344 170.8125 106.941406 170.8125 88.992188 170.8125 C 85.695312 170.851562 83.046875 173.53125 83.046875 176.824219 C 83.046875 203.457031 83.046875 296.675781 83.046875 309.992188 C 83.046875 313.289062 85.695312 315.96875 88.992188 316.007812 Z M 185.230469 255.730469 C 185.230469 257.730469 185.230469 273.714844 185.230469 275.714844 C 185.230469 279.289062 182.335938 282.183594 178.765625 282.183594 C 175.199219 282.183594 172.300781 279.289062 172.300781 275.714844 C 172.300781 273.707031 172.300781 257.667969 172.300781 255.664062 C 158.414062 252.351562 149.84375 238.394531 153.164062 224.496094 C 155.980469 212.683594 166.628906 204.421875 178.765625 204.636719 C 193.039062 204.210938 204.949219 215.441406 205.375 229.726562 C 205.742188 242.105469 197.296875 253 185.230469 255.730469 Z M 185.230469 255.730469 " fill-opacity="1" fill-rule="nonzero"/></g></svg>