<svg width="697" height="609" viewBox="0 0 697 609" fill="none" xmlns="http://www.w3.org/2000/svg">
<g clip-path="url(#clip0_4244_3574)">
<rect width="697" height="608.89" fill="#01041C"/>
<g filter="url(#filter0_f_4244_3574)">
<circle cx="203.083" cy="203.083" r="203.083" transform="matrix(-1 0 0 1 299.431 285.104)" fill="#3601A7" fill-opacity="0.4"/>
</g>
<g filter="url(#filter1_f_4244_3574)">
<circle cx="203.083" cy="203.083" r="203.083" transform="matrix(1 0 0 -1 385.392 317.617)" fill="#3601A7" fill-opacity="0.4"/>
</g>
<g filter="url(#filter2_f_4244_3574)">
<rect width="206.108" height="206.108" rx="103.054" transform="matrix(0.965926 0.258819 0.258819 -0.965926 -102.437 658.976)" fill="url(#paint0_linear_4244_3574)" fill-opacity="0.4"/>
</g>
<g filter="url(#filter3_f_4244_3574)">
<rect width="206.108" height="206.108" rx="103.054" transform="matrix(-0.965926 -0.258819 -0.258819 0.965926 787.259 -21.8711)" fill="url(#paint1_linear_4244_3574)" fill-opacity="0.4"/>
</g>
<path d="M190.311 395.483C190.154 393.891 189.476 392.654 188.279 391.772C187.081 390.891 185.456 390.45 183.404 390.45C182.009 390.45 180.831 390.647 179.871 391.042C178.91 391.424 178.173 391.956 177.66 392.641C177.16 393.325 176.91 394.101 176.91 394.97C176.884 395.693 177.035 396.325 177.364 396.864C177.706 397.404 178.173 397.871 178.765 398.266C179.357 398.647 180.042 398.983 180.818 399.272C181.594 399.549 182.423 399.785 183.305 399.983L186.936 400.851C188.7 401.246 190.318 401.772 191.792 402.43C193.265 403.088 194.542 403.897 195.621 404.858C196.7 405.818 197.535 406.95 198.127 408.252C198.732 409.555 199.042 411.049 199.055 412.733C199.042 415.206 198.41 417.351 197.16 419.167C195.923 420.97 194.134 422.371 191.792 423.371C189.463 424.358 186.654 424.851 183.364 424.851C180.101 424.851 177.259 424.351 174.838 423.351C172.43 422.351 170.548 420.871 169.193 418.91C167.851 416.937 167.147 414.496 167.081 411.588H175.351C175.443 412.943 175.831 414.075 176.515 414.983C177.213 415.877 178.14 416.555 179.298 417.016C180.469 417.463 181.792 417.687 183.265 417.687C184.713 417.687 185.969 417.476 187.035 417.055C188.114 416.634 188.95 416.049 189.542 415.299C190.134 414.549 190.43 413.687 190.43 412.713C190.43 411.805 190.16 411.042 189.621 410.424C189.094 409.805 188.318 409.279 187.292 408.845C186.279 408.41 185.035 408.016 183.561 407.66L179.16 406.555C175.752 405.726 173.061 404.43 171.088 402.667C169.114 400.904 168.134 398.529 168.147 395.542C168.134 393.095 168.785 390.956 170.101 389.127C171.43 387.299 173.252 385.871 175.568 384.845C177.884 383.818 180.515 383.305 183.463 383.305C186.463 383.305 189.081 383.818 191.318 384.845C193.568 385.871 195.318 387.299 196.568 389.127C197.818 390.956 198.463 393.075 198.502 395.483H190.311ZM255.286 383.858V424.279H247.905L230.319 398.838H230.023V424.279H221.477V383.858H228.977L246.424 409.279H246.78V383.858H255.286ZM285.988 424.279H276.83L290.784 383.858H301.797L315.731 424.279H306.573L296.448 393.095H296.133L285.988 424.279ZM285.415 408.391H307.047V415.062H285.415V408.391ZM337.27 424.279V383.858H353.218C356.283 383.858 358.895 384.443 361.053 385.614C363.211 386.772 364.856 388.384 365.987 390.45C367.132 392.502 367.704 394.871 367.704 397.555C367.704 400.239 367.125 402.608 365.968 404.66C364.81 406.713 363.132 408.312 360.935 409.456C358.75 410.601 356.106 411.174 353 411.174H342.836V404.325H351.619C353.264 404.325 354.619 404.042 355.685 403.476C356.764 402.897 357.566 402.101 358.093 401.088C358.632 400.062 358.902 398.884 358.902 397.555C358.902 396.213 358.632 395.042 358.093 394.042C357.566 393.029 356.764 392.246 355.685 391.693C354.606 391.127 353.237 390.845 351.579 390.845H345.816V424.279H337.27ZM411.857 395.483C411.699 393.891 411.021 392.654 409.824 391.772C408.626 390.891 407.001 390.45 404.949 390.45C403.554 390.45 402.376 390.647 401.416 391.042C400.455 391.424 399.719 391.956 399.205 392.641C398.705 393.325 398.455 394.101 398.455 394.97C398.429 395.693 398.58 396.325 398.909 396.864C399.251 397.404 399.719 397.871 400.311 398.266C400.903 398.647 401.587 398.983 402.363 399.272C403.14 399.549 403.969 399.785 404.85 399.983L408.482 400.851C410.245 401.246 411.863 401.772 413.337 402.43C414.811 403.088 416.087 403.897 417.166 404.858C418.245 405.818 419.08 406.95 419.673 408.252C420.278 409.555 420.587 411.049 420.6 412.733C420.587 415.206 419.955 417.351 418.705 419.167C417.469 420.97 415.679 422.371 413.337 423.371C411.008 424.358 408.199 424.851 404.909 424.851C401.646 424.851 398.804 424.351 396.383 423.351C393.975 422.351 392.094 420.871 390.738 418.91C389.396 416.937 388.692 414.496 388.626 411.588H396.896C396.988 412.943 397.376 414.075 398.061 414.983C398.758 415.877 399.686 416.555 400.844 417.016C402.015 417.463 403.337 417.687 404.811 417.687C406.258 417.687 407.515 417.476 408.58 417.055C409.659 416.634 410.495 416.049 411.087 415.299C411.679 414.549 411.975 413.687 411.975 412.713C411.975 411.805 411.705 411.042 411.166 410.424C410.64 409.805 409.863 409.279 408.837 408.845C407.824 408.41 406.58 408.016 405.107 407.66L400.705 406.555C397.298 405.726 394.607 404.43 392.633 402.667C390.659 400.904 389.679 398.529 389.692 395.542C389.679 393.095 390.33 390.956 391.646 389.127C392.975 387.299 394.798 385.871 397.113 384.845C399.429 383.818 402.061 383.305 405.008 383.305C408.008 383.305 410.626 383.818 412.863 384.845C415.113 385.871 416.863 387.299 418.113 389.127C419.363 390.956 420.008 393.075 420.048 395.483H411.857ZM443.022 424.279V383.858H470.259V390.904H451.568V400.535H468.858V407.581H451.568V417.233H470.338V424.279H443.022ZM529.392 398.009H520.747C520.589 396.891 520.267 395.897 519.78 395.029C519.293 394.147 518.668 393.397 517.905 392.779C517.142 392.16 516.26 391.687 515.26 391.358C514.273 391.029 513.201 390.864 512.043 390.864C509.951 390.864 508.129 391.384 506.576 392.424C505.023 393.45 503.819 394.95 502.964 396.924C502.109 398.884 501.681 401.266 501.681 404.068C501.681 406.95 502.109 409.371 502.964 411.331C503.833 413.292 505.043 414.772 506.596 415.772C508.148 416.772 509.944 417.272 511.984 417.272C513.129 417.272 514.188 417.121 515.161 416.818C516.148 416.516 517.023 416.075 517.786 415.496C518.55 414.904 519.181 414.187 519.681 413.345C520.194 412.502 520.55 411.542 520.747 410.463L529.392 410.502C529.168 412.358 528.609 414.147 527.714 415.871C526.833 417.581 525.642 419.114 524.142 420.47C522.655 421.812 520.879 422.877 518.813 423.667C516.76 424.443 514.438 424.831 511.846 424.831C508.24 424.831 505.017 424.016 502.175 422.384C499.346 420.752 497.109 418.391 495.464 415.299C493.833 412.206 493.017 408.463 493.017 404.068C493.017 399.66 493.846 395.91 495.504 392.818C497.161 389.726 499.411 387.371 502.254 385.752C505.096 384.121 508.293 383.305 511.846 383.305C514.188 383.305 516.359 383.634 518.359 384.292C520.372 384.95 522.155 385.91 523.708 387.173C525.26 388.424 526.523 389.956 527.497 391.772C528.484 393.588 529.115 395.667 529.392 398.009Z" fill="#3561F6"/>
<path d="M162.942 457.604V455.354H176.349V457.604H170.944V472.677H168.339V457.604H162.942ZM179.312 472.677V455.354H181.925V462.882H190.562V455.354H193.184V472.677H190.562V465.124H181.925V472.677H179.312ZM196.99 472.677V455.354H207.851V457.604H199.604V462.882H207.284V465.124H199.604V470.427H207.953V472.677H196.99ZM227.095 459.905C227.004 459.104 226.632 458.484 225.978 458.044C225.324 457.598 224.501 457.376 223.508 457.376C222.798 457.376 222.183 457.488 221.664 457.714C221.145 457.934 220.742 458.238 220.454 458.628C220.173 459.011 220.032 459.448 220.032 459.939C220.032 460.35 220.127 460.706 220.319 461.004C220.516 461.303 220.773 461.554 221.089 461.757C221.41 461.955 221.754 462.121 222.121 462.256C222.487 462.386 222.84 462.493 223.178 462.578L224.87 463.018C225.423 463.153 225.989 463.336 226.57 463.567C227.151 463.799 227.689 464.103 228.186 464.481C228.682 464.859 229.082 465.327 229.387 465.885C229.697 466.443 229.852 467.112 229.852 467.89C229.852 468.871 229.598 469.742 229.091 470.503C228.589 471.265 227.859 471.865 226.9 472.305C225.947 472.745 224.794 472.965 223.44 472.965C222.143 472.965 221.021 472.759 220.074 472.347C219.126 471.936 218.385 471.352 217.849 470.597C217.313 469.835 217.017 468.933 216.961 467.89H219.583C219.634 468.516 219.837 469.037 220.192 469.455C220.553 469.866 221.013 470.174 221.571 470.377C222.135 470.574 222.752 470.673 223.423 470.673C224.162 470.673 224.819 470.557 225.394 470.326C225.975 470.089 226.432 469.762 226.765 469.345C227.097 468.922 227.264 468.428 227.264 467.864C227.264 467.351 227.117 466.931 226.824 466.604C226.536 466.277 226.144 466.006 225.648 465.792C225.157 465.578 224.602 465.389 223.982 465.225L221.935 464.667C220.548 464.289 219.448 463.734 218.636 463.001C217.829 462.268 217.426 461.298 217.426 460.091C217.426 459.093 217.697 458.222 218.238 457.477C218.78 456.733 219.513 456.155 220.438 455.743C221.362 455.326 222.406 455.117 223.567 455.117C224.74 455.117 225.775 455.323 226.672 455.735C227.574 456.146 228.284 456.713 228.803 457.435C229.322 458.151 229.593 458.974 229.615 459.905H227.095ZM232.975 472.677V455.354H243.836V457.604H235.589V462.882H243.27V465.124H235.589V470.427H243.938V472.677H232.975ZM261.716 460.988H259.077C258.975 460.424 258.786 459.927 258.51 459.499C258.234 459.07 257.895 458.706 257.495 458.408C257.095 458.109 256.646 457.883 256.15 457.731C255.659 457.579 255.138 457.503 254.585 457.503C253.587 457.503 252.693 457.753 251.904 458.255C251.12 458.757 250.5 459.493 250.043 460.463C249.592 461.433 249.366 462.617 249.366 464.016C249.366 465.425 249.592 466.615 250.043 467.585C250.5 468.555 251.123 469.288 251.912 469.785C252.702 470.281 253.59 470.529 254.577 470.529C255.124 470.529 255.642 470.456 256.133 470.309C256.629 470.157 257.078 469.934 257.478 469.641C257.878 469.347 258.217 468.989 258.493 468.566C258.775 468.138 258.97 467.647 259.077 467.095L261.716 467.103C261.575 467.955 261.301 468.738 260.895 469.455C260.495 470.165 259.979 470.78 259.347 471.299C258.721 471.812 258.005 472.209 257.199 472.491C256.392 472.773 255.513 472.914 254.56 472.914C253.06 472.914 251.723 472.559 250.55 471.848C249.377 471.132 248.453 470.109 247.776 468.778C247.105 467.447 246.769 465.86 246.769 464.016C246.769 462.166 247.108 460.579 247.784 459.253C248.461 457.923 249.386 456.902 250.559 456.191C251.732 455.475 253.065 455.117 254.56 455.117C255.479 455.117 256.336 455.25 257.131 455.515C257.932 455.774 258.651 456.158 259.288 456.665C259.925 457.167 260.453 457.782 260.87 458.509C261.287 459.231 261.569 460.057 261.716 460.988ZM275.983 455.354H278.606V466.748C278.606 467.96 278.321 469.035 277.751 469.971C277.182 470.901 276.381 471.634 275.349 472.17C274.317 472.7 273.107 472.965 271.72 472.965C270.339 472.965 269.132 472.7 268.1 472.17C267.068 471.634 266.267 470.901 265.698 469.971C265.128 469.035 264.843 467.96 264.843 466.748V455.354H267.457V466.536C267.457 467.32 267.629 468.017 267.973 468.626C268.323 469.235 268.816 469.714 269.453 470.064C270.091 470.408 270.846 470.58 271.72 470.58C272.6 470.58 273.358 470.408 273.996 470.064C274.639 469.714 275.129 469.235 275.467 468.626C275.811 468.017 275.983 467.32 275.983 466.536V455.354ZM282.406 472.677V455.354H288.58C289.923 455.354 291.036 455.585 291.922 456.048C292.813 456.51 293.478 457.15 293.918 457.968C294.358 458.78 294.578 459.719 294.578 460.784C294.578 461.845 294.355 462.778 293.909 463.584C293.47 464.385 292.804 465.008 291.913 465.454C291.028 465.899 289.914 466.122 288.572 466.122H283.894V463.872H288.335C289.181 463.872 289.869 463.751 290.399 463.508C290.935 463.266 291.327 462.913 291.575 462.451C291.823 461.988 291.947 461.433 291.947 460.784C291.947 460.13 291.82 459.564 291.566 459.084C291.318 458.605 290.926 458.238 290.391 457.985C289.861 457.725 289.164 457.596 288.301 457.596H285.019V472.677H282.406ZM290.957 464.862L295.237 472.677H292.26L288.065 464.862H290.957ZM300.372 455.354V472.677H297.758V455.354H300.372ZM303.324 457.604V455.354H316.731V457.604H311.326V472.677H308.721V457.604H303.324ZM318.357 455.354H321.326L325.851 463.229H326.038L330.563 455.354H333.532L327.247 465.877V472.677H324.642V465.877L318.357 455.354ZM340.967 455.354H343.936L348.461 463.229H348.648L353.173 455.354H356.142L349.857 465.877V472.677H347.252V465.877L340.967 455.354ZM372.774 464.016C372.774 465.865 372.435 467.456 371.759 468.786C371.082 470.112 370.154 471.132 368.976 471.848C367.803 472.559 366.469 472.914 364.975 472.914C363.475 472.914 362.136 472.559 360.957 471.848C359.784 471.132 358.859 470.109 358.183 468.778C357.506 467.447 357.167 465.86 357.167 464.016C357.167 462.166 357.506 460.579 358.183 459.253C358.859 457.923 359.784 456.902 360.957 456.191C362.136 455.475 363.475 455.117 364.975 455.117C366.469 455.117 367.803 455.475 368.976 456.191C370.154 456.902 371.082 457.923 371.759 459.253C372.435 460.579 372.774 462.166 372.774 464.016ZM370.185 464.016C370.185 462.606 369.957 461.419 369.5 460.455C369.049 459.485 368.429 458.752 367.639 458.255C366.855 457.753 365.967 457.503 364.975 457.503C363.977 457.503 363.086 457.753 362.302 458.255C361.518 458.752 360.898 459.485 360.441 460.455C359.99 461.419 359.764 462.606 359.764 464.016C359.764 465.425 359.99 466.615 360.441 467.585C360.898 468.55 361.518 469.283 362.302 469.785C363.086 470.281 363.977 470.529 364.975 470.529C365.967 470.529 366.855 470.281 367.639 469.785C368.429 469.283 369.049 468.55 369.5 467.585C369.957 466.615 370.185 465.425 370.185 464.016ZM387.172 455.354H389.795V466.748C389.795 467.96 389.51 469.035 388.94 469.971C388.371 470.901 387.57 471.634 386.538 472.17C385.506 472.7 384.297 472.965 382.909 472.965C381.528 472.965 380.321 472.7 379.289 472.17C378.257 471.634 377.456 470.901 376.887 469.971C376.317 469.035 376.032 467.96 376.032 466.748V455.354H378.646V466.536C378.646 467.32 378.818 468.017 379.162 468.626C379.512 469.235 380.005 469.714 380.642 470.064C381.28 470.408 382.035 470.58 382.909 470.58C383.789 470.58 384.547 470.408 385.185 470.064C385.828 469.714 386.318 469.235 386.656 468.626C387 468.017 387.172 467.32 387.172 466.536V455.354ZM414.287 460.988H411.648C411.546 460.424 411.357 459.927 411.081 459.499C410.805 459.07 410.466 458.706 410.066 458.408C409.665 458.109 409.217 457.883 408.721 457.731C408.23 457.579 407.709 457.503 407.156 457.503C406.158 457.503 405.264 457.753 404.475 458.255C403.691 458.757 403.071 459.493 402.614 460.463C402.163 461.433 401.937 462.617 401.937 464.016C401.937 465.425 402.163 466.615 402.614 467.585C403.071 468.555 403.694 469.288 404.483 469.785C405.273 470.281 406.161 470.529 407.148 470.529C407.695 470.529 408.213 470.456 408.704 470.309C409.2 470.157 409.649 469.934 410.049 469.641C410.449 469.347 410.788 468.989 411.064 468.566C411.346 468.138 411.54 467.647 411.648 467.095L414.287 467.103C414.146 467.955 413.872 468.738 413.466 469.455C413.066 470.165 412.55 470.78 411.918 471.299C411.292 471.812 410.576 472.209 409.77 472.491C408.963 472.773 408.084 472.914 407.131 472.914C405.631 472.914 404.294 472.559 403.121 471.848C401.948 471.132 401.024 470.109 400.347 468.778C399.676 467.447 399.34 465.86 399.34 464.016C399.34 462.166 399.679 460.579 400.355 459.253C401.032 457.923 401.957 456.902 403.13 456.191C404.303 455.475 405.636 455.117 407.131 455.117C408.05 455.117 408.907 455.25 409.702 455.515C410.503 455.774 411.222 456.158 411.859 456.665C412.496 457.167 413.024 457.782 413.441 458.509C413.858 459.231 414.14 460.057 414.287 460.988ZM418.761 472.677H415.987L422.221 455.354H425.241L431.475 472.677H428.7L423.803 458.501H423.667L418.761 472.677ZM419.227 465.894H428.227V468.093H419.227V465.894ZM447.959 455.354V472.677H445.556L436.751 459.972H436.59V472.677H433.976V455.354H436.396L445.209 468.076H445.37V455.354H447.959ZM457.221 457.604V455.354H470.628V457.604H465.223V472.677H462.617V457.604H457.221ZM473.59 472.677V455.354H479.765C481.107 455.354 482.221 455.585 483.106 456.048C483.997 456.51 484.663 457.15 485.103 457.968C485.542 458.78 485.762 459.719 485.762 460.784C485.762 461.845 485.54 462.778 485.094 463.584C484.654 464.385 483.989 465.008 483.098 465.454C482.213 465.899 481.099 466.122 479.757 466.122H475.079V463.872H479.52C480.366 463.872 481.054 463.751 481.584 463.508C482.119 463.266 482.511 462.913 482.76 462.451C483.008 461.988 483.132 461.433 483.132 460.784C483.132 460.13 483.005 459.564 482.751 459.084C482.503 458.605 482.111 458.238 481.575 457.985C481.045 457.725 480.349 457.596 479.486 457.596H476.204V472.677H473.59ZM482.142 464.862L486.422 472.677H483.445L479.249 464.862H482.142ZM500.083 455.354H502.705V466.748C502.705 467.96 502.42 469.035 501.851 469.971C501.281 470.901 500.48 471.634 499.448 472.17C498.417 472.7 497.207 472.965 495.82 472.965C494.438 472.965 493.231 472.7 492.199 472.17C491.167 471.634 490.367 470.901 489.797 469.971C489.228 469.035 488.943 467.96 488.943 466.748V455.354H491.557V466.536C491.557 467.32 491.729 468.017 492.073 468.626C492.422 469.235 492.916 469.714 493.553 470.064C494.19 470.408 494.946 470.58 495.82 470.58C496.699 470.58 497.458 470.408 498.095 470.064C498.738 469.714 499.229 469.235 499.567 468.626C499.911 468.017 500.083 467.32 500.083 466.536V455.354ZM515.953 459.905C515.863 459.104 515.491 458.484 514.837 458.044C514.183 457.598 513.359 457.376 512.367 457.376C511.656 457.376 511.042 457.488 510.523 457.714C510.004 457.934 509.601 458.238 509.313 458.628C509.031 459.011 508.89 459.448 508.89 459.939C508.89 460.35 508.986 460.706 509.178 461.004C509.375 461.303 509.632 461.554 509.948 461.757C510.269 461.955 510.613 462.121 510.98 462.256C511.346 462.386 511.699 462.493 512.037 462.578L513.729 463.018C514.281 463.153 514.848 463.336 515.429 463.567C516.01 463.799 516.548 464.103 517.045 464.481C517.541 464.859 517.941 465.327 518.246 465.885C518.556 466.443 518.711 467.112 518.711 467.89C518.711 468.871 518.457 469.742 517.95 470.503C517.448 471.265 516.718 471.865 515.759 472.305C514.806 472.745 513.653 472.965 512.299 472.965C511.002 472.965 509.88 472.759 508.933 472.347C507.985 471.936 507.244 471.352 506.708 470.597C506.172 469.835 505.876 468.933 505.82 467.89H508.442C508.493 468.516 508.696 469.037 509.051 469.455C509.412 469.866 509.872 470.174 510.43 470.377C510.994 470.574 511.611 470.673 512.282 470.673C513.021 470.673 513.678 470.557 514.253 470.326C514.834 470.089 515.291 469.762 515.624 469.345C515.956 468.922 516.123 468.428 516.123 467.864C516.123 467.351 515.976 466.931 515.683 466.604C515.395 466.277 515.003 466.006 514.507 465.792C514.016 465.578 513.461 465.389 512.841 465.225L510.794 464.667C509.406 464.289 508.307 463.734 507.495 463.001C506.688 462.268 506.285 461.298 506.285 460.091C506.285 459.093 506.556 458.222 507.097 457.477C507.639 456.733 508.372 456.155 509.296 455.743C510.221 455.326 511.265 455.117 512.426 455.117C513.599 455.117 514.634 455.323 515.53 455.735C516.433 456.146 517.143 456.713 517.662 457.435C518.181 458.151 518.452 458.974 518.474 459.905H515.953ZM520.98 457.604V455.354H534.387V457.604H528.982V472.677H526.377V457.604H520.98Z" fill="#2A84F9"/>
<path d="M386.966 256.496C369.923 256.496 356.107 242.656 356.107 225.583C356.107 208.51 369.923 194.67 386.966 194.67C404.009 194.67 417.825 208.51 417.825 225.583C417.825 242.656 404.009 256.496 386.966 256.496Z" fill="url(#paint2_linear_4244_3574)"/>
<path d="M401.737 232.324C401.737 251.168 396.159 269.589 385.708 285.258C375.257 300.926 360.403 313.138 343.024 320.349C325.645 327.561 306.522 329.448 288.072 325.771C269.623 322.095 252.676 313.021 239.374 299.696C226.073 286.371 217.014 269.394 213.345 250.912C209.675 232.43 211.558 213.273 218.757 195.863C225.956 178.453 238.146 163.573 253.787 153.104C269.428 142.634 287.816 137.046 306.627 137.046L306.627 170.511C294.423 170.511 282.493 174.136 272.346 180.928C262.199 187.72 254.29 197.374 249.619 208.669C244.949 219.964 243.727 232.393 246.108 244.383C248.489 256.374 254.366 267.388 262.995 276.033C271.625 284.678 282.62 290.565 294.589 292.95C306.559 295.335 318.965 294.111 330.24 289.432C341.515 284.754 351.152 276.831 357.933 266.666C364.713 256.501 368.332 244.55 368.332 232.324H401.737Z" fill="url(#paint3_linear_4244_3574)"/>
<path d="M310.986 202.197C328.029 202.197 341.844 216.037 341.844 233.11C341.844 250.183 328.029 264.023 310.986 264.023C293.943 264.023 280.127 250.183 280.127 233.11C280.127 216.037 293.943 202.197 310.986 202.197Z" fill="url(#paint4_linear_4244_3574)"/>
<path d="M296.215 226.368C296.215 207.524 301.793 189.103 312.244 173.435C322.695 157.767 337.549 145.555 354.928 138.343C372.307 131.132 391.43 129.245 409.88 132.921C428.329 136.598 445.276 145.672 458.578 158.997C471.879 172.322 480.937 189.299 484.607 207.781C488.277 226.263 486.394 245.42 479.195 262.83C471.996 280.239 459.806 295.12 444.165 305.589C428.524 316.058 410.136 321.646 391.325 321.646V288.182C403.529 288.182 415.459 284.557 425.606 277.764C435.753 270.972 443.662 261.318 448.332 250.023C453.003 238.728 454.225 226.3 451.844 214.309C449.463 202.319 443.586 191.304 434.956 182.66C426.327 174.015 415.332 168.128 403.363 165.743C391.393 163.358 378.986 164.582 367.711 169.26C356.436 173.939 346.799 181.862 340.019 192.027C333.239 202.192 329.62 214.143 329.62 226.368L296.215 226.368Z" fill="url(#paint5_linear_4244_3574)"/>
</g>
<defs>
<filter id="filter0_f_4244_3574" x="-321.637" y="70.2015" width="835.97" height="835.97" filterUnits="userSpaceOnUse" color-interpolation-filters="sRGB">
<feFlood flood-opacity="0" result="BackgroundImageFix"/>
<feBlend mode="normal" in="SourceGraphic" in2="BackgroundImageFix" result="shape"/>
<feGaussianBlur stdDeviation="107.451" result="effect1_foregroundBlur_4244_3574"/>
</filter>
<filter id="filter1_f_4244_3574" x="170.489" y="-303.451" width="835.97" height="835.97" filterUnits="userSpaceOnUse" color-interpolation-filters="sRGB">
<feFlood flood-opacity="0" result="BackgroundImageFix"/>
<feBlend mode="normal" in="SourceGraphic" in2="BackgroundImageFix" result="shape"/>
<feGaussianBlur stdDeviation="107.451" result="effect1_foregroundBlur_4244_3574"/>
</filter>
<filter id="filter2_f_4244_3574" x="-222.57" y="339.758" width="492.696" height="492.696" filterUnits="userSpaceOnUse" color-interpolation-filters="sRGB">
<feFlood flood-opacity="0" result="BackgroundImageFix"/>
<feBlend mode="normal" in="SourceGraphic" in2="BackgroundImageFix" result="shape"/>
<feGaussianBlur stdDeviation="71.6341" result="effect1_foregroundBlur_4244_3574"/>
</filter>
<filter id="filter3_f_4244_3574" x="414.696" y="-195.349" width="492.696" height="492.696" filterUnits="userSpaceOnUse" color-interpolation-filters="sRGB">
<feFlood flood-opacity="0" result="BackgroundImageFix"/>
<feBlend mode="normal" in="SourceGraphic" in2="BackgroundImageFix" result="shape"/>
<feGaussianBlur stdDeviation="71.6341" result="effect1_foregroundBlur_4244_3574"/>
</filter>
<linearGradient id="paint0_linear_4244_3574" x1="200.319" y1="194.217" x2="39.9491" y2="-26.2506" gradientUnits="userSpaceOnUse">
<stop offset="0.00104141" stop-color="#0FD3FE"/>
<stop offset="0.730208" stop-color="#0E41ED"/>
</linearGradient>
<linearGradient id="paint1_linear_4244_3574" x1="200.319" y1="194.217" x2="39.9491" y2="-26.2506" gradientUnits="userSpaceOnUse">
<stop offset="0.00104141" stop-color="#0FD3FE"/>
<stop offset="0.730208" stop-color="#0E41ED"/>
</linearGradient>
<linearGradient id="paint2_linear_4244_3574" x1="348.976" y1="131.091" x2="348.976" y2="327.602" gradientUnits="userSpaceOnUse">
<stop stop-color="#0FD3FE"/>
<stop offset="0.906" stop-color="#3561F6"/>
</linearGradient>
<linearGradient id="paint3_linear_4244_3574" x1="348.976" y1="131.091" x2="348.976" y2="327.602" gradientUnits="userSpaceOnUse">
<stop stop-color="#0FD3FE"/>
<stop offset="0.906" stop-color="#3561F6"/>
</linearGradient>
<linearGradient id="paint4_linear_4244_3574" x1="348.976" y1="131.091" x2="348.976" y2="327.602" gradientUnits="userSpaceOnUse">
<stop stop-color="#0FD3FE"/>
<stop offset="0.906" stop-color="#3561F6"/>
</linearGradient>
<linearGradient id="paint5_linear_4244_3574" x1="348.976" y1="131.091" x2="348.976" y2="327.602" gradientUnits="userSpaceOnUse">
<stop stop-color="#0FD3FE"/>
<stop offset="0.906" stop-color="#3561F6"/>
</linearGradient>
<clipPath id="clip0_4244_3574">
<rect width="697" height="608.89" fill="white"/>
</clipPath>
</defs>
</svg>
