<svg width="1440" height="850" viewBox="0 0 1440 850" fill="none" xmlns="http://www.w3.org/2000/svg">
<g clip-path="url(#clip0_4236_3494)">
<rect width="1440" height="850" fill="#01041C"/>
<g filter="url(#filter0_f_4236_3494)">
<circle cx="283.5" cy="283.5" r="283.5" transform="matrix(-1 0 0 1 418 398)" fill="#3601A7" fill-opacity="0.4"/>
</g>
<g filter="url(#filter1_f_4236_3494)">
<circle cx="283.5" cy="283.5" r="283.5" transform="matrix(1 0 0 -1 993 443.388)" fill="#3601A7" fill-opacity="0.4"/>
</g>
<g filter="url(#filter2_f_4236_3494)">
<rect width="287.723" height="287.723" rx="143.862" transform="matrix(0.965926 0.258819 0.258819 -0.965926 -143 919.919)" fill="url(#paint0_linear_4236_3494)" fill-opacity="0.4"/>
</g>
<g filter="url(#filter3_f_4236_3494)">
<rect width="287.723" height="287.723" rx="143.862" transform="matrix(-0.965926 -0.258819 -0.258819 0.965926 1554 -30.5317)" fill="url(#paint1_linear_4236_3494)" fill-opacity="0.4"/>
</g>
<path d="M560.634 515.986C560.474 514.382 559.792 513.135 558.585 512.247C557.379 511.359 555.741 510.915 553.673 510.915C552.268 510.915 551.081 511.114 550.114 511.511C549.146 511.896 548.403 512.433 547.886 513.122C547.383 513.812 547.131 514.594 547.131 515.469C547.104 516.198 547.257 516.834 547.588 517.378C547.933 517.921 548.403 518.392 549 518.79C549.597 519.174 550.286 519.512 551.068 519.804C551.85 520.082 552.686 520.321 553.574 520.52L557.233 521.395C559.009 521.793 560.64 522.323 562.125 522.986C563.61 523.649 564.896 524.464 565.983 525.432C567.07 526.4 567.912 527.54 568.509 528.852C569.118 530.165 569.43 531.67 569.443 533.366C569.43 535.859 568.794 538.02 567.534 539.849C566.288 541.666 564.485 543.078 562.125 544.085C559.778 545.08 556.948 545.577 553.634 545.577C550.346 545.577 547.482 545.073 545.043 544.065C542.616 543.058 540.721 541.566 539.355 539.591C538.003 537.602 537.294 535.143 537.227 532.213H545.56C545.652 533.579 546.044 534.719 546.733 535.634C547.436 536.535 548.37 537.218 549.537 537.682C550.717 538.133 552.049 538.358 553.534 538.358C554.992 538.358 556.259 538.146 557.332 537.722C558.42 537.297 559.261 536.707 559.858 535.952C560.455 535.196 560.753 534.328 560.753 533.347C560.753 532.432 560.481 531.663 559.938 531.04C559.407 530.417 558.625 529.886 557.591 529.449C556.57 529.011 555.317 528.614 553.832 528.256L549.398 527.142C545.964 526.307 543.253 525.001 541.264 523.224C539.276 521.448 538.288 519.055 538.301 516.045C538.288 513.58 538.944 511.425 540.27 509.582C541.609 507.74 543.445 506.301 545.778 505.267C548.112 504.233 550.763 503.716 553.733 503.716C556.756 503.716 559.394 504.233 561.648 505.267C563.915 506.301 565.678 507.74 566.938 509.582C568.197 511.425 568.847 513.56 568.886 515.986H560.634ZM626.1 504.273V545H618.663L600.944 519.366H600.646V545H592.035V504.273H599.592L617.171 529.886H617.529V504.273H626.1ZM657.035 545H647.807L661.867 504.273H672.964L687.003 545H677.776L667.574 513.58H667.256L657.035 545ZM656.458 528.991H678.253V535.713H656.458V528.991ZM708.705 545V504.273H724.774C727.863 504.273 730.494 504.863 732.668 506.043C734.843 507.209 736.5 508.833 737.64 510.915C738.793 512.983 739.37 515.369 739.37 518.074C739.37 520.778 738.787 523.165 737.62 525.233C736.454 527.301 734.763 528.912 732.549 530.065C730.348 531.219 727.684 531.795 724.555 531.795H714.313V524.895H723.163C724.82 524.895 726.186 524.61 727.259 524.04C728.346 523.456 729.155 522.654 729.686 521.634C730.229 520.599 730.501 519.413 730.501 518.074C730.501 516.722 730.229 515.542 729.686 514.534C729.155 513.513 728.346 512.724 727.259 512.168C726.172 511.598 724.793 511.312 723.123 511.312H717.316V545H708.705ZM783.857 515.986C783.698 514.382 783.015 513.135 781.809 512.247C780.602 511.359 778.965 510.915 776.897 510.915C775.491 510.915 774.305 511.114 773.337 511.511C772.369 511.896 771.627 512.433 771.11 513.122C770.606 513.812 770.354 514.594 770.354 515.469C770.328 516.198 770.48 516.834 770.812 517.378C771.156 517.921 771.627 518.392 772.223 518.79C772.82 519.174 773.509 519.512 774.292 519.804C775.074 520.082 775.909 520.321 776.797 520.52L780.456 521.395C782.233 521.793 783.864 522.323 785.348 522.986C786.833 523.649 788.119 524.464 789.206 525.432C790.294 526.4 791.135 527.54 791.732 528.852C792.342 530.165 792.653 531.67 792.667 533.366C792.653 535.859 792.017 538.02 790.758 539.849C789.511 541.666 787.708 543.078 785.348 544.085C783.002 545.08 780.171 545.577 776.857 545.577C773.569 545.577 770.705 545.073 768.266 544.065C765.84 543.058 763.944 541.566 762.579 539.591C761.226 537.602 760.517 535.143 760.451 532.213H768.783C768.876 533.579 769.267 534.719 769.956 535.634C770.659 536.535 771.594 537.218 772.76 537.682C773.94 538.133 775.273 538.358 776.758 538.358C778.216 538.358 779.482 538.146 780.556 537.722C781.643 537.297 782.485 536.707 783.081 535.952C783.678 535.196 783.976 534.328 783.976 533.347C783.976 532.432 783.704 531.663 783.161 531.04C782.631 530.417 781.848 529.886 780.814 529.449C779.794 529.011 778.541 528.614 777.056 528.256L772.621 527.142C769.187 526.307 766.476 525.001 764.488 523.224C762.499 521.448 761.511 519.055 761.525 516.045C761.511 513.58 762.168 511.425 763.493 509.582C764.832 507.74 766.669 506.301 769.002 505.267C771.335 504.233 773.987 503.716 776.956 503.716C779.979 503.716 782.617 504.233 784.871 505.267C787.138 506.301 788.901 507.74 790.161 509.582C791.42 511.425 792.07 513.56 792.11 515.986H783.857ZM815.259 545V504.273H842.702V511.372H823.869V521.077H841.29V528.176H823.869V537.901H842.781V545H815.259ZM902.282 518.531H893.572C893.413 517.404 893.088 516.403 892.598 515.528C892.107 514.64 891.477 513.884 890.708 513.261C889.939 512.638 889.051 512.161 888.044 511.83C887.049 511.498 885.969 511.332 884.802 511.332C882.694 511.332 880.858 511.856 879.294 512.903C877.729 513.937 876.516 515.449 875.654 517.438C874.793 519.413 874.362 521.812 874.362 524.636C874.362 527.54 874.793 529.979 875.654 531.955C876.529 533.93 877.749 535.421 879.313 536.429C880.878 537.437 882.688 537.94 884.742 537.94C885.896 537.94 886.963 537.788 887.944 537.483C888.938 537.178 889.82 536.734 890.589 536.151C891.358 535.554 891.994 534.831 892.498 533.983C893.015 533.134 893.373 532.167 893.572 531.08L902.282 531.119C902.057 532.989 901.493 534.792 900.592 536.528C899.704 538.252 898.504 539.796 896.992 541.162C895.494 542.514 893.705 543.588 891.623 544.384C889.555 545.166 887.215 545.557 884.603 545.557C880.971 545.557 877.723 544.735 874.859 543.091C872.009 541.447 869.755 539.067 868.098 535.952C866.454 532.836 865.632 529.064 865.632 524.636C865.632 520.195 866.467 516.417 868.137 513.301C869.808 510.186 872.075 507.812 874.938 506.182C877.802 504.538 881.024 503.716 884.603 503.716C886.963 503.716 889.151 504.047 891.166 504.71C893.194 505.373 894.991 506.341 896.555 507.614C898.119 508.873 899.392 510.418 900.373 512.247C901.367 514.077 902.004 516.171 902.282 518.531Z" fill="#3561F6"/>
<path d="M533.057 578.812V576.545H546.565V578.812H541.119V594H538.494V578.812H533.057ZM549.55 594V576.545H552.184V584.131H560.886V576.545H563.528V594H560.886V586.389H552.184V594H549.55ZM567.363 594V576.545H578.306V578.812H569.996V584.131H577.735V586.389H569.996V591.733H578.408V594H567.363ZM597.695 581.131C597.604 580.324 597.229 579.699 596.57 579.256C595.911 578.807 595.082 578.582 594.082 578.582C593.366 578.582 592.746 578.696 592.224 578.923C591.701 579.145 591.295 579.452 591.005 579.844C590.721 580.23 590.579 580.67 590.579 581.165C590.579 581.58 590.675 581.937 590.869 582.239C591.067 582.54 591.326 582.793 591.644 582.997C591.968 583.196 592.315 583.364 592.684 583.5C593.053 583.631 593.408 583.739 593.749 583.824L595.454 584.267C596.011 584.403 596.582 584.588 597.167 584.821C597.752 585.054 598.295 585.361 598.795 585.741C599.295 586.122 599.698 586.594 600.005 587.156C600.317 587.719 600.474 588.392 600.474 589.176C600.474 590.165 600.218 591.043 599.707 591.81C599.201 592.577 598.465 593.182 597.499 593.625C596.539 594.068 595.377 594.29 594.013 594.29C592.707 594.29 591.576 594.082 590.621 593.668C589.667 593.253 588.92 592.665 588.38 591.903C587.84 591.136 587.542 590.227 587.485 589.176H590.127C590.178 589.807 590.383 590.332 590.741 590.753C591.104 591.168 591.567 591.477 592.13 591.682C592.698 591.881 593.32 591.98 593.996 591.98C594.741 591.98 595.403 591.864 595.982 591.631C596.567 591.392 597.028 591.062 597.363 590.642C597.698 590.216 597.866 589.719 597.866 589.151C597.866 588.634 597.718 588.21 597.423 587.881C597.133 587.551 596.738 587.278 596.238 587.062C595.744 586.847 595.184 586.656 594.559 586.491L592.496 585.929C591.099 585.548 589.991 584.989 589.173 584.25C588.36 583.511 587.954 582.534 587.954 581.318C587.954 580.312 588.227 579.435 588.772 578.685C589.317 577.935 590.056 577.352 590.988 576.938C591.92 576.517 592.971 576.307 594.141 576.307C595.323 576.307 596.366 576.514 597.269 576.929C598.178 577.344 598.894 577.915 599.417 578.642C599.94 579.364 600.212 580.193 600.235 581.131H597.695ZM603.621 594V576.545H614.564V578.812H606.254V584.131H613.993V586.389H606.254V591.733H614.666V594H603.621ZM632.579 582.222H629.92C629.817 581.653 629.627 581.153 629.349 580.722C629.07 580.29 628.729 579.923 628.326 579.622C627.923 579.321 627.471 579.094 626.971 578.94C626.477 578.787 625.951 578.71 625.394 578.71C624.388 578.71 623.488 578.963 622.692 579.469C621.903 579.974 621.278 580.716 620.817 581.693C620.363 582.67 620.136 583.864 620.136 585.273C620.136 586.693 620.363 587.892 620.817 588.869C621.278 589.847 621.906 590.585 622.701 591.085C623.496 591.585 624.391 591.835 625.386 591.835C625.937 591.835 626.46 591.761 626.954 591.614C627.454 591.46 627.906 591.236 628.309 590.94C628.712 590.645 629.053 590.284 629.332 589.858C629.616 589.426 629.812 588.932 629.92 588.375L632.579 588.384C632.437 589.241 632.161 590.031 631.752 590.753C631.349 591.469 630.829 592.088 630.192 592.611C629.562 593.128 628.84 593.528 628.028 593.812C627.215 594.097 626.329 594.239 625.369 594.239C623.857 594.239 622.511 593.881 621.329 593.165C620.147 592.443 619.215 591.412 618.533 590.071C617.857 588.73 617.519 587.131 617.519 585.273C617.519 583.409 617.86 581.81 618.542 580.474C619.224 579.134 620.156 578.105 621.337 577.389C622.519 576.668 623.863 576.307 625.369 576.307C626.295 576.307 627.158 576.44 627.96 576.707C628.766 576.969 629.491 577.355 630.133 577.866C630.775 578.372 631.306 578.991 631.727 579.724C632.147 580.452 632.431 581.284 632.579 582.222ZM646.955 576.545H649.597V588.026C649.597 589.247 649.31 590.33 648.736 591.273C648.162 592.21 647.355 592.949 646.315 593.489C645.276 594.023 644.057 594.29 642.659 594.29C641.267 594.29 640.051 594.023 639.011 593.489C637.972 592.949 637.165 592.21 636.591 591.273C636.017 590.33 635.73 589.247 635.73 588.026V576.545H638.364V587.812C638.364 588.602 638.537 589.304 638.884 589.918C639.236 590.531 639.733 591.014 640.375 591.366C641.017 591.713 641.778 591.886 642.659 591.886C643.545 591.886 644.31 591.713 644.952 591.366C645.599 591.014 646.094 590.531 646.435 589.918C646.781 589.304 646.955 588.602 646.955 587.812V576.545ZM653.425 594V576.545H659.647C660.999 576.545 662.121 576.778 663.013 577.244C663.911 577.71 664.582 578.355 665.025 579.179C665.468 579.997 665.69 580.943 665.69 582.017C665.69 583.085 665.465 584.026 665.016 584.838C664.573 585.645 663.903 586.273 663.005 586.722C662.113 587.17 660.991 587.395 659.638 587.395H654.925V585.128H659.4C660.252 585.128 660.945 585.006 661.479 584.761C662.019 584.517 662.414 584.162 662.664 583.696C662.914 583.23 663.039 582.67 663.039 582.017C663.039 581.358 662.911 580.787 662.656 580.304C662.406 579.821 662.011 579.452 661.471 579.196C660.937 578.935 660.235 578.804 659.366 578.804H656.059V594H653.425ZM662.042 586.125L666.354 594H663.354L659.127 586.125H662.042ZM671.528 576.545V594H668.894V576.545H671.528ZM674.502 578.812V576.545H688.011V578.812H682.565V594H679.94V578.812H674.502ZM689.649 576.545H692.641L697.2 584.48H697.388L701.947 576.545H704.939L698.607 587.148V594H695.982V587.148L689.649 576.545ZM712.43 576.545H715.422L719.982 584.48H720.169L724.729 576.545H727.72L721.388 587.148V594H718.763V587.148L712.43 576.545ZM744.478 585.273C744.478 587.136 744.137 588.739 743.455 590.08C742.773 591.415 741.839 592.443 740.651 593.165C739.469 593.881 738.126 594.239 736.62 594.239C735.109 594.239 733.759 593.881 732.572 593.165C731.39 592.443 730.458 591.412 729.776 590.071C729.094 588.73 728.754 587.131 728.754 585.273C728.754 583.409 729.094 581.81 729.776 580.474C730.458 579.134 731.39 578.105 732.572 577.389C733.759 576.668 735.109 576.307 736.62 576.307C738.126 576.307 739.469 576.668 740.651 577.389C741.839 578.105 742.773 579.134 743.455 580.474C744.137 581.81 744.478 583.409 744.478 585.273ZM741.87 585.273C741.87 583.852 741.64 582.656 741.18 581.685C740.725 580.707 740.1 579.969 739.305 579.469C738.515 578.963 737.62 578.71 736.62 578.71C735.614 578.71 734.717 578.963 733.927 579.469C733.137 579.969 732.512 580.707 732.052 581.685C731.597 582.656 731.37 583.852 731.37 585.273C731.37 586.693 731.597 587.892 732.052 588.869C732.512 589.841 733.137 590.58 733.927 591.085C734.717 591.585 735.614 591.835 736.62 591.835C737.62 591.835 738.515 591.585 739.305 591.085C740.1 590.58 740.725 589.841 741.18 588.869C741.64 587.892 741.87 586.693 741.87 585.273ZM758.986 576.545H761.628V588.026C761.628 589.247 761.341 590.33 760.767 591.273C760.193 592.21 759.386 592.949 758.347 593.489C757.307 594.023 756.088 594.29 754.69 594.29C753.298 594.29 752.082 594.023 751.043 593.489C750.003 592.949 749.196 592.21 748.622 591.273C748.048 590.33 747.761 589.247 747.761 588.026V576.545H750.395V587.812C750.395 588.602 750.568 589.304 750.915 589.918C751.267 590.531 751.764 591.014 752.406 591.366C753.048 591.713 753.81 591.886 754.69 591.886C755.577 591.886 756.341 591.713 756.983 591.366C757.631 591.014 758.125 590.531 758.466 589.918C758.813 589.304 758.986 588.602 758.986 587.812V576.545ZM786.305 582.222H783.646C783.544 581.653 783.354 581.153 783.075 580.722C782.797 580.29 782.456 579.923 782.053 579.622C781.649 579.321 781.197 579.094 780.697 578.94C780.203 578.787 779.678 578.71 779.121 578.71C778.115 578.71 777.214 578.963 776.419 579.469C775.629 579.974 775.004 580.716 774.544 581.693C774.089 582.67 773.862 583.864 773.862 585.273C773.862 586.693 774.089 587.892 774.544 588.869C775.004 589.847 775.632 590.585 776.428 591.085C777.223 591.585 778.118 591.835 779.112 591.835C779.663 591.835 780.186 591.761 780.68 591.614C781.18 591.46 781.632 591.236 782.036 590.94C782.439 590.645 782.78 590.284 783.058 589.858C783.342 589.426 783.538 588.932 783.646 588.375L786.305 588.384C786.163 589.241 785.888 590.031 785.479 590.753C785.075 591.469 784.555 592.088 783.919 592.611C783.288 593.128 782.567 593.528 781.754 593.812C780.942 594.097 780.055 594.239 779.095 594.239C777.584 594.239 776.237 593.881 775.055 593.165C773.874 592.443 772.942 591.412 772.26 590.071C771.584 588.73 771.246 587.131 771.246 585.273C771.246 583.409 771.587 581.81 772.268 580.474C772.95 579.134 773.882 578.105 775.064 577.389C776.246 576.668 777.589 576.307 779.095 576.307C780.021 576.307 780.885 576.44 781.686 576.707C782.493 576.969 783.217 577.355 783.859 577.866C784.501 578.372 785.033 578.991 785.453 579.724C785.874 580.452 786.158 581.284 786.305 582.222ZM790.814 594H788.018L794.3 576.545H797.342L803.624 594H800.828L795.893 579.716H795.757L790.814 594ZM791.283 587.165H800.351V589.381H791.283V587.165ZM820.232 576.545V594H817.812L808.94 581.199H808.778V594H806.144V576.545H808.582L817.462 589.364H817.624V576.545H820.232ZM829.565 578.812V576.545H843.073V578.812H837.627V594H835.002V578.812H829.565ZM846.058 594V576.545H852.28C853.632 576.545 854.754 576.778 855.646 577.244C856.544 577.71 857.214 578.355 857.658 579.179C858.101 579.997 858.322 580.943 858.322 582.017C858.322 583.085 858.098 584.026 857.649 584.838C857.206 585.645 856.536 586.273 855.638 586.722C854.746 587.17 853.624 587.395 852.271 587.395H847.558V585.128H852.033C852.885 585.128 853.578 585.006 854.112 584.761C854.652 584.517 855.047 584.162 855.297 583.696C855.547 583.23 855.672 582.67 855.672 582.017C855.672 581.358 855.544 580.787 855.288 580.304C855.038 579.821 854.643 579.452 854.104 579.196C853.57 578.935 852.868 578.804 851.999 578.804H848.692V594H846.058ZM854.675 586.125L858.987 594H855.987L851.76 586.125H854.675ZM872.751 576.545H875.393V588.026C875.393 589.247 875.107 590.33 874.533 591.273C873.959 592.21 873.152 592.949 872.112 593.489C871.072 594.023 869.854 594.29 868.456 594.29C867.064 594.29 865.848 594.023 864.808 593.489C863.768 592.949 862.962 592.21 862.388 591.273C861.814 590.33 861.527 589.247 861.527 588.026V576.545H864.161V587.812C864.161 588.602 864.334 589.304 864.68 589.918C865.033 590.531 865.53 591.014 866.172 591.366C866.814 591.713 867.575 591.886 868.456 591.886C869.342 591.886 870.107 591.713 870.749 591.366C871.396 591.014 871.891 590.531 872.232 589.918C872.578 589.304 872.751 588.602 872.751 587.812V576.545ZM888.742 581.131C888.651 580.324 888.276 579.699 887.617 579.256C886.958 578.807 886.129 578.582 885.129 578.582C884.413 578.582 883.793 578.696 883.271 578.923C882.748 579.145 882.342 579.452 882.052 579.844C881.768 580.23 881.626 580.67 881.626 581.165C881.626 581.58 881.722 581.937 881.915 582.239C882.114 582.54 882.373 582.793 882.691 582.997C883.015 583.196 883.362 583.364 883.731 583.5C884.1 583.631 884.455 583.739 884.796 583.824L886.501 584.267C887.058 584.403 887.629 584.588 888.214 584.821C888.799 585.054 889.342 585.361 889.842 585.741C890.342 586.122 890.745 586.594 891.052 587.156C891.364 587.719 891.521 588.392 891.521 589.176C891.521 590.165 891.265 591.043 890.754 591.81C890.248 592.577 889.512 593.182 888.546 593.625C887.586 594.068 886.424 594.29 885.06 594.29C883.754 594.29 882.623 594.082 881.668 593.668C880.714 593.253 879.967 592.665 879.427 591.903C878.887 591.136 878.589 590.227 878.532 589.176H881.174C881.225 589.807 881.43 590.332 881.788 590.753C882.151 591.168 882.614 591.477 883.177 591.682C883.745 591.881 884.367 591.98 885.043 591.98C885.788 591.98 886.45 591.864 887.029 591.631C887.614 591.392 888.075 591.062 888.41 590.642C888.745 590.216 888.913 589.719 888.913 589.151C888.913 588.634 888.765 588.21 888.469 587.881C888.18 587.551 887.785 587.278 887.285 587.062C886.79 586.847 886.231 586.656 885.606 586.491L883.543 585.929C882.146 585.548 881.038 584.989 880.219 584.25C879.407 583.511 879.001 582.534 879.001 581.318C879.001 580.312 879.273 579.435 879.819 578.685C880.364 577.935 881.103 577.352 882.035 576.938C882.967 576.517 884.018 576.307 885.188 576.307C886.37 576.307 887.413 576.514 888.316 576.929C889.225 577.344 889.941 577.915 890.464 578.642C890.987 579.364 891.259 580.193 891.282 581.131H888.742ZM893.807 578.812V576.545H907.315V578.812H901.869V594H899.244V578.812H893.807Z" fill="#2A84F9"/>
<path d="M758.778 376.355C741.606 376.355 727.685 362.41 727.685 345.208C727.685 328.006 741.606 314.061 758.778 314.061C775.95 314.061 789.87 328.006 789.87 345.208C789.87 362.41 775.95 376.355 758.778 376.355Z" fill="url(#paint2_linear_4236_3494)"/>
<path d="M773.661 352C773.661 370.987 768.04 389.548 757.51 405.335C746.98 421.122 732.014 433.426 714.503 440.692C696.992 447.958 677.724 449.86 659.135 446.155C640.546 442.451 623.47 433.308 610.068 419.882C596.666 406.457 587.539 389.351 583.841 370.729C580.144 352.107 582.042 332.805 589.295 315.263C596.548 297.721 608.831 282.728 624.59 272.18C640.349 261.631 658.877 256.001 677.83 256.001L677.83 289.719C665.534 289.719 653.514 293.372 643.29 300.215C633.065 307.059 625.097 316.786 620.391 328.166C615.685 339.547 614.454 352.07 616.853 364.151C619.252 376.232 625.173 387.33 633.868 396.04C642.563 404.751 653.641 410.682 665.701 413.085C677.761 415.489 690.262 414.255 701.623 409.541C712.983 404.827 722.693 396.844 729.524 386.602C736.356 376.36 740.002 364.319 740.002 352H773.661Z" fill="url(#paint3_linear_4236_3494)"/>
<path d="M682.222 321.645C699.394 321.645 713.315 335.59 713.315 352.792C713.315 369.994 699.394 383.939 682.222 383.939C665.05 383.939 651.13 369.994 651.13 352.792C651.13 335.59 665.05 321.645 682.222 321.645Z" fill="url(#paint4_linear_4236_3494)"/>
<path d="M667.339 346C667.339 327.013 672.96 308.452 683.49 292.665C694.02 276.878 708.986 264.574 726.497 257.308C744.008 250.042 763.276 248.14 781.865 251.845C800.454 255.549 817.53 264.692 830.932 278.118C844.334 291.543 853.461 308.649 857.159 327.271C860.856 345.893 858.958 365.195 851.705 382.737C844.452 400.279 832.169 415.272 816.41 425.82C800.651 436.369 782.123 441.999 763.17 441.999V408.281C775.466 408.281 787.486 404.628 797.71 397.785C807.935 390.941 815.903 381.214 820.609 369.834C825.315 358.453 826.546 345.93 824.147 333.849C821.748 321.768 815.827 310.67 807.132 301.96C798.437 293.249 787.359 287.318 775.299 284.915C763.239 282.511 750.738 283.745 739.377 288.459C728.017 293.173 718.307 301.156 711.476 311.398C704.644 321.64 700.998 333.681 700.998 346L667.339 346Z" fill="url(#paint5_linear_4236_3494)"/>
</g>
<defs>
<filter id="filter0_f_4236_3494" x="-449" y="98" width="1167" height="1167" filterUnits="userSpaceOnUse" color-interpolation-filters="sRGB">
<feFlood flood-opacity="0" result="BackgroundImageFix"/>
<feBlend mode="normal" in="SourceGraphic" in2="BackgroundImageFix" result="shape"/>
<feGaussianBlur stdDeviation="150" result="effect1_foregroundBlur_4236_3494"/>
</filter>
<filter id="filter1_f_4236_3494" x="693" y="-423.612" width="1167" height="1167" filterUnits="userSpaceOnUse" color-interpolation-filters="sRGB">
<feFlood flood-opacity="0" result="BackgroundImageFix"/>
<feBlend mode="normal" in="SourceGraphic" in2="BackgroundImageFix" result="shape"/>
<feGaussianBlur stdDeviation="150" result="effect1_foregroundBlur_4236_3494"/>
</filter>
<filter id="filter2_f_4236_3494" x="-310.704" y="474.296" width="687.795" height="687.795" filterUnits="userSpaceOnUse" color-interpolation-filters="sRGB">
<feFlood flood-opacity="0" result="BackgroundImageFix"/>
<feBlend mode="normal" in="SourceGraphic" in2="BackgroundImageFix" result="shape"/>
<feGaussianBlur stdDeviation="100" result="effect1_foregroundBlur_4236_3494"/>
</filter>
<filter id="filter3_f_4236_3494" x="1033.91" y="-272.704" width="687.795" height="687.795" filterUnits="userSpaceOnUse" color-interpolation-filters="sRGB">
<feFlood flood-opacity="0" result="BackgroundImageFix"/>
<feBlend mode="normal" in="SourceGraphic" in2="BackgroundImageFix" result="shape"/>
<feGaussianBlur stdDeviation="100" result="effect1_foregroundBlur_4236_3494"/>
</filter>
<linearGradient id="paint0_linear_4236_3494" x1="279.641" y1="271.124" x2="55.7683" y2="-36.6454" gradientUnits="userSpaceOnUse">
<stop offset="0.00104141" stop-color="#0FD3FE"/>
<stop offset="0.730208" stop-color="#0E41ED"/>
</linearGradient>
<linearGradient id="paint1_linear_4236_3494" x1="279.641" y1="271.124" x2="55.7683" y2="-36.6454" gradientUnits="userSpaceOnUse">
<stop offset="0.00104141" stop-color="#0FD3FE"/>
<stop offset="0.730208" stop-color="#0E41ED"/>
</linearGradient>
<linearGradient id="paint2_linear_4236_3494" x1="720.5" y1="250" x2="720.5" y2="448" gradientUnits="userSpaceOnUse">
<stop stop-color="#0FD3FE"/>
<stop offset="0.906" stop-color="#3561F6"/>
</linearGradient>
<linearGradient id="paint3_linear_4236_3494" x1="720.5" y1="250" x2="720.5" y2="448" gradientUnits="userSpaceOnUse">
<stop stop-color="#0FD3FE"/>
<stop offset="0.906" stop-color="#3561F6"/>
</linearGradient>
<linearGradient id="paint4_linear_4236_3494" x1="720.5" y1="250" x2="720.5" y2="448" gradientUnits="userSpaceOnUse">
<stop stop-color="#0FD3FE"/>
<stop offset="0.906" stop-color="#3561F6"/>
</linearGradient>
<linearGradient id="paint5_linear_4236_3494" x1="720.5" y1="250" x2="720.5" y2="448" gradientUnits="userSpaceOnUse">
<stop stop-color="#0FD3FE"/>
<stop offset="0.906" stop-color="#3561F6"/>
</linearGradient>
<clipPath id="clip0_4236_3494">
<rect width="1440" height="850" fill="white"/>
</clipPath>
</defs>
</svg>
