<svg width="28" height="28" viewBox="0 0 28 28" fill="none" xmlns="http://www.w3.org/2000/svg">
<g filter="url(#filter0_b_1984_3740)">
<rect width="28" height="28" rx="14" transform="matrix(1 2.13529e-05 2.13529e-05 -1 0 28.0005)" fill="url(#paint0_linear_1984_3740)"/>
</g>
<g clip-path="url(#clip0_1984_3740)">
<path d="M14.5 5.00049C15.3721 5.00049 16.2132 5.11182 17.0234 5.33447C17.8337 5.55713 18.5913 5.87565 19.2964 6.29004C20.0015 6.70443 20.6416 7.19922 21.2168 7.77441C21.792 8.34961 22.2868 8.99284 22.7012 9.7041C23.1156 10.4154 23.4341 11.173 23.6567 11.9771C23.8794 12.7811 23.9938 13.6222 24 14.5005C24 15.3726 23.8887 16.2137 23.666 17.0239C23.4434 17.8341 23.1248 18.5918 22.7104 19.2969C22.2961 20.002 21.8013 20.6421 21.2261 21.2173C20.6509 21.7925 20.0076 22.2873 19.2964 22.7017C18.5851 23.116 17.8275 23.4346 17.0234 23.6572C16.2194 23.8799 15.3783 23.9943 14.5 24.0005C13.6279 24.0005 12.7868 23.8892 11.9766 23.6665C11.1663 23.4438 10.4087 23.1253 9.70361 22.7109C8.99854 22.2965 8.3584 21.8018 7.7832 21.2266C7.20801 20.6514 6.71322 20.0081 6.29883 19.2969C5.88444 18.5856 5.56592 17.8311 5.34326 17.0332C5.12061 16.2354 5.00618 15.3911 5 14.5005C5 13.6284 5.11133 12.7873 5.33398 11.9771C5.55664 11.1668 5.87516 10.4092 6.28955 9.7041C6.70394 8.99902 7.19873 8.35889 7.77393 7.78369C8.34912 7.2085 8.99235 6.7137 9.70361 6.29932C10.4149 5.88493 11.1694 5.56641 11.9673 5.34375C12.7651 5.12109 13.6094 5.00667 14.5 5.00049ZM14.5 22.813C15.2607 22.813 15.9937 22.714 16.6987 22.5161C17.4038 22.3182 18.0656 22.0399 18.6841 21.6812C19.3026 21.3224 19.8654 20.8864 20.3726 20.373C20.8797 19.8597 21.3127 19.3 21.6714 18.6938C22.0301 18.0877 22.3115 17.4259 22.5156 16.7085C22.7197 15.991 22.8187 15.255 22.8125 14.5005C22.8125 13.7397 22.7135 13.0068 22.5156 12.3018C22.3177 11.5967 22.0394 10.9349 21.6807 10.3164C21.3219 9.69792 20.8859 9.13509 20.3726 8.62793C19.8592 8.12077 19.2995 7.68783 18.6934 7.3291C18.0872 6.97038 17.4255 6.68896 16.708 6.48486C15.9906 6.28076 15.2546 6.1818 14.5 6.18799C13.7393 6.18799 13.0063 6.28695 12.3013 6.48486C11.5962 6.68278 10.9344 6.9611 10.3159 7.31982C9.69743 7.67855 9.1346 8.11458 8.62744 8.62793C8.12028 9.14128 7.68734 9.70101 7.32861 10.3071C6.96989 10.9132 6.68848 11.575 6.48438 12.2925C6.28027 13.0099 6.18132 13.7459 6.1875 14.5005C6.1875 15.2612 6.28646 15.9941 6.48438 16.6992C6.68229 17.4043 6.96061 18.0661 7.31934 18.6846C7.67806 19.3031 8.11409 19.8659 8.62744 20.373C9.14079 20.8802 9.70052 21.3132 10.3066 21.6719C10.9128 22.0306 11.5745 22.312 12.292 22.5161C13.0094 22.7202 13.7454 22.8192 14.5 22.813ZM20.0386 14.6489L20.4839 13.313H21.1797L20.3911 15.688H19.6953L19.25 14.3521L18.8047 15.688H18.1089L17.3203 13.313H18.0161L18.4614 14.6489L18.9067 13.313H19.5933L20.0386 14.6489ZM15.7339 13.313H16.4297L15.6411 15.688H14.9453L14.5 14.3521L14.0547 15.688H13.3589L12.5703 13.313H13.2661L13.7114 14.6489L14.1567 13.313H14.8433L15.2886 14.6489L15.7339 13.313ZM10.9839 13.313H11.6797L10.8911 15.688H10.1953L9.75 14.3521L9.30469 15.688H8.60889L7.82031 13.313H8.51611L8.96143 14.6489L9.40674 13.313H10.0933L10.5386 14.6489L10.9839 13.313Z" fill="white"/>
</g>
<defs>
<filter id="filter0_b_1984_3740" x="-4.28571" y="-4.28492" width="36.5714" height="36.5714" filterUnits="userSpaceOnUse" color-interpolation-filters="sRGB">
<feFlood flood-opacity="0" result="BackgroundImageFix"/>
<feGaussianBlur in="BackgroundImageFix" stdDeviation="2.14286"/>
<feComposite in2="SourceAlpha" operator="in" result="effect1_backgroundBlur_1984_3740"/>
<feBlend mode="normal" in="SourceGraphic" in2="effect1_backgroundBlur_1984_3740" result="shape"/>
</filter>
<linearGradient id="paint0_linear_1984_3740" x1="27.2135" y1="26.3846" x2="5.42714" y2="-3.56618" gradientUnits="userSpaceOnUse">
<stop offset="0.00104141" stop-color="#0FD3FE"/>
<stop offset="0.730208" stop-color="#0E41ED"/>
</linearGradient>
<clipPath id="clip0_1984_3740">
<rect width="19" height="19" fill="white" transform="translate(5 5.00049)"/>
</clipPath>
</defs>
</svg>
