<svg xmlns="http://www.w3.org/2000/svg" xmlns:xlink="http://www.w3.org/1999/xlink" width="1080" zoomAndPan="magnify" viewBox="0 0 810 809.999993" height="1080" preserveAspectRatio="xMidYMid meet" version="1.0"><defs><clipPath id="04b03a0fe2"><path d="M 85 82 L 655.5 82 L 655.5 728 L 85 728 Z M 85 82 " clip-rule="nonzero"/></clipPath></defs><g clip-path="url(#04b03a0fe2)"><path fill="#0084ff" d="M 364.726562 374.863281 L 364.726562 155.785156 C 364.726562 135.082031 356.042969 115.050781 340.910156 100.835938 C 327.230469 87.984375 309.917969 81.527344 292.140625 82.652344 C 263.117188 84.46875 240.0625 101.90625 229.746094 129 C 239.089844 128.902344 248.578125 130.054688 257.9375 132.535156 C 262.457031 133.730469 265.144531 138.347656 263.949219 142.851562 C 262.765625 147.367188 258.148438 150.058594 253.632812 148.859375 C 225.929688 141.554688 197.148438 147.917969 176.613281 165.890625 C 157.808594 182.375 148.671875 206.105469 151.402344 230.523438 C 167.984375 225.878906 188.421875 224.234375 212.222656 229.960938 C 216.753906 231.058594 219.554688 235.605469 218.457031 240.152344 C 217.375 244.683594 212.8125 247.484375 208.265625 246.386719 C 143.734375 230.875 101.59375 274.863281 90.207031 306.234375 C 81.054688 331.414062 84.546875 362.929688 99.296875 388.488281 C 112.429688 411.222656 132.542969 426.027344 155.90625 430.152344 C 160.496094 430.96875 163.566406 435.347656 162.75 439.933594 C 162.03125 444.03125 158.46875 446.914062 154.445312 446.914062 C 153.953125 446.914062 153.457031 446.875 152.964844 446.789062 C 148.152344 445.945312 143.464844 444.691406 138.90625 443.117188 C 119.972656 460.652344 112.867188 482.496094 115.257812 515.136719 C 116.738281 535.421875 136.003906 565.429688 153.527344 571.605469 C 160.46875 559.585938 171.40625 548.441406 186.308594 538.320312 C 190.167969 535.703125 195.417969 536.699219 198.035156 540.558594 C 200.667969 544.414062 199.652344 549.664062 195.796875 552.28125 C 174.910156 566.484375 163.425781 582.359375 161.679688 599.460938 C 159.1875 623.628906 176.34375 643.433594 181.664062 648.921875 C 187.535156 655.003906 208.351562 667.613281 231.886719 665.515625 C 250.703125 663.855469 266.792969 653.285156 279.710938 634.101562 C 282.316406 630.230469 287.566406 629.203125 291.4375 631.804688 C 295.292969 634.410156 296.320312 639.660156 293.71875 643.53125 C 284.640625 657.015625 273.800781 667.175781 261.683594 673.765625 C 263.34375 696.46875 273.675781 722.167969 310.734375 726.855469 C 322.710938 728.363281 334.84375 724.308594 344.910156 715.441406 C 357.324219 704.503906 364.726562 688.164062 364.726562 671.722656 L 364.726562 391.867188 C 334.789062 395.597656 311.210938 408.011719 292.84375 429.703125 C 291.183594 431.671875 288.789062 432.6875 286.398438 432.6875 C 284.46875 432.6875 282.527344 432.023438 280.953125 430.6875 C 277.390625 427.675781 276.941406 422.355469 279.953125 418.78125 C 301.316406 393.558594 329.847656 378.804688 364.726562 374.863281 Z M 493.019531 618.492188 L 440.929688 563.375 C 439.324219 561.683594 437.113281 560.726562 434.792969 560.726562 L 381.898438 560.726562 L 381.898438 577.617188 L 431.148438 577.617188 L 484.195312 633.777344 L 467.714844 662.320312 C 466.207031 664.9375 466.207031 668.148438 467.714844 670.765625 L 493.597656 715.582031 C 495.105469 718.1875 497.890625 719.804688 500.902344 719.804688 L 552.644531 719.804688 C 555.667969 719.804688 558.457031 718.1875 559.960938 715.582031 L 585.832031 670.765625 C 587.339844 668.148438 587.339844 664.9375 585.832031 662.320312 L 559.960938 617.507812 C 558.457031 614.902344 555.667969 613.285156 552.644531 613.285156 L 500.902344 613.285156 C 497.890625 613.285156 495.105469 614.902344 493.597656 617.507812 Z M 512.207031 545.273438 L 538.960938 545.273438 L 562.171875 505.074219 C 563.691406 502.46875 566.480469 500.851562 569.492188 500.851562 L 621.230469 500.851562 C 624.242188 500.851562 627.03125 502.457031 628.550781 505.074219 L 654.421875 549.890625 C 655.925781 552.507812 655.925781 555.714844 654.421875 558.335938 L 628.550781 603.148438 C 627.03125 605.765625 624.242188 607.371094 621.230469 607.371094 L 569.492188 607.371094 C 566.480469 607.371094 563.691406 605.765625 562.171875 603.148438 L 538.511719 562.175781 L 508.800781 562.175781 C 506.617188 562.175781 504.519531 561.332031 502.945312 559.8125 L 426.09375 485.847656 L 381.898438 485.847656 L 381.898438 468.957031 L 429.5 468.957031 C 431.683594 468.957031 433.792969 469.800781 435.355469 471.320312 Z M 484.011719 356.285156 C 481.394531 354.878906 478.226562 354.933594 475.667969 356.46875 C 473.117188 357.988281 471.554688 360.746094 471.554688 363.71875 L 471.554688 405.324219 L 381.910156 405.324219 L 381.910156 422.214844 L 471.554688 422.214844 L 471.554688 463.820312 C 471.554688 466.789062 473.117188 469.546875 475.667969 471.070312 C 477.003906 471.855469 478.496094 472.265625 480 472.265625 C 481.367188 472.265625 482.761719 471.925781 484.011719 471.25 L 576.683594 421.199219 C 579.414062 419.722656 581.117188 416.878906 581.117188 413.769531 C 581.117188 410.660156 579.414062 407.816406 576.683594 406.335938 Z M 502.945312 245.613281 L 426.109375 319.578125 L 381.898438 319.578125 L 381.898438 336.46875 L 429.5 336.46875 C 431.683594 336.46875 433.792969 335.625 435.355469 334.105469 L 512.207031 260.140625 L 538.960938 260.140625 L 562.171875 300.335938 C 563.691406 302.957031 566.480469 304.558594 569.492188 304.558594 L 621.230469 304.558594 C 624.242188 304.558594 627.03125 302.957031 628.550781 300.335938 L 654.421875 255.523438 C 655.925781 252.917969 655.925781 249.695312 654.421875 247.078125 L 628.550781 202.261719 C 627.03125 199.644531 624.242188 198.039062 621.230469 198.039062 L 569.492188 198.039062 C 566.480469 198.039062 563.691406 199.644531 562.171875 202.261719 L 538.511719 243.234375 L 508.800781 243.234375 C 506.617188 243.25 504.519531 244.09375 502.945312 245.613281 Z M 381.898438 244.683594 L 381.898438 227.792969 L 431.148438 227.792969 L 484.195312 171.648438 L 467.714844 143.105469 C 466.207031 140.484375 466.207031 137.277344 467.714844 134.660156 L 493.597656 89.859375 C 495.105469 87.238281 497.890625 85.636719 500.902344 85.636719 L 552.644531 85.636719 C 555.667969 85.636719 558.457031 87.238281 559.960938 89.859375 L 585.832031 134.660156 C 587.339844 137.277344 587.339844 140.484375 585.832031 143.105469 L 559.960938 187.917969 C 558.457031 190.539062 555.667969 192.140625 552.644531 192.140625 L 500.902344 192.140625 C 497.890625 192.140625 495.105469 190.539062 493.597656 187.917969 L 493.019531 186.921875 L 440.929688 242.050781 C 439.324219 243.742188 437.113281 244.699219 434.792969 244.699219 L 381.898438 244.699219 Z M 228.238281 578.871094 C 260.203125 544.046875 297.066406 542.964844 334.859375 575.730469 C 338.390625 578.785156 338.773438 584.121094 335.71875 587.640625 C 332.664062 591.15625 327.328125 591.539062 323.796875 588.484375 C 292.84375 561.640625 266.441406 562.21875 240.695312 590.269531 C 239.019531 592.085938 236.742188 593 234.460938 593 C 232.421875 593 230.378906 592.269531 228.761719 590.777344 C 225.328125 587.652344 225.101562 582.304688 228.238281 578.871094 Z M 295.746094 224.753906 C 301.667969 271.636719 278.671875 300.476562 229.238281 308.148438 C 228.804688 308.207031 228.367188 308.246094 227.945312 308.246094 C 223.847656 308.246094 220.246094 305.265625 219.597656 301.097656 C 218.894531 296.496094 222.046875 292.171875 226.648438 291.457031 C 267.128906 285.179688 283.765625 264.65625 278.996094 226.878906 C 278.402344 222.25 281.683594 218.027344 286.3125 217.449219 C 290.917969 216.859375 295.152344 220.136719 295.746094 224.753906 Z M 182.3125 380.859375 C 227.03125 396.175781 242.808594 429.519531 227.945312 477.277344 C 226.816406 480.894531 223.484375 483.214844 219.878906 483.214844 C 219.050781 483.214844 218.203125 483.089844 217.359375 482.835938 C 212.910156 481.457031 210.421875 476.710938 211.8125 472.265625 C 223.988281 433.148438 212.871094 409.179688 176.851562 396.851562 C 172.433594 395.34375 170.082031 390.542969 171.585938 386.125 C 173.109375 381.707031 177.90625 379.355469 182.3125 380.859375 Z M 182.3125 380.859375 " fill-opacity="1" fill-rule="evenodd"/></g></svg>