<svg xmlns="http://www.w3.org/2000/svg" xmlns:xlink="http://www.w3.org/1999/xlink" width="1080" zoomAndPan="magnify" viewBox="0 0 810 809.999993" height="1080" preserveAspectRatio="xMidYMid meet" version="1.0"><defs><clipPath id="95f321039d"><path d="M 504 619 L 670 619 L 670 705.75 L 504 705.75 Z M 504 619 " clip-rule="nonzero"/></clipPath><clipPath id="8e6eed1c18"><path d="M 468 468 L 705.75 468 L 705.75 654 L 468 654 Z M 468 468 " clip-rule="nonzero"/></clipPath><clipPath id="458cee06d1"><path d="M 81 640 L 318 640 L 318 705.75 L 81 705.75 Z M 81 640 " clip-rule="nonzero"/></clipPath></defs><path fill="#0084ff" d="M 360.914062 543.933594 C 360.914062 549.863281 356.078125 554.699219 350.148438 554.699219 L 339.382812 554.699219 L 339.382812 576.230469 L 350.148438 576.230469 C 367.976562 576.230469 382.445312 561.765625 382.445312 543.933594 L 382.445312 382.445312 L 360.914062 382.445312 L 360.914062 543.933594 " fill-opacity="1" fill-rule="nonzero"/><path fill="#0084ff" d="M 436.273438 576.230469 C 430.34375 576.230469 425.507812 571.394531 425.507812 565.464844 L 425.507812 382.445312 L 403.976562 382.445312 L 403.976562 565.464844 C 403.976562 583.296875 418.445312 597.761719 436.273438 597.761719 L 448.976562 597.761719 C 447.796875 590.738281 447.039062 583.589844 447.039062 576.230469 L 436.273438 576.230469 " fill-opacity="1" fill-rule="nonzero"/><path fill="#0084ff" d="M 188.660156 317.851562 L 210.191406 317.851562 L 210.191406 339.382812 L 188.660156 339.382812 Z M 188.660156 231.722656 C 218.347656 231.722656 242.488281 255.863281 242.488281 285.550781 L 220.957031 285.550781 C 220.957031 267.722656 206.488281 253.253906 188.660156 253.253906 Z M 253.253906 317.851562 L 253.253906 339.382812 L 231.722656 339.382812 L 231.722656 317.851562 Z M 274.785156 317.851562 L 296.316406 317.851562 L 296.316406 339.382812 L 274.785156 339.382812 Z M 339.382812 102.53125 C 380.550781 102.53125 417.519531 125.453125 435.855469 162.332031 L 416.550781 171.921875 C 401.875 142.398438 372.308594 124.0625 339.382812 124.0625 Z M 500.871094 253.253906 C 518.699219 253.253906 533.167969 238.789062 533.167969 220.957031 L 554.699219 220.957031 C 554.699219 250.648438 530.558594 274.785156 500.871094 274.785156 Z M 188.660156 360.914062 L 597.761719 360.914062 C 620.347656 360.914062 641.582031 350.90625 655.964844 333.453125 C 670.304688 316 676.066406 292.996094 671.652344 270.328125 C 665.890625 240.722656 642.046875 217.085938 612.355469 211.535156 C 607.265625 210.609375 602.179688 210.316406 597.175781 210.359375 C 597.511719 213.847656 597.761719 217.382812 597.761719 220.957031 C 597.761719 274.367188 554.320312 317.851562 500.871094 317.851562 L 500.871094 296.316406 C 542.417969 296.316406 576.230469 262.507812 576.230469 220.957031 C 576.230469 179.40625 542.417969 145.59375 500.871094 145.59375 C 489.222656 145.59375 477.992188 148.246094 467.4375 153.5 L 458.101562 158.128906 L 453.179688 148.960938 C 430.554688 107.03125 386.945312 81 339.382812 81 C 275.082031 81 220.789062 128.816406 211.664062 191.476562 C 225.667969 194.882812 238.871094 201.359375 250.269531 210.738281 C 272.683594 229.242188 285.550781 256.492188 285.550781 285.550781 L 264.019531 285.550781 C 264.019531 262.96875 254.011719 241.773438 236.558594 227.347656 C 219.105469 213.007812 196.144531 207.289062 173.433594 211.664062 C 144.039062 217.382812 120.488281 240.933594 114.769531 270.328125 C 110.394531 292.996094 116.117188 316 130.457031 333.453125 C 144.839844 350.90625 166.074219 360.914062 188.660156 360.914062 " fill-opacity="1" fill-rule="nonzero"/><g clip-path="url(#95f321039d)"><path fill="#0084ff" d="M 597.761719 619.292969 L 576.230469 619.292969 C 543.007812 619.292969 514.496094 640.742188 504.613281 671.90625 C 525.976562 692.59375 554.992188 705.421875 586.996094 705.421875 C 619 705.421875 648.019531 692.59375 669.382812 671.90625 C 659.5 640.742188 631.027344 619.292969 597.761719 619.292969 " fill-opacity="1" fill-rule="nonzero"/></g><g clip-path="url(#8e6eed1c18)"><path fill="#0084ff" d="M 586.996094 468.570312 C 521.6875 468.570312 468.570312 521.6875 468.570312 586.996094 C 468.570312 611.429688 476.015625 634.183594 488.757812 653.0625 C 499.902344 629.429688 519.960938 611.515625 544.355469 603.105469 C 530.9375 591.246094 522.402344 573.960938 522.402344 554.699219 C 522.402344 519.078125 551.378906 490.105469 586.996094 490.105469 C 622.617188 490.105469 651.59375 519.078125 651.59375 554.699219 C 651.59375 573.960938 643.054688 591.246094 629.640625 603.105469 C 654.03125 611.515625 674.089844 629.429688 685.234375 653.0625 C 697.976562 634.183594 705.421875 611.429688 705.421875 586.996094 C 705.421875 521.6875 652.308594 468.570312 586.996094 468.570312 " fill-opacity="1" fill-rule="nonzero"/></g><path fill="#0084ff" d="M 630.0625 554.699219 C 630.0625 530.9375 610.757812 511.636719 586.996094 511.636719 C 563.234375 511.636719 543.933594 530.9375 543.933594 554.699219 C 543.933594 578.460938 563.234375 597.761719 586.996094 597.761719 C 610.757812 597.761719 630.0625 578.460938 630.0625 554.699219 " fill-opacity="1" fill-rule="nonzero"/><path fill="#0084ff" d="M 124.0625 554.699219 L 124.0625 576.230469 L 274.785156 576.230469 L 274.785156 554.699219 L 124.0625 554.699219 " fill-opacity="1" fill-rule="nonzero"/><g clip-path="url(#458cee06d1)"><path fill="#0084ff" d="M 188.660156 662.359375 L 210.191406 662.359375 L 210.191406 683.890625 L 188.660156 683.890625 Z M 231.722656 662.359375 L 253.253906 662.359375 L 253.253906 683.890625 L 231.722656 683.890625 Z M 274.785156 662.359375 L 296.316406 662.359375 L 296.316406 683.890625 L 274.785156 683.890625 Z M 81 673.125 C 81 690.957031 95.464844 705.421875 113.296875 705.421875 L 285.550781 705.421875 C 303.382812 705.421875 317.851562 690.957031 317.851562 673.125 L 317.851562 640.828125 L 81 640.828125 L 81 673.125 " fill-opacity="1" fill-rule="nonzero"/></g><path fill="#0084ff" d="M 296.316406 490.105469 C 296.316406 501.964844 286.644531 511.636719 274.785156 511.636719 L 124.0625 511.636719 C 112.203125 511.636719 102.53125 501.964844 102.53125 490.105469 L 102.53125 468.570312 C 102.53125 456.710938 112.203125 447.039062 124.0625 447.039062 L 274.785156 447.039062 C 286.644531 447.039062 296.316406 456.710938 296.316406 468.570312 Z M 296.316406 576.230469 C 296.316406 588.089844 286.644531 597.761719 274.785156 597.761719 L 124.0625 597.761719 C 112.203125 597.761719 102.53125 588.089844 102.53125 576.230469 L 102.53125 554.699219 C 102.53125 542.839844 112.203125 533.167969 124.0625 533.167969 L 274.785156 533.167969 C 286.644531 533.167969 296.316406 542.839844 296.316406 554.699219 Z M 285.550781 425.507812 L 113.296875 425.507812 C 95.464844 425.507812 81 439.976562 81 457.804688 L 81 619.292969 L 317.851562 619.292969 L 317.851562 457.804688 C 317.851562 439.976562 303.382812 425.507812 285.550781 425.507812 " fill-opacity="1" fill-rule="nonzero"/><path fill="#0084ff" d="M 124.0625 468.570312 L 124.0625 490.105469 L 274.785156 490.105469 L 274.785156 468.570312 L 124.0625 468.570312 " fill-opacity="1" fill-rule="nonzero"/></svg>