<svg xmlns="http://www.w3.org/2000/svg" xmlns:xlink="http://www.w3.org/1999/xlink" width="1080" zoomAndPan="magnify" viewBox="0 0 810 809.999993" height="1080" preserveAspectRatio="xMidYMid meet" version="1.0"><path fill="#0084ff" d="M 220.476562 434.96875 L 183.929688 420.902344 L 183.929688 361.199219 L 220.480469 347.128906 C 225.117188 327.652344 232.835938 309.046875 243.335938 292 L 227.429688 256.183594 L 269.644531 213.96875 L 305.464844 229.875 C 322.511719 219.378906 341.113281 211.65625 360.589844 207.023438 L 374.660156 170.46875 L 434.363281 170.46875 L 448.433594 207.023438 C 467.910156 211.65625 486.511719 219.378906 503.558594 229.875 L 539.378906 213.964844 L 581.597656 256.183594 L 565.691406 291.992188 C 576.191406 309.039062 583.914062 327.652344 588.550781 347.132812 L 625.09375 361.195312 L 625.09375 420.902344 L 602.953125 429.421875 C 582.402344 413.148438 556.425781 403.429688 528.175781 403.429688 C 521.1875 403.429688 514.339844 404.03125 507.679688 405.171875 C 508.304688 400.554688 508.636719 395.839844 508.636719 391.050781 C 508.636719 333.539062 462.023438 286.925781 404.511719 286.925781 C 347.003906 286.925781 300.390625 333.539062 300.390625 391.050781 C 300.390625 448.558594 347.003906 495.171875 404.511719 495.171875 C 406.738281 495.171875 408.945312 495.09375 411.136719 494.957031 C 408.835938 504.257812 407.605469 513.984375 407.605469 524 C 407.605469 554.441406 418.894531 582.242188 437.507812 603.464844 L 434.367188 611.632812 L 374.660156 611.632812 L 360.59375 575.078125 C 341.117188 570.441406 322.515625 562.71875 305.46875 552.226562 L 269.648438 568.132812 L 227.429688 525.914062 L 243.335938 490.105469 C 232.832031 473.058594 225.113281 454.449219 220.476562 434.96875 Z M 712.109375 677.84375 L 692.113281 698.449219 C 688.601562 702.070312 682.765625 702.15625 679.148438 698.644531 L 623.761719 644.902344 C 620.144531 641.390625 620.054688 635.558594 623.566406 631.9375 L 624.707031 630.765625 L 593.648438 600.71875 C 592.742188 601.511719 565.207031 624.851562 528.175781 624.851562 C 472.476562 624.851562 427.324219 579.699219 427.324219 524 C 427.324219 468.300781 472.476562 423.144531 528.175781 423.144531 C 583.875 423.144531 629.03125 468.300781 629.03125 524 C 629.03125 545.746094 622.144531 565.886719 610.4375 582.359375 L 642.425781 612.503906 L 643.5625 611.332031 C 647.074219 607.710938 652.910156 607.625 656.53125 611.136719 L 711.914062 664.878906 C 715.53125 668.390625 715.621094 674.222656 712.109375 677.84375 Z M 609.351562 524 C 609.351562 479.171875 573.003906 442.824219 528.179688 442.824219 C 483.347656 442.824219 447.003906 479.171875 447.003906 524 C 447.003906 568.828125 483.347656 605.171875 528.179688 605.171875 C 573.003906 605.171875 609.351562 568.828125 609.351562 524 Z M 528.175781 462.542969 C 494.234375 462.542969 466.722656 490.058594 466.722656 524 C 466.722656 557.941406 494.234375 585.457031 528.175781 585.457031 C 562.117188 585.457031 589.632812 557.941406 589.632812 524 C 589.632812 490.058594 562.117188 462.542969 528.175781 462.542969 Z M 233.703125 180.011719 C 312.03125 116.605469 419 101.921875 511.289062 141.363281 C 531.335938 149.933594 550.074219 160.824219 567.199219 173.671875 L 541.1875 174.605469 C 535.765625 174.796875 531.523438 179.351562 531.714844 184.773438 C 531.90625 190.199219 536.457031 194.4375 541.878906 194.25 L 593.050781 192.410156 C 599.664062 192.644531 604.714844 186.339844 602.875 179.867188 L 588.636719 129.957031 C 587.148438 124.726562 581.695312 121.691406 576.464844 123.179688 C 571.234375 124.667969 568.199219 130.117188 569.6875 135.351562 L 575.367188 155.246094 C 557.992188 142.636719 539.117188 131.867188 518.992188 123.265625 C 420 80.957031 305.3125 96.753906 221.300781 164.761719 C 109.097656 255.59375 80.992188 414.042969 152.753906 537.316406 C 155.476562 542.015625 161.492188 543.621094 166.195312 540.898438 C 170.894531 538.175781 172.496094 532.160156 169.773438 527.457031 C 102.84375 412.480469 129.042969 264.738281 233.703125 180.011719 Z M 648.070312 511.179688 C 648.515625 515.390625 648.746094 519.667969 648.746094 524 C 648.746094 535.128906 647.230469 545.90625 644.40625 556.140625 C 708.351562 463.398438 712.753906 341.785156 656.269531 244.785156 C 653.546875 240.085938 647.53125 238.480469 642.832031 241.203125 C 638.132812 243.925781 636.527344 249.941406 639.25 254.644531 C 684.945312 333.125 688.277344 429.679688 648.070312 511.179688 Z M 506.660156 642.652344 C 418.542969 678.507812 317.640625 665.332031 241.824219 608.425781 L 267.835938 607.492188 C 273.261719 607.300781 277.503906 602.75 277.3125 597.324219 C 277.121094 591.902344 272.566406 587.660156 267.144531 587.851562 L 215.972656 589.6875 C 209.359375 589.457031 204.308594 595.757812 206.148438 602.230469 L 220.390625 652.140625 C 221.878906 657.371094 227.328125 660.40625 232.558594 658.917969 C 237.792969 657.429688 240.824219 651.980469 239.335938 646.75 L 233.664062 626.859375 C 326.695312 694.371094 451.902344 700.867188 551.722656 642.261719 C 544.105469 643.773438 536.234375 644.570312 528.175781 644.570312 C 520.832031 644.570312 513.640625 643.910156 506.660156 642.652344 Z M 506.660156 642.652344 " fill-opacity="1" fill-rule="evenodd"/></svg>