<svg xmlns="http://www.w3.org/2000/svg" xmlns:xlink="http://www.w3.org/1999/xlink" width="1080" zoomAndPan="magnify" viewBox="0 0 810 809.999993" height="1080" preserveAspectRatio="xMidYMid meet" version="1.0"><path fill="#0084ff" d="M 573.125 81.027344 C 567.507812 81.078125 562.1875 84.367188 559.78125 89.800781 L 538.8125 139.105469 C 537.191406 142.757812 537.109375 146.914062 538.609375 150.609375 C 540.113281 154.304688 543.082031 157.234375 546.777344 158.722656 L 687.78125 212.480469 C 689.59375 213.203125 691.449219 213.515625 693.273438 213.515625 C 698.945312 213.515625 704.335938 210.25 706.765625 204.773438 L 727.734375 155.46875 C 729.355469 151.816406 729.410156 147.660156 727.90625 143.964844 C 726.40625 140.269531 723.464844 137.339844 719.765625 135.851562 L 578.734375 82.09375 C 576.890625 81.34375 575 81.011719 573.125 81.027344 Z M 95.726562 169.363281 C 87.597656 169.363281 81 175.960938 81 184.089844 L 81 257.726562 L 213.546875 257.726562 C 221.675781 257.726562 228.273438 264.324219 228.273438 272.453125 L 228.273438 287.183594 L 360.816406 287.183594 L 360.816406 184.089844 C 360.816406 175.960938 354.21875 169.363281 346.089844 169.363281 Z M 569.128906 198.960938 C 565.242188 199.523438 561.746094 201.578125 559.40625 204.714844 L 525.753906 251.917969 C 520.921875 258.382812 522.191406 267.550781 528.628906 272.453125 L 640.664062 357.796875 C 643.316406 359.832031 646.472656 360.816406 649.582031 360.816406 C 653.925781 360.816406 658.230469 358.90625 661.117188 355.210938 L 696.351562 308.753906 C 698.8125 305.648438 699.929688 301.671875 699.429688 297.738281 C 698.929688 293.820312 696.859375 290.257812 693.707031 287.871094 L 580.085938 201.78125 C 576.949219 199.410156 573 198.433594 569.128906 198.960938 Z M 81 287.183594 L 81 714.273438 C 81 722.402344 87.597656 729 95.726562 729 L 611.183594 729 C 619.3125 729 625.910156 722.402344 625.910156 714.273438 L 625.910156 611.183594 L 213.546875 611.183594 C 205.414062 611.183594 198.816406 604.582031 198.816406 596.453125 L 198.816406 287.183594 Z M 228.273438 316.636719 L 228.273438 434.453125 L 478.636719 434.453125 L 478.636719 331.363281 C 478.636719 323.234375 472.039062 316.636719 463.910156 316.636719 Z M 228.273438 463.910156 L 228.273438 581.726562 L 478.636719 581.726562 L 478.636719 463.910156 Z M 508.089844 463.910156 L 508.089844 581.726562 L 625.910156 581.726562 L 625.910156 478.636719 C 625.910156 470.507812 619.3125 463.910156 611.183594 463.910156 Z M 508.089844 463.910156 " fill-opacity="1" fill-rule="nonzero"/></svg>