<svg xmlns="http://www.w3.org/2000/svg" xmlns:xlink="http://www.w3.org/1999/xlink" width="1080" zoomAndPan="magnify" viewBox="0 0 810 809.999993" height="1080" preserveAspectRatio="xMidYMid meet" version="1.0"><defs><clipPath id="8c44d8bee3"><path d="M 376 639 L 634 639 L 634 711.765625 L 376 711.765625 Z M 376 639 " clip-rule="nonzero"/></clipPath><clipPath id="2ec3c783c7"><path d="M 82 86.265625 L 716 86.265625 L 716 185 L 82 185 Z M 82 86.265625 " clip-rule="nonzero"/></clipPath></defs><path fill="#0084ff" d="M 82.015625 547.914062 C 82.015625 565.660156 96.453125 580.101562 114.207031 580.101562 L 355.578125 580.101562 L 355.578125 345.367188 C 355.574219 345.277344 355.523438 345.203125 355.523438 345.113281 C 355.523438 345.023438 355.574219 344.949219 355.578125 344.859375 L 355.578125 281.722656 C 355.578125 257.792969 375.046875 238.320312 398.980469 238.320312 L 610.984375 238.320312 C 634.917969 238.320312 654.386719 257.792969 654.386719 281.722656 L 654.386719 344.984375 C 654.386719 345.03125 654.414062 345.066406 654.414062 345.113281 C 654.414062 345.15625 654.386719 345.195312 654.386719 345.242188 L 654.386719 580.101562 L 683.769531 580.101562 C 701.4375 580.101562 715.808594 565.660156 715.808594 547.914062 L 715.808594 205.296875 L 82.015625 205.296875 Z M 82.015625 547.914062 " fill-opacity="1" fill-rule="nonzero"/><path fill="#0084ff" d="M 610.984375 259.453125 L 398.980469 259.453125 C 386.699219 259.453125 376.707031 269.445312 376.707031 281.722656 L 376.707031 334.546875 L 633.253906 334.546875 L 633.253906 281.722656 C 633.253906 269.445312 623.261719 259.453125 610.984375 259.453125 Z M 512.085938 308.570312 L 497.847656 308.570312 C 492.011719 308.570312 487.28125 303.839844 487.28125 298.003906 C 487.28125 292.171875 492.011719 287.441406 497.847656 287.441406 L 512.085938 287.441406 C 517.921875 287.441406 522.652344 292.171875 522.652344 298.003906 C 522.652344 303.839844 517.921875 308.570312 512.085938 308.570312 Z M 512.085938 308.570312 " fill-opacity="1" fill-rule="nonzero"/><path fill="#0084ff" d="M 505.035156 560.25 C 546.171875 560.25 579.636719 526.78125 579.636719 485.644531 C 579.636719 444.433594 546.171875 410.910156 505.035156 410.910156 C 463.824219 410.910156 430.300781 444.433594 430.300781 485.644531 C 430.300781 526.78125 463.824219 560.25 505.035156 560.25 Z M 473.042969 480.816406 C 477.699219 477.296875 484.324219 478.230469 487.839844 482.890625 L 493.308594 490.132812 L 523.605469 463.816406 C 528.015625 459.984375 534.6875 460.464844 538.511719 464.863281 C 542.339844 469.269531 541.867188 475.945312 537.460938 479.769531 L 498.617188 513.507812 C 496.6875 515.183594 494.21875 516.097656 491.6875 516.097656 C 491.320312 516.097656 490.953125 516.078125 490.582031 516.042969 C 487.671875 515.730469 485.015625 514.234375 483.25 511.894531 L 470.96875 495.613281 C 467.453125 490.953125 468.382812 484.328125 473.042969 480.816406 Z M 473.042969 480.816406 " fill-opacity="1" fill-rule="nonzero"/><g clip-path="url(#8c44d8bee3)"><path fill="#0084ff" d="M 376.707031 689.328125 C 376.707031 701.667969 386.699219 711.707031 398.980469 711.707031 L 610.984375 711.707031 C 623.261719 711.707031 633.253906 701.667969 633.253906 689.328125 L 633.253906 639.941406 L 376.707031 639.941406 Z M 501.371094 664.867188 C 507.207031 664.867188 512.648438 670.3125 512.648438 676.148438 C 512.648438 681.980469 507.207031 687.425781 501.371094 687.425781 C 495.535156 687.425781 490.09375 681.980469 490.09375 676.148438 C 490.09375 670.3125 495.535156 664.867188 501.371094 664.867188 Z M 501.371094 664.867188 " fill-opacity="1" fill-rule="nonzero"/></g><path fill="#0084ff" d="M 376.707031 618.808594 L 633.253906 618.808594 L 633.253906 355.679688 L 376.707031 355.679688 Z M 505.035156 389.78125 C 557.820312 389.78125 600.769531 432.785156 600.769531 485.644531 C 600.769531 538.433594 557.820312 581.378906 505.035156 581.378906 C 452.175781 581.378906 409.167969 538.433594 409.167969 485.644531 C 409.167969 432.785156 452.175781 389.78125 505.035156 389.78125 Z M 505.035156 389.78125 " fill-opacity="1" fill-rule="nonzero"/><g clip-path="url(#2ec3c783c7)"><path fill="#0084ff" d="M 690.21875 86.964844 C 688.132812 86.535156 685.976562 86.308594 683.769531 86.308594 L 114.207031 86.308594 C 96.453125 86.308594 82.015625 100.683594 82.015625 118.351562 L 82.015625 184.167969 L 715.808594 184.167969 L 715.808594 118.351562 C 715.808594 102.894531 704.808594 89.957031 690.21875 86.964844 Z M 135.914062 146.515625 C 130.082031 146.515625 124.636719 141.074219 124.636719 135.238281 C 124.636719 129.402344 130.082031 123.960938 135.914062 123.960938 C 141.75 123.960938 147.191406 129.402344 147.191406 135.238281 C 147.191406 141.074219 141.75 146.515625 135.914062 146.515625 Z M 189.21875 146.515625 C 183.382812 146.515625 177.941406 141.074219 177.941406 135.238281 C 177.941406 129.402344 183.382812 123.960938 189.21875 123.960938 C 195.054688 123.960938 200.496094 129.402344 200.496094 135.238281 C 200.496094 141.074219 195.054688 146.515625 189.21875 146.515625 Z M 242.519531 146.515625 C 236.6875 146.515625 231.242188 141.074219 231.242188 135.238281 C 231.242188 129.402344 236.6875 123.960938 242.519531 123.960938 C 248.355469 123.960938 253.800781 129.402344 253.800781 135.238281 C 253.800781 141.074219 248.355469 146.515625 242.519531 146.515625 Z M 662.765625 145.804688 L 488.960938 145.804688 C 483.128906 145.804688 478.398438 141.074219 478.398438 135.238281 C 478.398438 129.402344 483.128906 124.671875 488.960938 124.671875 L 662.765625 124.671875 C 668.601562 124.671875 673.332031 129.402344 673.332031 135.238281 C 673.332031 141.074219 668.601562 145.804688 662.765625 145.804688 Z M 662.765625 145.804688 " fill-opacity="1" fill-rule="nonzero"/></g></svg>