<svg xmlns="http://www.w3.org/2000/svg" xmlns:xlink="http://www.w3.org/1999/xlink" width="1080" zoomAndPan="magnify" viewBox="0 0 810 809.999993" height="1080" preserveAspectRatio="xMidYMid meet" version="1.0"><defs><clipPath id="c69dea2447"><path d="M 708.265625 113 L 728 113 L 728 132.804688 L 708.265625 132.804688 Z M 708.265625 113 " clip-rule="nonzero"/></clipPath><clipPath id="b9d0546798"><path d="M 82 81 L 728 81 L 728 708 L 82 708 Z M 82 81 " clip-rule="nonzero"/></clipPath></defs><g clip-path="url(#c69dea2447)"><path fill="#ffffff" d="M 712.671875 113.632812 C 710.269531 113.632812 708.3125 115.59375 708.3125 117.992188 L 708.3125 128.164062 C 708.3125 130.566406 710.269531 132.523438 712.671875 132.523438 L 722.84375 132.523438 C 725.246094 132.523438 727.203125 130.566406 727.203125 128.164062 L 727.203125 123.804688 C 727.203125 123.402344 726.878906 123.078125 726.476562 123.078125 C 726.074219 123.078125 725.75 123.402344 725.75 123.804688 L 725.75 128.164062 C 725.75 129.785156 724.464844 131.070312 722.84375 131.070312 L 712.671875 131.070312 C 711.050781 131.070312 709.765625 129.785156 709.765625 128.164062 L 709.765625 117.992188 C 709.765625 116.371094 711.050781 115.085938 712.671875 115.085938 L 717.03125 115.085938 C 717.433594 115.085938 717.757812 114.757812 717.757812 114.359375 C 717.757812 113.957031 717.433594 113.632812 717.03125 113.632812 Z M 712.671875 113.632812 " fill-opacity="1" fill-rule="nonzero"/></g><path fill="#ffffff" d="M 723.078125 113.132812 L 714.648438 121.5625 C 714.535156 121.675781 714.460938 121.824219 714.441406 121.980469 L 713.890625 126.035156 C 713.824219 126.503906 714.21875 126.90625 714.691406 126.855469 L 718.835938 126.394531 C 719.003906 126.375 719.152344 126.304688 719.269531 126.1875 L 727.703125 117.761719 C 728.972656 116.484375 728.972656 114.40625 727.703125 113.132812 C 726.453125 111.832031 724.300781 111.949219 723.078125 113.132812 Z M 726.671875 114.160156 C 727.390625 114.878906 727.390625 116.007812 726.671875 116.730469 L 725.902344 117.503906 L 723.335938 114.933594 L 724.101562 114.160156 C 724.949219 113.316406 725.988281 113.476562 726.671875 114.160156 Z M 722.304688 115.960938 L 724.875 118.527344 L 718.421875 124.980469 L 715.457031 125.308594 L 715.847656 122.417969 Z M 722.304688 115.960938 " fill-opacity="1" fill-rule="nonzero"/><g clip-path="url(#b9d0546798)"><path fill="#0084ff" d="M 184.453125 282.628906 L 162.746094 222.046875 C 162.734375 222.015625 162.726562 221.988281 162.714844 221.957031 C 162.117188 219.792969 160.769531 217.824219 158.765625 216.472656 C 155.871094 214.519531 152.304688 214.324219 149.332031 215.640625 C 149.300781 215.65625 149.273438 215.664062 149.242188 215.679688 L 88.671875 237.382812 C 83.605469 239.195312 80.972656 244.773438 82.785156 249.839844 C 84.601562 254.90625 90.179688 257.539062 95.246094 255.722656 L 127.308594 244.234375 C 127.824219 244.046875 128.375 244.195312 128.734375 244.613281 C 129.09375 245.03125 129.15625 245.59375 128.898438 246.082031 C 119.292969 263.949219 111.359375 282.882812 105.3125 302.679688 C 96.429688 331.75 91.652344 362.527344 91.652344 394.332031 C 91.652344 480.855469 126.726562 559.195312 183.429688 615.898438 C 240.136719 672.605469 318.472656 707.679688 405 707.679688 C 436.800781 707.679688 467.578125 702.898438 496.652344 694.019531 C 526.738281 684.824219 554.839844 671.28125 580.222656 654.128906 C 584.695312 651.113281 585.875 645.039062 582.855469 640.566406 C 579.839844 636.089844 573.765625 634.910156 569.292969 637.929688 C 545.386719 654.082031 519.054688 666.796875 490.996094 675.371094 C 463.878906 683.652344 435.003906 688.113281 405 688.113281 C 323.875 688.113281 250.425781 655.230469 197.265625 602.066406 C 144.101562 548.902344 111.21875 475.457031 111.21875 394.332031 C 111.21875 364.324219 115.675781 335.449219 123.960938 308.335938 C 130.300781 287.585938 138.902344 267.78125 149.488281 249.203125 C 149.746094 248.75 150.214844 248.503906 150.734375 248.550781 C 151.253906 248.59375 151.675781 248.917969 151.851562 249.410156 L 166.109375 289.203125 C 167.921875 294.269531 173.5 296.902344 178.566406 295.089844 C 183.632812 293.273438 186.265625 287.695312 184.453125 282.628906 Z M 227.140625 148.09375 C 224.125 143.621094 225.304688 137.546875 229.777344 134.53125 C 255.160156 117.378906 283.261719 103.835938 313.347656 94.644531 C 342.417969 85.761719 373.199219 80.980469 405 80.980469 C 491.527344 80.980469 569.863281 116.054688 626.570312 172.761719 C 683.273438 229.464844 718.347656 307.804688 718.347656 394.332031 C 718.347656 426.132812 713.570312 456.910156 704.6875 485.980469 C 698.640625 505.777344 690.707031 524.710938 681.105469 542.578125 C 680.84375 543.066406 680.90625 543.628906 681.265625 544.046875 C 681.625 544.464844 682.175781 544.609375 682.691406 544.425781 L 714.753906 532.9375 C 719.820312 531.121094 725.398438 533.757812 727.214844 538.820312 C 729.027344 543.886719 726.394531 549.464844 721.328125 551.28125 L 660.757812 572.984375 C 660.726562 572.996094 660.699219 573.003906 660.667969 573.019531 C 657.695312 574.335938 654.128906 574.144531 651.234375 572.191406 C 649.230469 570.835938 647.882812 568.867188 647.285156 566.703125 C 647.277344 566.671875 647.265625 566.644531 647.253906 566.613281 L 625.546875 506.035156 C 623.734375 500.96875 626.367188 495.390625 631.433594 493.574219 C 636.496094 491.761719 642.074219 494.394531 643.890625 499.460938 L 658.148438 539.253906 C 658.324219 539.746094 658.742188 540.066406 659.265625 540.113281 C 659.78125 540.160156 660.25 539.914062 660.507812 539.460938 C 671.09375 520.882812 679.699219 501.078125 686.039062 480.328125 C 694.324219 453.210938 698.78125 424.339844 698.78125 394.332031 C 698.78125 313.207031 665.898438 239.761719 612.734375 186.597656 C 559.574219 133.429688 486.125 100.546875 405 100.546875 C 374.996094 100.546875 346.121094 105.007812 319.003906 113.289062 C 290.945312 121.863281 264.613281 134.578125 240.707031 150.730469 C 236.234375 153.75 230.160156 152.570312 227.140625 148.09375 Z M 502.082031 392.511719 C 502.082031 447.933594 457.15625 492.859375 401.734375 492.859375 C 346.316406 492.859375 301.386719 447.933594 301.386719 392.511719 C 301.386719 337.09375 346.3125 292.164062 401.734375 292.164062 C 431.460938 292.164062 458.167969 305.089844 476.542969 325.625 C 476.796875 325.910156 477.125 326.058594 477.503906 326.058594 C 477.886719 326.0625 478.214844 325.917969 478.472656 325.636719 L 525.050781 275.027344 C 528.699219 271.0625 534.878906 270.804688 538.84375 274.457031 C 542.8125 278.105469 543.070312 284.285156 539.417969 288.25 L 522.09375 307.074219 L 522.085938 307.082031 C 522.082031 307.085938 522.078125 307.089844 522.074219 307.097656 L 401.464844 438.140625 C 401.210938 438.417969 400.890625 438.558594 400.515625 438.5625 C 400.144531 438.566406 399.820312 438.429688 399.5625 438.15625 L 363.433594 400.144531 C 359.71875 396.242188 353.542969 396.085938 349.636719 399.800781 C 345.734375 403.515625 345.582031 409.691406 349.292969 413.597656 L 393.570312 460.179688 C 397.285156 464.085938 403.460938 464.238281 407.367188 460.523438 C 407.519531 460.378906 407.664062 460.230469 407.8125 460.082031 C 407.820312 460.070312 407.828125 460.0625 407.835938 460.054688 L 495.992188 364.269531 C 496.320312 363.910156 496.78125 363.769531 497.25 363.882812 C 497.722656 363.992188 498.070312 364.328125 498.203125 364.792969 C 500.730469 373.597656 502.082031 382.898438 502.082031 392.511719 Z M 223.238281 242.746094 C 223.253906 242.109375 223.714844 241.585938 224.34375 241.492188 C 242.535156 238.746094 261.25 234.90625 280.210938 229.902344 C 327.597656 217.402344 370.078125 199.402344 404.320312 178.660156 C 404.746094 178.402344 405.246094 178.402344 405.671875 178.660156 C 439.917969 199.398438 482.402344 217.398438 529.789062 229.902344 C 548.75 234.90625 567.464844 238.746094 585.65625 241.492188 C 586.285156 241.589844 586.746094 242.109375 586.761719 242.746094 C 591.242188 405.621094 592.714844 577.5625 405.40625 638.617188 C 405.128906 638.707031 404.867188 638.707031 404.59375 638.617188 C 217.285156 577.5625 218.757812 405.621094 223.238281 242.746094 Z M 341.898438 526.800781 L 472.046875 526.800781 C 477.449219 526.800781 481.828125 531.179688 481.828125 536.582031 C 481.828125 541.984375 477.449219 546.363281 472.046875 546.363281 L 341.898438 546.363281 C 336.496094 546.363281 332.117188 541.984375 332.117188 536.582031 C 332.117188 531.179688 336.496094 526.800781 341.898438 526.800781 Z M 341.898438 526.800781 " fill-opacity="1" fill-rule="evenodd"/></g></svg>