<svg width="32" height="32" viewBox="0 0 32 32" fill="none" xmlns="http://www.w3.org/2000/svg">
<g id="FAV ICON">
<g id="Vector">
<path d="M20.422 18.6776C18.4382 18.6776 16.8301 17.0577 16.8301 15.0595C16.8301 13.0613 18.4382 11.4414 20.422 11.4414C22.4058 11.4414 24.0139 13.0613 24.0139 15.0595C24.0139 17.0577 22.4058 18.6776 20.422 18.6776Z" fill="#4C4C4C"/>
<path d="M22.1413 15.8485C22.1413 18.0541 21.492 20.2101 20.2756 22.044C19.0591 23.8778 17.3301 25.3071 15.3072 26.1511C13.2843 26.9952 11.0584 27.216 8.91088 26.7857C6.76339 26.3554 4.79078 25.2934 3.24253 23.7338C1.69427 22.1742 0.639889 20.1873 0.212725 18.0241C-0.214439 15.8609 0.00479648 13.6187 0.842708 11.5811C1.68062 9.5434 3.09957 7.80178 4.92013 6.57644C6.74069 5.35111 8.88109 4.69708 11.0707 4.69708V8.6138C9.65013 8.6138 8.2615 9.03811 7.08038 9.83307C5.89925 10.628 4.97867 11.7579 4.43506 13.0799C3.89145 14.4019 3.74922 15.8566 4.02635 17.26C4.30348 18.6634 4.98753 19.9525 5.99199 20.9643C6.99646 21.9761 8.27623 22.6651 9.66946 22.9443C11.0627 23.2234 12.5068 23.0801 13.8192 22.5326C15.1316 21.985 16.2533 21.0577 17.0425 19.8679C17.8317 18.6782 18.253 17.2794 18.253 15.8485H22.1413Z" fill="#4C4C4C"/>
<path d="M11.578 12.3224C13.5618 12.3224 15.1699 13.9423 15.1699 15.9405C15.1699 17.9387 13.5618 19.5586 11.578 19.5586C9.59424 19.5586 7.98608 17.9387 7.98608 15.9405C7.98608 13.9423 9.59424 12.3224 11.578 12.3224Z" fill="#4C4C4C"/>
<path d="M9.85869 15.1515C9.85869 12.9459 10.508 10.7899 11.7244 8.95604C12.9409 7.1222 14.6699 5.69289 16.6928 4.84886C18.7157 4.00483 20.9416 3.784 23.0891 4.21428C25.2366 4.64456 27.2092 5.70663 28.7575 7.26619C30.3057 8.82575 31.3601 10.8127 31.7873 12.9759C32.2144 15.1391 31.9952 17.3813 31.1573 19.4189C30.3194 21.4566 28.9004 23.1982 27.0799 24.4236C25.2593 25.6489 23.1189 26.3029 20.9293 26.3029V22.3862C22.3499 22.3862 23.7385 21.9619 24.9196 21.1669C26.1007 20.372 27.0213 19.2421 27.5649 17.9201C28.1086 16.5981 28.2508 15.1434 27.9737 13.74C27.6965 12.3366 27.0125 11.0475 26.008 10.0357C25.0035 9.02393 23.7238 8.33489 22.3305 8.05574C20.9373 7.77658 19.4932 7.91985 18.1808 8.46743C16.8684 9.01501 15.7467 9.94231 14.9575 11.1321C14.1683 12.3218 13.747 13.7206 13.747 15.1515L9.85869 15.1515Z" fill="#4C4C4C"/>
</g>
</g>
</svg>
