<svg width="277" height="198" viewBox="0 0 277 198" fill="none" xmlns="http://www.w3.org/2000/svg">
<path d="M176.778 126.355C159.606 126.355 145.685 112.41 145.685 95.208C145.685 78.0058 159.606 64.0606 176.778 64.0606C193.95 64.0606 207.87 78.0058 207.87 95.208C207.87 112.41 193.95 126.355 176.778 126.355Z" fill="url(#paint0_linear_4236_3502)"/>
<path d="M191.661 102C191.661 120.987 186.04 139.548 175.51 155.335C164.98 171.122 150.014 183.426 132.503 190.692C114.992 197.958 95.7241 199.86 77.1348 196.155C58.5456 192.451 41.4702 183.308 28.0681 169.882C14.666 156.457 5.53904 139.351 1.8414 120.729C-1.85624 102.107 0.0415195 82.8047 7.29469 65.2631C14.5479 47.7215 26.8307 32.7284 42.5899 22.1798C58.3491 11.6313 76.8769 6.00098 95.8304 6.00098L95.8304 39.7188C83.5339 39.7188 71.5136 43.3716 61.2895 50.2152C51.0654 57.0588 43.0967 66.7858 38.391 78.1663C33.6854 89.5468 32.4542 102.07 34.8531 114.151C37.252 126.232 43.1733 137.33 51.8682 146.04C60.5631 154.751 71.6411 160.682 83.7012 163.085C95.7614 165.489 108.262 164.255 119.623 159.541C130.983 154.827 140.693 146.844 147.524 136.602C154.356 126.36 158.002 114.319 158.002 102H191.661Z" fill="url(#paint1_linear_4236_3502)"/>
<path d="M100.222 71.6447C117.394 71.6447 131.315 85.5898 131.315 102.792C131.315 119.994 117.394 133.939 100.222 133.939C83.0501 133.939 69.1295 119.994 69.1295 102.792C69.1295 85.5898 83.0501 71.6447 100.222 71.6447Z" fill="url(#paint2_linear_4236_3502)"/>
<path d="M85.3393 95.9995C85.3393 77.0126 90.9596 58.4521 101.49 42.6651C112.02 26.878 126.986 14.5735 144.497 7.30757C162.008 0.041597 181.276 -1.85952 199.865 1.84465C218.454 5.54881 235.53 14.6919 248.932 28.1176C262.334 41.5434 271.461 58.6489 275.159 77.271C278.856 95.893 276.958 115.195 269.705 132.737C262.452 150.279 250.169 165.272 234.41 175.82C218.651 186.369 200.123 191.999 181.17 191.999V158.281C193.466 158.281 205.486 154.628 215.71 147.785C225.935 140.941 233.903 131.214 238.609 119.834C243.315 108.453 244.546 95.9304 242.147 83.849C239.748 71.7675 233.827 60.67 225.132 51.9597C216.437 43.2495 205.359 37.3177 193.299 34.9146C181.239 32.5114 168.738 33.7448 157.377 38.4588C146.017 43.1727 136.307 51.1555 129.476 61.3977C122.644 71.6399 118.998 83.6814 118.998 95.9995L85.3393 95.9995Z" fill="url(#paint3_linear_4236_3502)"/>
<defs>
<linearGradient id="paint0_linear_4236_3502" x1="138.5" y1="0" x2="138.5" y2="198" gradientUnits="userSpaceOnUse">
<stop stop-color="#0FD3FE"/>
<stop offset="0.906" stop-color="#3561F6"/>
</linearGradient>
<linearGradient id="paint1_linear_4236_3502" x1="138.5" y1="0" x2="138.5" y2="198" gradientUnits="userSpaceOnUse">
<stop stop-color="#0FD3FE"/>
<stop offset="0.906" stop-color="#3561F6"/>
</linearGradient>
<linearGradient id="paint2_linear_4236_3502" x1="138.5" y1="0" x2="138.5" y2="198" gradientUnits="userSpaceOnUse">
<stop stop-color="#0FD3FE"/>
<stop offset="0.906" stop-color="#3561F6"/>
</linearGradient>
<linearGradient id="paint3_linear_4236_3502" x1="138.5" y1="0" x2="138.5" y2="198" gradientUnits="userSpaceOnUse">
<stop stop-color="#0FD3FE"/>
<stop offset="0.906" stop-color="#3561F6"/>
</linearGradient>
</defs>
</svg>
