<svg xmlns="http://www.w3.org/2000/svg" xmlns:xlink="http://www.w3.org/1999/xlink" width="1080" zoomAndPan="magnify" viewBox="0 0 810 809.999993" height="1080" preserveAspectRatio="xMidYMid meet" version="1.0"><defs><clipPath id="9a7d3920d1"><path d="M 708.265625 113 L 728 113 L 728 132.804688 L 708.265625 132.804688 Z M 708.265625 113 " clip-rule="nonzero"/></clipPath><clipPath id="0780d1beff"><path d="M 612 468 L 734.25 468 L 734.25 535 L 612 535 Z M 612 468 " clip-rule="nonzero"/></clipPath><clipPath id="23731a4672"><path d="M 700 191 L 734.25 191 L 734.25 225 L 700 225 Z M 700 191 " clip-rule="nonzero"/></clipPath><clipPath id="c11ac9dc0b"><path d="M 379 700 L 414 700 L 414 734.25 L 379 734.25 Z M 379 700 " clip-rule="nonzero"/></clipPath></defs><g clip-path="url(#9a7d3920d1)"><path fill="#ffffff" d="M 712.671875 113.632812 C 710.269531 113.632812 708.3125 115.59375 708.3125 117.992188 L 708.3125 128.164062 C 708.3125 130.566406 710.269531 132.523438 712.671875 132.523438 L 722.84375 132.523438 C 725.246094 132.523438 727.203125 130.566406 727.203125 128.164062 L 727.203125 123.804688 C 727.203125 123.402344 726.878906 123.078125 726.476562 123.078125 C 726.074219 123.078125 725.75 123.402344 725.75 123.804688 L 725.75 128.164062 C 725.75 129.785156 724.464844 131.070312 722.84375 131.070312 L 712.671875 131.070312 C 711.050781 131.070312 709.765625 129.785156 709.765625 128.164062 L 709.765625 117.992188 C 709.765625 116.371094 711.050781 115.085938 712.671875 115.085938 L 717.03125 115.085938 C 717.433594 115.085938 717.757812 114.757812 717.757812 114.359375 C 717.757812 113.957031 717.433594 113.632812 717.03125 113.632812 Z M 712.671875 113.632812 " fill-opacity="1" fill-rule="nonzero"/></g><path fill="#ffffff" d="M 723.078125 113.132812 L 714.648438 121.5625 C 714.535156 121.675781 714.460938 121.824219 714.441406 121.980469 L 713.890625 126.035156 C 713.824219 126.503906 714.21875 126.90625 714.691406 126.855469 L 718.835938 126.394531 C 719.003906 126.375 719.152344 126.304688 719.269531 126.1875 L 727.703125 117.761719 C 728.972656 116.484375 728.972656 114.40625 727.703125 113.132812 C 726.453125 111.832031 724.300781 111.949219 723.078125 113.132812 Z M 726.671875 114.160156 C 727.390625 114.878906 727.390625 116.007812 726.671875 116.730469 L 725.902344 117.503906 L 723.335938 114.933594 L 724.101562 114.160156 C 724.949219 113.316406 725.988281 113.476562 726.671875 114.160156 Z M 722.304688 115.960938 L 724.875 118.527344 L 718.421875 124.980469 L 715.457031 125.308594 L 715.847656 122.417969 Z M 722.304688 115.960938 " fill-opacity="1" fill-rule="nonzero"/><path fill="#0084ff" d="M 213.839844 269.183594 L 156.46875 269.183594 C 151.886719 256.316406 139.730469 247.046875 125.292969 247.046875 C 106.957031 247.046875 92.085938 261.910156 92.085938 280.257812 C 92.085938 298.605469 106.957031 313.46875 125.292969 313.46875 C 139.730469 313.46875 151.886719 304.203125 156.46875 291.332031 L 213.839844 291.332031 Z M 213.839844 269.183594 " fill-opacity="1" fill-rule="nonzero"/><g clip-path="url(#0780d1beff)"><path fill="#0084ff" d="M 700.851562 468.40625 C 686.417969 468.40625 674.261719 477.675781 669.679688 490.542969 L 612.308594 490.542969 L 612.308594 512.679688 L 669.679688 512.679688 C 674.261719 525.550781 686.417969 534.816406 700.851562 534.816406 C 719.191406 534.816406 734.0625 519.953125 734.0625 501.605469 C 734.0625 483.257812 719.191406 468.394531 700.851562 468.394531 Z M 700.851562 468.40625 " fill-opacity="1" fill-rule="nonzero"/></g><path fill="#0084ff" d="M 256.085938 136.355469 C 251.503906 123.488281 239.347656 114.222656 224.914062 114.222656 C 206.574219 114.222656 191.703125 129.082031 191.703125 147.429688 C 191.703125 165.78125 206.574219 180.640625 224.914062 180.640625 C 239.347656 180.640625 251.503906 171.375 256.085938 158.503906 L 291.320312 158.503906 L 291.320312 202.777344 L 313.457031 202.777344 L 313.457031 136.367188 L 256.085938 136.367188 Z M 256.085938 136.355469 " fill-opacity="1" fill-rule="nonzero"/><path fill="#0084ff" d="M 523.753906 125.292969 C 523.753906 106.957031 508.878906 92.085938 490.542969 92.085938 C 472.207031 92.085938 457.332031 106.945312 457.332031 125.292969 C 457.332031 139.730469 466.601562 151.898438 479.46875 156.46875 L 479.46875 202.777344 L 501.605469 202.777344 L 501.605469 156.46875 C 514.476562 151.898438 523.742188 139.730469 523.742188 125.292969 Z M 523.753906 125.292969 " fill-opacity="1" fill-rule="nonzero"/><path fill="#0084ff" d="M 711.914062 335.59375 C 711.914062 317.253906 697.042969 302.382812 678.703125 302.382812 C 660.367188 302.382812 645.496094 317.242188 645.496094 335.59375 C 645.496094 350.027344 654.761719 362.195312 667.632812 366.765625 L 667.632812 402 L 612.285156 402 L 612.285156 424.136719 L 689.765625 424.136719 L 689.765625 366.765625 C 702.636719 362.195312 711.902344 350.027344 711.902344 335.59375 Z M 711.914062 335.59375 " fill-opacity="1" fill-rule="nonzero"/><path fill="#0084ff" d="M 213.839844 446.273438 L 213.839844 424.136719 L 136.355469 424.136719 L 136.355469 503.644531 C 123.488281 508.214844 114.222656 520.378906 114.222656 534.816406 C 114.222656 553.152344 129.09375 568.023438 147.429688 568.023438 C 165.769531 568.023438 180.640625 553.164062 180.640625 534.816406 C 180.640625 520.378906 171.375 508.214844 158.503906 503.644531 L 158.503906 446.273438 L 213.851562 446.273438 Z M 213.839844 446.273438 " fill-opacity="1" fill-rule="nonzero"/><path fill="#0084ff" d="M 545.890625 634.433594 C 531.453125 634.433594 519.296875 643.699219 514.71875 656.570312 L 479.480469 656.570312 L 479.480469 601.222656 L 457.34375 601.222656 L 457.34375 678.703125 L 514.71875 678.703125 C 519.296875 691.574219 531.453125 700.839844 545.890625 700.839844 C 564.226562 700.839844 579.097656 685.980469 579.097656 667.632812 C 579.097656 649.28125 564.226562 634.421875 545.890625 634.421875 Z M 545.890625 634.433594 " fill-opacity="1" fill-rule="nonzero"/><path fill="#0084ff" d="M 302.382812 658.605469 L 302.382812 601.234375 L 280.246094 601.234375 L 280.246094 658.605469 C 267.378906 663.175781 258.109375 675.34375 258.109375 689.777344 C 258.109375 708.117188 272.984375 722.988281 291.320312 722.988281 C 309.65625 722.988281 324.53125 708.128906 324.53125 689.777344 C 324.53125 675.34375 315.261719 663.175781 302.394531 658.605469 Z M 302.382812 658.605469 " fill-opacity="1" fill-rule="nonzero"/><path fill="#0084ff" d="M 197.238281 390.9375 L 152.96875 390.9375 C 143.804688 390.9375 136.367188 383.5 136.367188 374.339844 C 136.367188 365.175781 143.804688 357.738281 152.96875 357.738281 L 197.238281 357.738281 C 206.402344 357.738281 213.839844 365.175781 213.839844 374.339844 C 213.839844 383.5 206.402344 390.9375 197.238281 390.9375 Z M 197.238281 390.9375 " fill-opacity="1" fill-rule="nonzero"/><path fill="#0084ff" d="M 114.222656 374.328125 C 114.222656 374.871094 114.195312 375.414062 114.140625 375.953125 C 114.089844 376.496094 114.007812 377.03125 113.902344 377.566406 C 113.796875 378.097656 113.664062 378.625 113.507812 379.144531 C 113.347656 379.664062 113.164062 380.175781 112.957031 380.679688 C 112.75 381.179688 112.515625 381.671875 112.261719 382.152344 C 112.003906 382.632812 111.726562 383.097656 111.421875 383.550781 C 111.121094 384 110.796875 384.4375 110.453125 384.855469 C 110.109375 385.277344 109.742188 385.679688 109.359375 386.0625 C 108.976562 386.449219 108.574219 386.8125 108.152344 387.160156 C 107.730469 387.503906 107.296875 387.828125 106.84375 388.128906 C 106.390625 388.429688 105.925781 388.710938 105.445312 388.964844 C 104.96875 389.222656 104.476562 389.453125 103.972656 389.664062 C 103.472656 389.871094 102.960938 390.054688 102.441406 390.210938 C 101.921875 390.371094 101.394531 390.5 100.859375 390.605469 C 100.328125 390.714844 99.789062 390.792969 99.25 390.847656 C 98.707031 390.898438 98.164062 390.925781 97.621094 390.925781 C 97.078125 390.925781 96.535156 390.898438 95.996094 390.847656 C 95.453125 390.792969 94.917969 390.714844 94.382812 390.605469 C 93.851562 390.5 93.324219 390.371094 92.804688 390.210938 C 92.285156 390.054688 91.773438 389.871094 91.269531 389.664062 C 90.769531 389.453125 90.277344 389.222656 89.796875 388.964844 C 89.316406 388.710938 88.851562 388.429688 88.398438 388.128906 C 87.949219 387.828125 87.511719 387.503906 87.089844 387.160156 C 86.671875 386.8125 86.269531 386.449219 85.886719 386.0625 C 85.5 385.679688 85.136719 385.277344 84.789062 384.855469 C 84.445312 384.4375 84.121094 384 83.820312 383.550781 C 83.519531 383.097656 83.238281 382.632812 82.984375 382.152344 C 82.726562 381.671875 82.496094 381.179688 82.285156 380.679688 C 82.078125 380.175781 81.894531 379.664062 81.738281 379.144531 C 81.578125 378.625 81.449219 378.097656 81.34375 377.566406 C 81.234375 377.03125 81.15625 376.496094 81.101562 375.953125 C 81.050781 375.414062 81.023438 374.871094 81.023438 374.328125 C 81.023438 373.785156 81.050781 373.242188 81.101562 372.699219 C 81.15625 372.160156 81.234375 371.621094 81.34375 371.089844 C 81.449219 370.554688 81.578125 370.027344 81.738281 369.507812 C 81.894531 368.988281 82.078125 368.476562 82.285156 367.976562 C 82.496094 367.472656 82.726562 366.980469 82.984375 366.503906 C 83.238281 366.023438 83.519531 365.558594 83.820312 365.105469 C 84.121094 364.652344 84.445312 364.21875 84.789062 363.796875 C 85.136719 363.375 85.5 362.972656 85.886719 362.589844 C 86.269531 362.207031 86.671875 361.839844 87.089844 361.496094 C 87.511719 361.152344 87.949219 360.828125 88.398438 360.527344 C 88.851562 360.222656 89.316406 359.945312 89.796875 359.6875 C 90.277344 359.433594 90.769531 359.199219 91.269531 358.992188 C 91.773438 358.785156 92.285156 358.601562 92.804688 358.441406 C 93.324219 358.285156 93.851562 358.152344 94.382812 358.046875 C 94.917969 357.941406 95.453125 357.859375 95.996094 357.808594 C 96.535156 357.753906 97.078125 357.726562 97.621094 357.726562 C 98.164062 357.726562 98.707031 357.753906 99.25 357.808594 C 99.789062 357.859375 100.328125 357.941406 100.859375 358.046875 C 101.394531 358.152344 101.921875 358.285156 102.441406 358.441406 C 102.960938 358.601562 103.472656 358.785156 103.972656 358.992188 C 104.476562 359.199219 104.96875 359.433594 105.445312 359.6875 C 105.925781 359.945312 106.390625 360.222656 106.84375 360.527344 C 107.296875 360.828125 107.730469 361.152344 108.152344 361.496094 C 108.574219 361.839844 108.976562 362.207031 109.359375 362.589844 C 109.742188 362.972656 110.109375 363.375 110.453125 363.796875 C 110.796875 364.21875 111.121094 364.652344 111.421875 365.105469 C 111.726562 365.558594 112.003906 366.023438 112.261719 366.503906 C 112.515625 366.980469 112.75 367.472656 112.957031 367.976562 C 113.164062 368.476562 113.347656 368.988281 113.507812 369.507812 C 113.664062 370.027344 113.796875 370.554688 113.902344 371.089844 C 114.007812 371.621094 114.089844 372.160156 114.140625 372.699219 C 114.195312 373.242188 114.222656 373.785156 114.222656 374.328125 Z M 114.222656 374.328125 " fill-opacity="1" fill-rule="nonzero"/><path fill="#0084ff" d="M 662.105469 224.914062 L 617.832031 224.914062 C 608.671875 224.914062 601.234375 217.476562 601.234375 208.3125 C 601.234375 199.152344 608.671875 191.714844 617.832031 191.714844 L 662.105469 191.714844 C 671.269531 191.714844 678.703125 199.152344 678.703125 208.3125 C 678.703125 217.476562 671.269531 224.914062 662.105469 224.914062 Z M 662.105469 224.914062 " fill-opacity="1" fill-rule="nonzero"/><g clip-path="url(#23731a4672)"><path fill="#0084ff" d="M 734.050781 208.300781 C 734.050781 208.84375 734.023438 209.386719 733.96875 209.929688 C 733.917969 210.46875 733.835938 211.007812 733.730469 211.539062 C 733.625 212.074219 733.492188 212.601562 733.335938 213.121094 C 733.179688 213.640625 732.996094 214.152344 732.785156 214.652344 C 732.578125 215.15625 732.347656 215.648438 732.089844 216.125 C 731.835938 216.605469 731.554688 217.070312 731.253906 217.523438 C 730.949219 217.976562 730.628906 218.410156 730.28125 218.832031 C 729.9375 219.253906 729.574219 219.65625 729.1875 220.039062 C 728.804688 220.421875 728.402344 220.789062 727.980469 221.132812 C 727.5625 221.476562 727.125 221.800781 726.671875 222.101562 C 726.222656 222.40625 725.753906 222.683594 725.277344 222.941406 C 724.796875 223.195312 724.304688 223.429688 723.804688 223.636719 C 723.300781 223.84375 722.789062 224.027344 722.269531 224.1875 C 721.75 224.34375 721.222656 224.476562 720.691406 224.582031 C 720.15625 224.6875 719.621094 224.769531 719.078125 224.820312 C 718.539062 224.875 717.996094 224.902344 717.453125 224.902344 C 716.90625 224.902344 716.367188 224.875 715.824219 224.820312 C 715.285156 224.769531 714.746094 224.6875 714.210938 224.582031 C 713.679688 224.476562 713.152344 224.34375 712.632812 224.1875 C 712.113281 224.027344 711.601562 223.84375 711.097656 223.636719 C 710.597656 223.429688 710.105469 223.195312 709.625 222.941406 C 709.148438 222.683594 708.679688 222.40625 708.230469 222.101562 C 707.777344 221.800781 707.339844 221.476562 706.921875 221.132812 C 706.5 220.789062 706.097656 220.421875 705.714844 220.039062 C 705.328125 219.65625 704.964844 219.253906 704.621094 218.832031 C 704.273438 218.410156 703.953125 217.976562 703.648438 217.523438 C 703.347656 217.070312 703.070312 216.605469 702.8125 216.125 C 702.554688 215.648438 702.324219 215.15625 702.117188 214.652344 C 701.90625 214.152344 701.726562 213.640625 701.566406 213.121094 C 701.410156 212.601562 701.277344 212.074219 701.171875 211.539062 C 701.066406 211.007812 700.984375 210.46875 700.933594 209.929688 C 700.878906 209.386719 700.851562 208.84375 700.851562 208.300781 C 700.851562 207.757812 700.878906 207.214844 700.933594 206.675781 C 700.984375 206.132812 701.066406 205.597656 701.171875 205.0625 C 701.277344 204.53125 701.410156 204.003906 701.566406 203.484375 C 701.726562 202.964844 701.90625 202.453125 702.117188 201.949219 C 702.324219 201.449219 702.554688 200.957031 702.8125 200.476562 C 703.070312 199.996094 703.347656 199.53125 703.648438 199.078125 C 703.953125 198.628906 704.273438 198.191406 704.621094 197.769531 C 704.964844 197.351562 705.328125 196.949219 705.714844 196.566406 C 706.097656 196.179688 706.5 195.816406 706.921875 195.46875 C 707.339844 195.125 707.777344 194.800781 708.230469 194.5 C 708.679688 194.199219 709.148438 193.917969 709.625 193.664062 C 710.105469 193.40625 710.597656 193.175781 711.097656 192.964844 C 711.601562 192.757812 712.113281 192.574219 712.632812 192.417969 C 713.152344 192.257812 713.679688 192.128906 714.210938 192.023438 C 714.746094 191.914062 715.285156 191.835938 715.824219 191.78125 C 716.367188 191.730469 716.90625 191.703125 717.453125 191.703125 C 717.996094 191.703125 718.539062 191.730469 719.078125 191.78125 C 719.621094 191.835938 720.15625 191.914062 720.691406 192.023438 C 721.222656 192.128906 721.75 192.257812 722.269531 192.417969 C 722.789062 192.574219 723.300781 192.757812 723.804688 192.964844 C 724.304688 193.175781 724.796875 193.40625 725.277344 193.664062 C 725.753906 193.917969 726.222656 194.199219 726.671875 194.5 C 727.125 194.800781 727.5625 195.125 727.980469 195.46875 C 728.402344 195.816406 728.804688 196.179688 729.1875 196.566406 C 729.574219 196.949219 729.9375 197.351562 730.28125 197.769531 C 730.628906 198.191406 730.949219 198.628906 731.253906 199.078125 C 731.554688 199.53125 731.835938 199.996094 732.089844 200.476562 C 732.347656 200.957031 732.578125 201.449219 732.785156 201.949219 C 732.996094 202.453125 733.179688 202.964844 733.335938 203.484375 C 733.492188 204.003906 733.625 204.53125 733.730469 205.0625 C 733.835938 205.597656 733.917969 206.132812 733.96875 206.675781 C 734.023438 207.214844 734.050781 207.757812 734.050781 208.300781 Z M 734.050781 208.300781 " fill-opacity="1" fill-rule="nonzero"/></g><path fill="#0084ff" d="M 402 97.621094 C 402 98.164062 401.972656 98.707031 401.917969 99.25 C 401.867188 99.789062 401.785156 100.328125 401.679688 100.859375 C 401.574219 101.394531 401.441406 101.921875 401.285156 102.441406 C 401.128906 102.960938 400.945312 103.472656 400.734375 103.972656 C 400.527344 104.476562 400.296875 104.96875 400.039062 105.445312 C 399.785156 105.925781 399.503906 106.390625 399.203125 106.84375 C 398.898438 107.296875 398.578125 107.730469 398.230469 108.152344 C 397.886719 108.574219 397.523438 108.976562 397.136719 109.359375 C 396.753906 109.742188 396.351562 110.109375 395.929688 110.453125 C 395.511719 110.796875 395.074219 111.121094 394.621094 111.421875 C 394.171875 111.726562 393.703125 112.003906 393.226562 112.261719 C 392.746094 112.515625 392.253906 112.75 391.753906 112.957031 C 391.25 113.164062 390.738281 113.347656 390.21875 113.507812 C 389.699219 113.664062 389.171875 113.796875 388.640625 113.902344 C 388.105469 114.007812 387.570312 114.089844 387.027344 114.140625 C 386.488281 114.195312 385.945312 114.222656 385.402344 114.222656 C 384.855469 114.222656 384.316406 114.195312 383.773438 114.140625 C 383.234375 114.089844 382.695312 114.007812 382.164062 113.902344 C 381.628906 113.796875 381.101562 113.664062 380.582031 113.507812 C 380.0625 113.347656 379.550781 113.164062 379.046875 112.957031 C 378.546875 112.75 378.054688 112.515625 377.574219 112.261719 C 377.097656 112.003906 376.628906 111.726562 376.179688 111.421875 C 375.726562 111.121094 375.289062 110.796875 374.871094 110.453125 C 374.449219 110.109375 374.046875 109.742188 373.664062 109.359375 C 373.277344 108.976562 372.914062 108.574219 372.570312 108.152344 C 372.226562 107.730469 371.902344 107.296875 371.597656 106.84375 C 371.296875 106.390625 371.019531 105.925781 370.761719 105.445312 C 370.503906 104.96875 370.273438 104.476562 370.066406 103.972656 C 369.855469 103.472656 369.675781 102.960938 369.515625 102.441406 C 369.359375 101.921875 369.226562 101.394531 369.121094 100.859375 C 369.015625 100.328125 368.933594 99.789062 368.882812 99.25 C 368.828125 98.707031 368.800781 98.164062 368.800781 97.621094 C 368.800781 97.078125 368.828125 96.535156 368.882812 95.996094 C 368.933594 95.453125 369.015625 94.917969 369.121094 94.382812 C 369.226562 93.851562 369.359375 93.324219 369.515625 92.804688 C 369.675781 92.285156 369.855469 91.773438 370.066406 91.269531 C 370.273438 90.769531 370.503906 90.277344 370.761719 89.796875 C 371.019531 89.316406 371.296875 88.851562 371.597656 88.398438 C 371.902344 87.949219 372.222656 87.511719 372.570312 87.089844 C 372.914062 86.671875 373.277344 86.269531 373.664062 85.886719 C 374.046875 85.5 374.449219 85.136719 374.871094 84.789062 C 375.289062 84.445312 375.726562 84.121094 376.179688 83.820312 C 376.628906 83.519531 377.097656 83.238281 377.574219 82.984375 C 378.054688 82.726562 378.546875 82.496094 379.046875 82.285156 C 379.550781 82.078125 380.0625 81.894531 380.582031 81.738281 C 381.101562 81.578125 381.628906 81.449219 382.164062 81.34375 C 382.695312 81.234375 383.234375 81.15625 383.773438 81.101562 C 384.316406 81.050781 384.855469 81.023438 385.402344 81.023438 C 385.945312 81.023438 386.488281 81.050781 387.027344 81.101562 C 387.570312 81.15625 388.105469 81.234375 388.640625 81.34375 C 389.171875 81.449219 389.699219 81.578125 390.21875 81.738281 C 390.738281 81.894531 391.25 82.078125 391.753906 82.285156 C 392.253906 82.496094 392.746094 82.726562 393.226562 82.984375 C 393.703125 83.238281 394.171875 83.519531 394.621094 83.820312 C 395.074219 84.121094 395.511719 84.445312 395.929688 84.789062 C 396.351562 85.136719 396.753906 85.5 397.136719 85.886719 C 397.523438 86.269531 397.886719 86.671875 398.230469 87.089844 C 398.578125 87.511719 398.898438 87.949219 399.203125 88.398438 C 399.503906 88.851562 399.785156 89.316406 400.039062 89.796875 C 400.296875 90.277344 400.527344 90.769531 400.734375 91.269531 C 400.945312 91.773438 401.128906 92.285156 401.285156 92.804688 C 401.441406 93.324219 401.574219 93.851562 401.679688 94.382812 C 401.785156 94.917969 401.867188 95.453125 401.917969 95.996094 C 401.972656 96.535156 402 97.078125 402 97.621094 Z M 402 97.621094 " fill-opacity="1" fill-rule="nonzero"/><path fill="#0084ff" d="M 385.402344 202.765625 C 376.238281 202.765625 368.800781 195.328125 368.800781 186.164062 L 368.800781 152.957031 C 368.800781 143.792969 376.238281 136.355469 385.402344 136.355469 C 394.5625 136.355469 402 143.792969 402 152.957031 L 402 186.164062 C 402 195.328125 394.5625 202.765625 385.402344 202.765625 Z M 385.402344 202.765625 " fill-opacity="1" fill-rule="nonzero"/><g clip-path="url(#c11ac9dc0b)"><path fill="#0084ff" d="M 413.0625 717.453125 C 413.0625 717.996094 413.035156 718.539062 412.980469 719.078125 C 412.929688 719.621094 412.847656 720.15625 412.742188 720.691406 C 412.636719 721.222656 412.503906 721.75 412.347656 722.269531 C 412.1875 722.789062 412.007812 723.300781 411.796875 723.804688 C 411.589844 724.304688 411.359375 724.796875 411.101562 725.277344 C 410.847656 725.753906 410.566406 726.222656 410.265625 726.671875 C 409.960938 727.125 409.640625 727.5625 409.292969 727.980469 C 408.949219 728.402344 408.585938 728.804688 408.199219 729.1875 C 407.816406 729.574219 407.414062 729.9375 406.992188 730.28125 C 406.574219 730.628906 406.136719 730.949219 405.683594 731.253906 C 405.234375 731.554688 404.765625 731.835938 404.289062 732.089844 C 403.808594 732.347656 403.316406 732.578125 402.816406 732.785156 C 402.3125 732.996094 401.800781 733.179688 401.28125 733.335938 C 400.761719 733.492188 400.234375 733.625 399.703125 733.730469 C 399.167969 733.835938 398.632812 733.917969 398.089844 733.96875 C 397.550781 734.023438 397.007812 734.050781 396.464844 734.050781 C 395.917969 734.050781 395.375 734.023438 394.835938 733.96875 C 394.292969 733.917969 393.757812 733.835938 393.222656 733.730469 C 392.691406 733.625 392.164062 733.492188 391.644531 733.335938 C 391.125 733.179688 390.613281 732.996094 390.109375 732.785156 C 389.609375 732.578125 389.117188 732.347656 388.636719 732.089844 C 388.160156 731.835938 387.691406 731.554688 387.242188 731.253906 C 386.789062 730.949219 386.351562 730.628906 385.933594 730.28125 C 385.511719 729.9375 385.109375 729.574219 384.726562 729.1875 C 384.339844 728.804688 383.976562 728.402344 383.632812 727.980469 C 383.285156 727.5625 382.964844 727.125 382.660156 726.671875 C 382.359375 726.222656 382.082031 725.753906 381.824219 725.277344 C 381.566406 724.796875 381.335938 724.304688 381.128906 723.804688 C 380.917969 723.300781 380.738281 722.789062 380.578125 722.269531 C 380.421875 721.75 380.289062 721.222656 380.183594 720.691406 C 380.078125 720.15625 379.996094 719.621094 379.945312 719.078125 C 379.890625 718.539062 379.863281 717.996094 379.863281 717.453125 C 379.863281 716.90625 379.890625 716.367188 379.945312 715.824219 C 379.996094 715.285156 380.078125 714.746094 380.183594 714.214844 C 380.289062 713.679688 380.421875 713.152344 380.578125 712.632812 C 380.738281 712.113281 380.917969 711.601562 381.128906 711.097656 C 381.335938 710.597656 381.566406 710.105469 381.824219 709.625 C 382.082031 709.148438 382.359375 708.679688 382.660156 708.230469 C 382.964844 707.777344 383.285156 707.339844 383.632812 706.921875 C 383.976562 706.5 384.339844 706.097656 384.726562 705.714844 C 385.109375 705.328125 385.511719 704.964844 385.933594 704.621094 C 386.351562 704.273438 386.789062 703.953125 387.242188 703.648438 C 387.691406 703.347656 388.160156 703.070312 388.636719 702.8125 C 389.117188 702.554688 389.609375 702.324219 390.109375 702.117188 C 390.613281 701.90625 391.125 701.726562 391.644531 701.566406 C 392.164062 701.410156 392.691406 701.277344 393.222656 701.171875 C 393.757812 701.066406 394.292969 700.984375 394.835938 700.933594 C 395.375 700.878906 395.917969 700.851562 396.464844 700.851562 C 397.007812 700.851562 397.550781 700.878906 398.089844 700.933594 C 398.632812 700.984375 399.167969 701.066406 399.703125 701.171875 C 400.234375 701.277344 400.761719 701.410156 401.28125 701.566406 C 401.800781 701.726562 402.3125 701.90625 402.816406 702.117188 C 403.316406 702.324219 403.808594 702.554688 404.289062 702.8125 C 404.765625 703.070312 405.234375 703.347656 405.683594 703.648438 C 406.136719 703.953125 406.574219 704.273438 406.992188 704.621094 C 407.414062 704.964844 407.816406 705.328125 408.199219 705.714844 C 408.585938 706.097656 408.949219 706.5 409.292969 706.921875 C 409.640625 707.339844 409.960938 707.777344 410.265625 708.230469 C 410.566406 708.679688 410.847656 709.148438 411.101562 709.625 C 411.359375 710.105469 411.589844 710.597656 411.796875 711.097656 C 412.007812 711.601562 412.1875 712.113281 412.347656 712.632812 C 412.503906 713.152344 412.636719 713.679688 412.742188 714.214844 C 412.847656 714.746094 412.929688 715.285156 412.980469 715.824219 C 413.035156 716.367188 413.0625 716.90625 413.0625 717.453125 Z M 413.0625 717.453125 " fill-opacity="1" fill-rule="nonzero"/></g><path fill="#0084ff" d="M 396.464844 678.714844 C 387.300781 678.714844 379.863281 671.28125 379.863281 662.117188 L 379.863281 617.84375 C 379.863281 608.683594 387.300781 601.246094 396.464844 601.246094 C 405.625 601.246094 413.0625 608.683594 413.0625 617.84375 L 413.0625 662.117188 C 413.0625 671.28125 405.625 678.714844 396.464844 678.714844 Z M 396.464844 678.714844 " fill-opacity="1" fill-rule="nonzero"/><path fill="#0084ff" d="M 568.023438 224.914062 L 424.136719 224.914062 L 424.136719 359.730469 C 432.214844 362.597656 439.296875 368.640625 444.878906 376.6875 L 460.578125 360.972656 L 476.234375 376.628906 L 454.523438 398.339844 C 455.734375 403.035156 456.65625 407.929688 457 413.085938 L 479.480469 413.085938 L 479.480469 435.222656 L 455.640625 435.222656 C 454.753906 439.503906 453.433594 443.507812 451.921875 447.355469 L 476.234375 471.664062 L 460.578125 487.320312 L 440.066406 466.808594 C 432.597656 474.75 423.238281 479.492188 413.0625 479.492188 C 402.886719 479.492188 393.527344 474.75 386.058594 466.808594 L 365.542969 487.320312 L 349.890625 471.664062 L 374.199219 447.355469 C 372.691406 443.507812 371.367188 439.503906 370.480469 435.222656 L 346.644531 435.222656 L 346.644531 413.085938 L 369.125 413.085938 C 369.46875 407.941406 370.390625 403.046875 371.597656 398.339844 L 349.890625 376.628906 L 365.542969 360.972656 L 381.246094 376.6875 C 386.828125 368.640625 393.90625 362.597656 401.988281 359.730469 L 401.988281 224.914062 L 258.097656 224.914062 C 245.875 224.914062 235.964844 234.824219 235.964844 247.046875 L 235.964844 556.964844 C 235.964844 569.1875 245.875 579.097656 258.097656 579.097656 L 568.011719 579.097656 C 580.238281 579.097656 590.148438 569.1875 590.148438 556.964844 L 590.148438 247.046875 C 590.148438 234.824219 580.238281 224.914062 568.011719 224.914062 Z M 568.023438 224.914062 " fill-opacity="1" fill-rule="nonzero"/></svg>