<svg xmlns="http://www.w3.org/2000/svg" xmlns:xlink="http://www.w3.org/1999/xlink" width="1080" zoomAndPan="magnify" viewBox="0 0 810 809.999993" height="1080" preserveAspectRatio="xMidYMid meet" version="1.0"><defs><clipPath id="224e4d396f"><path d="M 81 657 L 729 657 L 729 705 L 81 705 Z M 81 657 " clip-rule="nonzero"/></clipPath><clipPath id="bed4a85feb"><path d="M 81 417 L 729 417 L 729 634 L 81 634 Z M 81 417 " clip-rule="nonzero"/></clipPath></defs><path fill="#0084ff" d="M 293.472656 361.628906 L 230.945312 396.785156 C 261.570312 403.476562 292.175781 409.992188 319.195312 425.355469 C 346.902344 441.117188 370.890625 465.929688 393.070312 489.082031 L 393.070312 417.066406 C 359.695312 372.574219 338.214844 366.097656 293.460938 361.628906 Z M 325.945312 142.929688 C 297.265625 159.726562 263.832031 166.128906 230.945312 173.332031 L 293.472656 208.488281 C 349.3125 202.910156 366.234375 188.832031 393.082031 153.050781 L 393.082031 82.246094 C 372.5625 103.726562 351.394531 128.050781 325.945312 142.929688 Z M 417.082031 82.246094 L 417.082031 153.050781 C 455.648438 204.457031 481.882812 204.78125 516.691406 208.613281 L 579.21875 173.332031 C 549.015625 166.730469 519.171875 160.175781 492.476562 145.425781 C 464.332031 129.875 439.570312 105.699219 417.09375 82.234375 Z M 282.191406 229.621094 L 218.351562 193.738281 C 227.238281 223.554688 237.070312 254.304688 237.070312 285.058594 C 237.070312 315.8125 227.222656 346.5625 218.351562 376.378906 L 282.191406 340.5 L 287.105469 329.339844 C 293.347656 315.238281 297.066406 300.148438 297.066406 285.058594 C 297.066406 269.96875 293.347656 254.878906 287.105469 240.777344 Z M 527.972656 340.511719 L 591.8125 376.394531 C 582.925781 346.578125 573.089844 315.824219 573.089844 285.070312 C 573.089844 254.320312 582.9375 223.566406 591.8125 193.75 L 527.972656 229.757812 L 523.054688 240.800781 C 516.816406 254.90625 513.09375 269.996094 513.09375 285.082031 C 513.09375 300.171875 516.816406 315.261719 523.054688 329.367188 L 527.972656 340.523438 Z M 516.691406 361.628906 C 459.066406 367.394531 442.828125 382.757812 417.082031 417.066406 L 417.082031 489.082031 C 437.601562 467.601562 461 443.953125 486.449219 429.074219 C 515.128906 412.273438 546.332031 403.988281 579.207031 396.800781 L 516.675781 361.640625 Z M 516.691406 361.628906 " fill-opacity="1" fill-rule="nonzero"/><path fill="#0084ff" d="M 328.15625 342.183594 L 393.082031 305.578125 L 393.082031 378.902344 C 375.445312 360.65625 352.878906 347.9375 328.15625 342.183594 Z M 328.15625 342.183594 " fill-opacity="1" fill-rule="nonzero"/><path fill="#0084ff" d="M 417.082031 378.914062 L 417.082031 305.589844 L 482.117188 342.195312 C 457.394531 347.835938 434.714844 360.679688 417.082031 378.914062 Z M 417.082031 378.914062 " fill-opacity="1" fill-rule="nonzero"/><path fill="#0084ff" d="M 315.3125 248.339844 L 380.601562 285.058594 L 315.3125 321.777344 C 318.796875 309.769531 321.078125 297.414062 321.078125 285.058594 C 321.078125 272.703125 318.796875 260.335938 315.3125 248.339844 Z M 315.3125 248.339844 " fill-opacity="1" fill-rule="nonzero"/><path fill="#0084ff" d="M 328.03125 227.933594 C 352.753906 222.292969 375.433594 209.449219 393.070312 191.214844 L 393.070312 264.539062 Z M 328.03125 227.933594 " fill-opacity="1" fill-rule="nonzero"/><path fill="#0084ff" d="M 482.007812 227.933594 L 417.082031 264.539062 L 417.082031 191.214844 C 434.714844 209.464844 457.28125 222.179688 482.007812 227.933594 Z M 482.007812 227.933594 " fill-opacity="1" fill-rule="nonzero"/><path fill="#0084ff" d="M 489.082031 285.058594 C 489.082031 297.414062 491.367188 309.785156 494.847656 321.777344 L 429.5625 285.058594 L 494.847656 248.339844 C 491.367188 260.347656 489.082031 272.703125 489.082031 285.058594 Z M 489.082031 285.058594 " fill-opacity="1" fill-rule="nonzero"/><g clip-path="url(#224e4d396f)"><path fill="#0084ff" d="M 81.0625 657.085938 L 729.101562 657.085938 L 729.101562 669.089844 C 729.101562 688.960938 712.960938 705.097656 693.09375 705.097656 L 117.058594 705.097656 C 97.1875 705.097656 81.050781 688.960938 81.050781 669.089844 L 81.050781 657.085938 Z M 81.0625 657.085938 " fill-opacity="1" fill-rule="nonzero"/></g><g clip-path="url(#bed4a85feb)"><path fill="#0084ff" d="M 609.085938 477.074219 L 609.085938 417.066406 C 604.042969 424.742188 596.242188 429.910156 586.882812 431.945312 C 582.203125 432.90625 577.644531 434.105469 573.078125 435.425781 L 573.078125 501.074219 L 454.996094 501.074219 C 442.742188 512.621094 433.742188 525.074219 417.070312 525.074219 L 393.070312 525.074219 C 376.144531 525.074219 367.171875 512.382812 355.140625 501.074219 L 237.058594 501.074219 L 237.058594 435.316406 C 232.503906 434.117188 227.9375 432.917969 223.253906 431.957031 C 213.894531 429.921875 206.09375 424.757812 201.050781 417.082031 L 201.050781 477.085938 L 81.050781 633.097656 L 729.085938 633.097656 L 609.085938 477.085938 Z M 261.058594 597.078125 L 189.058594 597.078125 L 189.058594 561.070312 L 261.058594 561.070312 Z M 381.0625 597.078125 L 309.0625 597.078125 L 309.0625 561.070312 L 381.0625 561.070312 Z M 501.0625 597.078125 L 429.0625 597.078125 L 429.0625 561.070312 L 501.0625 561.070312 Z M 621.066406 597.078125 L 549.066406 597.078125 L 549.066406 561.070312 L 621.066406 561.070312 Z M 621.066406 597.078125 " fill-opacity="1" fill-rule="nonzero"/></g><path fill="#0084ff" d="M 129.0625 177.050781 C 115.808594 177.050781 105.0625 187.796875 105.0625 201.050781 L 105.0625 309.058594 C 105.0625 322.3125 115.808594 333.058594 129.0625 333.058594 C 142.316406 333.058594 153.0625 322.3125 153.0625 309.058594 L 153.0625 201.050781 C 153.0625 187.796875 142.316406 177.050781 129.0625 177.050781 Z M 129.0625 177.050781 " fill-opacity="1" fill-rule="nonzero"/><path fill="#0084ff" d="M 645.09375 81.046875 C 631.835938 81.046875 621.089844 91.792969 621.089844 105.050781 L 621.089844 165.058594 C 621.089844 178.3125 631.835938 189.058594 645.09375 189.058594 C 658.347656 189.058594 669.09375 178.3125 669.09375 165.058594 L 669.09375 105.050781 C 669.09375 91.792969 658.347656 81.046875 645.09375 81.046875 Z M 645.09375 81.046875 " fill-opacity="1" fill-rule="nonzero"/><path fill="#0084ff" d="M 681.097656 261.058594 C 667.84375 261.058594 657.097656 271.804688 657.097656 285.058594 L 657.097656 393.066406 C 657.097656 406.320312 667.84375 417.066406 681.097656 417.066406 C 694.351562 417.066406 705.097656 406.320312 705.097656 393.066406 L 705.097656 285.058594 C 705.097656 271.804688 694.351562 261.058594 681.097656 261.058594 Z M 681.097656 261.058594 " fill-opacity="1" fill-rule="nonzero"/></svg>