<svg xmlns="http://www.w3.org/2000/svg" xmlns:xlink="http://www.w3.org/1999/xlink" width="1080" zoomAndPan="magnify" viewBox="0 0 810 809.999993" height="1080" preserveAspectRatio="xMidYMid meet" version="1.0"><defs><clipPath id="ecfb12e8af"><path d="M 94.445312 82 L 728.945312 82 L 728.945312 715.5 L 94.445312 715.5 Z M 94.445312 82 " clip-rule="nonzero"/></clipPath></defs><g clip-path="url(#ecfb12e8af)"><path fill="#0084ff" d="M 718.050781 418.949219 L 696.5 418.949219 L 696.5 397.398438 C 696.5 367.203125 675.273438 341.929688 646.9375 335.695312 L 646.9375 246.199219 C 646.9375 242.261719 644.859375 238.652344 641.46875 236.683594 L 376.164062 83.515625 C 372.769531 81.546875 368.613281 81.546875 365.222656 83.515625 L 99.917969 236.683594 C 96.523438 238.652344 94.445312 242.261719 94.445312 246.199219 L 94.445312 552.535156 C 94.445312 556.472656 96.523438 560.082031 99.917969 562.050781 L 365.222656 715.21875 C 366.863281 716.203125 368.832031 716.640625 370.691406 716.640625 C 372.550781 716.640625 374.523438 716.203125 376.164062 715.21875 L 557.773438 610.410156 L 718.050781 610.410156 C 724.070312 610.410156 728.992188 605.484375 728.992188 599.46875 L 728.992188 429.890625 C 728.992188 423.765625 724.070312 418.949219 718.050781 418.949219 Z M 370.691406 105.617188 L 614.117188 246.199219 L 492.023438 316.65625 L 265.992188 166.117188 Z M 370.691406 386.785156 L 127.265625 246.199219 L 244.878906 178.261719 L 470.796875 328.910156 Z M 570.027344 397.398438 L 570.027344 418.949219 L 548.476562 418.949219 C 542.457031 418.949219 537.535156 423.875 537.535156 429.890625 L 537.535156 596.84375 L 381.632812 686.882812 L 381.632812 405.714844 L 480.644531 348.605469 L 480.644531 433.828125 C 480.644531 439.847656 485.566406 444.769531 491.585938 444.769531 C 497.601562 444.769531 502.523438 439.847656 502.523438 433.828125 L 502.523438 335.914062 L 625.058594 265.128906 L 625.058594 334.710938 C 594.097656 338.757812 570.027344 365.234375 570.027344 397.398438 Z M 644.203125 520.476562 C 644.203125 526.496094 639.28125 531.417969 633.265625 531.417969 C 627.246094 531.417969 622.324219 526.496094 622.324219 520.476562 L 622.324219 491.59375 C 622.324219 485.578125 627.246094 480.65625 633.265625 480.65625 C 639.28125 480.65625 644.203125 485.578125 644.203125 491.59375 Z M 674.617188 418.949219 L 591.910156 418.949219 L 591.910156 397.398438 C 591.910156 374.53125 610.507812 356.042969 633.265625 356.042969 C 656.019531 356.042969 674.617188 374.640625 674.617188 397.398438 Z M 674.617188 418.949219 " fill-opacity="1" fill-rule="nonzero"/></g></svg>