<svg xmlns="http://www.w3.org/2000/svg" xmlns:xlink="http://www.w3.org/1999/xlink" width="1080" zoomAndPan="magnify" viewBox="0 0 810 809.999993" height="1080" preserveAspectRatio="xMidYMid meet" version="1.0"><defs><clipPath id="7124802773"><path d="M 116 152 L 716.65625 152 L 716.65625 609 L 116 609 Z M 116 152 " clip-rule="nonzero"/></clipPath><clipPath id="4dcf479abe"><path d="M 296 81 L 537 81 L 537 285 L 296 285 Z M 296 81 " clip-rule="nonzero"/></clipPath></defs><g clip-path="url(#7124802773)"><path fill="#0084ff" d="M 668.101562 152.953125 L 551.929688 152.953125 C 557.335938 168.191406 560.09375 184.390625 560.09375 200.953125 L 668.101562 200.953125 L 668.101562 524.976562 L 164.078125 524.976562 L 164.078125 200.964844 L 272.085938 200.964844 C 272.085938 184.164062 274.96875 167.964844 280.363281 152.964844 L 164.078125 152.964844 C 137.558594 152.964844 116.078125 174.441406 116.078125 200.964844 L 116.078125 560.984375 C 116.078125 587.503906 137.558594 608.984375 164.078125 608.984375 L 668.113281 608.984375 C 694.636719 608.984375 716.113281 587.503906 716.113281 560.984375 L 716.113281 200.964844 C 716.113281 174.441406 694.636719 152.964844 668.113281 152.964844 Z M 668.101562 152.953125 " fill-opacity="1" fill-rule="nonzero"/></g><path fill="#0084ff" d="M 560.105469 383.007812 L 560.105469 446.972656 C 560.105469 463.535156 546.664062 476.976562 530.101562 476.976562 C 520.617188 476.976562 435.011719 460.101562 431.453125 459.453125 L 500.097656 428.976562 L 500.097656 380.972656 C 500.097656 374.371094 494.695312 368.96875 488.089844 368.96875 C 481.488281 368.96875 476.085938 374.371094 476.085938 380.972656 L 476.085938 389.136719 C 466.25 376.894531 451.011719 368.980469 434.085938 368.980469 C 419.199219 368.980469 360.664062 381.460938 356.082031 382.296875 L 356.082031 380.976562 C 356.082031 374.371094 350.679688 368.96875 344.074219 368.96875 C 337.472656 368.96875 332.070312 374.371094 332.070312 380.976562 L 332.070312 411.089844 C 337.011719 410.191406 421.929688 392.96875 434.074219 392.96875 C 450.636719 392.96875 464.078125 406.410156 464.078125 422.972656 L 311.1875 475.292969 C 307.84375 476.402344 304.398438 476.976562 300.832031 476.976562 C 283.355469 476.976562 272.074219 463.871094 272.074219 448.296875 L 272.074219 383.007812 C 272.074219 342.085938 305.199219 308.960938 346.121094 308.960938 L 372.882812 308.960938 C 385.488281 316.636719 400.25 320.96875 416.089844 320.96875 C 431.929688 320.96875 445.917969 316.859375 458.574219 308.960938 L 486.058594 308.960938 C 526.980469 308.960938 560.105469 342.085938 560.105469 383.007812 Z M 560.105469 383.007812 " fill-opacity="1" fill-rule="nonzero"/><path fill="#0084ff" d="M 476.097656 212.957031 L 476.097656 234.324219 C 476.097656 267.113281 450.910156 296.964844 416.089844 296.964844 C 381.269531 296.964844 356.082031 270.082031 356.082031 236.960938 L 356.082031 212.957031 C 356.082031 179.835938 382.964844 152.953125 416.089844 152.953125 C 449.214844 152.953125 476.097656 179.835938 476.097656 212.957031 Z M 476.097656 212.957031 " fill-opacity="1" fill-rule="nonzero"/><path fill="#0084ff" d="M 500.097656 680.988281 C 500.097656 680.988281 512.105469 680.988281 512.105469 680.988281 C 524.097656 680.988281 536.105469 690.734375 536.105469 704.988281 C 536.105469 719.238281 523.660156 728.988281 510.644531 728.988281 L 321.546875 728.988281 C 308.582031 728.988281 296.085938 719.414062 296.085938 704.988281 C 296.085938 690.558594 308.082031 680.988281 320.085938 680.988281 C 320.085938 680.988281 332.09375 680.988281 332.09375 680.988281 C 345.347656 680.988281 356.09375 670.242188 356.09375 656.984375 L 356.09375 632.984375 L 476.097656 632.984375 L 476.097656 656.984375 C 476.097656 670.242188 486.84375 680.988281 500.097656 680.988281 Z M 500.097656 680.988281 " fill-opacity="1" fill-rule="nonzero"/><g clip-path="url(#4dcf479abe)"><path fill="#0084ff" d="M 536.105469 200.964844 L 536.105469 266.964844 C 536.105469 276.921875 528.066406 284.960938 518.105469 284.960938 C 508.148438 284.960938 500.109375 276.921875 500.109375 266.964844 C 500.109375 266.851562 500.109375 212.957031 500.109375 212.957031 C 499.460938 166.480469 461.046875 128.949219 416.101562 128.949219 C 371.160156 128.949219 332.09375 166.242188 332.09375 212.957031 L 332.09375 266.964844 C 332.09375 276.921875 324.058594 284.960938 314.097656 284.960938 C 304.136719 284.960938 296.101562 276.921875 296.101562 266.964844 L 296.101562 200.964844 C 296.101562 134.71875 349.867188 80.960938 416.101562 80.960938 C 482.335938 80.960938 536.105469 134.730469 536.105469 200.964844 Z M 536.105469 200.964844 " fill-opacity="1" fill-rule="nonzero"/></g></svg>