<svg xmlns="http://www.w3.org/2000/svg" xmlns:xlink="http://www.w3.org/1999/xlink" width="1080" zoomAndPan="magnify" viewBox="0 0 810 809.999993" height="1080" preserveAspectRatio="xMidYMid meet" version="1.0"><defs><clipPath id="e1a58ab44b"><path d="M 395 290 L 721.5 290 L 721.5 698.25 L 395 698.25 Z M 395 290 " clip-rule="nonzero"/></clipPath></defs><path fill="#0084ff" d="M 523.367188 81.160156 L 115.972656 81.160156 C 96.6875 81.160156 81.046875 96.789062 81.046875 116.085938 L 81.046875 441.996094 C 81.046875 454.855469 91.472656 465.277344 104.328125 465.277344 L 162.53125 465.277344 L 162.53125 197.566406 C 162.53125 178.28125 178.171875 162.640625 197.453125 162.640625 L 546.644531 162.640625 L 546.644531 104.4375 C 546.644531 91.582031 536.222656 81.160156 523.367188 81.160156 Z M 424.429688 139.363281 C 414.78125 139.363281 406.972656 131.542969 406.972656 121.90625 C 406.972656 112.273438 414.792969 104.453125 424.429688 104.453125 C 434.066406 104.453125 441.886719 112.273438 441.886719 121.90625 C 441.886719 131.542969 434.066406 139.363281 424.429688 139.363281 Z M 494.265625 139.363281 C 484.617188 139.363281 476.808594 131.542969 476.808594 121.90625 C 476.808594 112.273438 484.628906 104.453125 494.265625 104.453125 C 503.902344 104.453125 511.722656 112.273438 511.722656 121.90625 C 511.722656 131.542969 503.902344 139.363281 494.265625 139.363281 Z M 494.265625 139.363281 " fill-opacity="1" fill-rule="nonzero"/><path fill="#0084ff" d="M 604.847656 185.921875 L 220.734375 185.921875 C 201.449219 185.921875 185.808594 201.546875 185.808594 220.84375 L 185.808594 279.046875 L 391.078125 279.046875 L 475.867188 224.550781 C 479.703125 222.078125 484.074219 220.855469 488.457031 220.855469 C 492.835938 220.855469 497.207031 222.089844 501.042969 224.550781 L 628.140625 307.90625 L 628.140625 209.210938 C 628.140625 196.355469 617.714844 185.933594 604.859375 185.933594 Z M 604.847656 185.921875 " fill-opacity="1" fill-rule="nonzero"/><path fill="#0084ff" d="M 388.488281 372.160156 L 536.875 276.773438 L 488.441406 245.636719 L 342.148438 339.683594 Z M 388.488281 372.160156 " fill-opacity="1" fill-rule="nonzero"/><g clip-path="url(#e1a58ab44b)"><path fill="#0084ff" d="M 710.550781 390.078125 L 558.292969 290.667969 L 406.03125 390.078125 C 399.371094 394.363281 395.339844 401.734375 395.339844 409.664062 L 395.339844 490.070312 C 395.339844 625.371094 512.773438 681.371094 543.777344 695.011719 C 548.363281 697.035156 553.28125 698.074219 558.292969 698.074219 C 563.304688 698.074219 568.21875 697.035156 572.804688 695.011719 C 603.808594 681.382812 721.242188 625.371094 721.242188 490.070312 L 721.242188 409.664062 C 721.242188 401.746094 717.210938 394.363281 710.550781 390.078125 Z M 651.613281 557.191406 L 627.921875 582.855469 L 564.101562 523.953125 L 500.28125 582.855469 L 476.59375 557.191406 L 538.355469 500.1875 L 476.59375 443.183594 L 500.28125 417.519531 L 564.101562 476.425781 L 627.921875 417.519531 L 651.613281 443.183594 L 589.851562 500.1875 Z M 651.613281 557.191406 " fill-opacity="1" fill-rule="nonzero"/></g><path fill="#0084ff" d="M 372.050781 390.78125 L 325.492188 360.515625 C 325.492188 519.761719 325.492188 540.449219 402.242188 604.960938 C 402.242188 604.960938 372.050781 566.089844 372.050781 488.554688 Z M 372.050781 390.78125 " fill-opacity="1" fill-rule="nonzero"/><path fill="#0084ff" d="M 302.214844 360.515625 L 302.214844 337.238281 L 354.859375 302.3125 L 185.808594 302.3125 L 185.808594 604.949219 C 185.808594 604.949219 266.792969 604.863281 366.929688 604.949219 C 302.25 545.234375 302.203125 508.09375 302.203125 360.515625 Z M 278.933594 430.351562 L 209.097656 430.351562 L 209.097656 407.074219 L 278.933594 407.074219 Z M 278.933594 383.796875 L 209.097656 383.796875 L 209.097656 348.871094 L 278.933594 348.871094 Z M 278.933594 383.796875 " fill-opacity="1" fill-rule="nonzero"/></svg>