<svg xmlns="http://www.w3.org/2000/svg" viewBox="0 0 400 300">
  <!-- Grid Lines -->
  <path d="M50 50 H350 M50 150 H350 M50 250 H350" 
        stroke="#2a2a4a" 
        stroke-width="1" 
        stroke-dasharray="4 4"/>
  
  <!-- Main Chart Area -->
  <rect x="50" y="50" width="300" height="200" 
        fill="#232342" 
        rx="8"/>
  
  <!-- Security Metrics Bar Chart -->
  <g transform="translate(70,200)">
    <!-- Bars representing security metrics -->
    <rect x="0" y="-120" width="30" height="120" fill="#4287f5"/>
    <rect x="50" y="-80" width="30" height="80" fill="#4287f5"/>
    <rect x="100" y="-150" width="30" height="150" fill="#4287f5"/>
    <rect x="150" y="-90" width="30" height="90" fill="#4287f5"/>
    <rect x="200" y="-130" width="30" height="130" fill="#4287f5"/>
  </g>
  
  <!-- Shield Icon -->
  <path d="M320 80 L340 80 L340 100 L330 110 L320 100 Z" 
        fill="#4287f5"/>
  
  <!-- Mini Pie Chart -->
  <circle cx="330" cy="150" r="20" fill="none" 
          stroke="#4287f5" 
          stroke-width="4"/>
  <path d="M330 150 L330 130 A20 20 0 0 1 348 158 Z" 
        fill="#4287f5"/>
  
  <!-- Status Indicators -->
  <g transform="translate(320,200)">
    <rect width="40" height="8" fill="#4287f5" rx="4"/>
    <rect y="16" width="40" height="8" fill="#2a2a4a" rx="4"/>
    <rect y="32" width="40" height="8" fill="#2a2a4a" rx="4"/>
  </g>
</svg>
