 <svg width="28" height="28" viewBox="0 0 28 28" fill="none" xmlns="http://www.w3.org/2000/svg">
                    <g filter="url(#filter0_b_2218_1557)">
                    <rect width="28" height="28" rx="14" transform="matrix(1 2.13529e-05 2.13529e-05 -1 0 28)" fill="url(#paint0_linear_2218_1557)"/>
                    </g>
                    <path d="M16.4713 13.7445V13.9444V15.0778V15.3954L16.1626 15.3208C15.1687 15.0806 14.1497 14.9598 13.1272 14.9611L13.1258 14.9611C11.302 14.9535 9.49876 15.3457 7.84293 16.1102L16.4713 13.7445ZM16.4713 13.7445L16.2762 13.7005M16.4713 13.7445L16.2762 13.7005M16.2762 13.7005C15.5799 13.5439 14.8762 13.44 14.171 13.3884C14.8772 13.2043 15.5286 12.8349 16.0535 12.31C16.8297 11.5338 17.2658 10.481 17.2658 9.38334C17.2658 8.56474 17.023 7.76453 16.5682 7.08389C16.1135 6.40326 15.4671 5.87276 14.7108 5.5595C13.9545 5.24624 13.1223 5.16428 12.3194 5.32398C11.5166 5.48368 10.7791 5.87787 10.2002 6.4567C9.62141 7.03553 9.22722 7.77301 9.06752 8.57588C8.90782 9.37874 8.98979 10.2109 9.30305 10.9672C9.61631 11.7235 10.1468 12.3699 10.8274 12.8247C11.213 13.0823 11.637 13.2719 12.0809 13.3879C10.3906 13.5107 8.72428 13.9325 7.16206 14.6448L7.16204 14.6447M16.2762 13.7005L7.16204 14.6447M7.16204 14.6447L7.15802 14.6466L7.16204 14.6447ZM7.34361 16.9167H7.34355V20.2222C7.34355 20.328 7.32271 20.4328 7.28223 20.5305L7.05126 20.4348L7.28223 20.5305C7.24175 20.6282 7.18241 20.717 7.10761 20.7918C7.03281 20.8666 6.944 20.926 6.84627 20.9665C6.74853 21.0069 6.64378 21.0278 6.538 21.0278C6.43221 21.0278 6.32746 21.0069 6.22972 20.9665C6.13199 20.926 6.04318 20.8666 5.96838 20.7918C5.89358 20.717 5.83424 20.6282 5.79376 20.5305C5.75328 20.4328 5.73244 20.328 5.73244 20.2222V16.9172V16.9167H5.98244H7.34361ZM7.34361 16.9167L7.34349 16.9111M7.34361 16.9167L7.34349 16.9111M7.34349 16.9111C7.33974 16.7435 7.385 16.5784 7.47372 16.4361M7.34349 16.9111L7.47372 16.4361M7.47372 16.4361C7.56242 16.2939 7.69069 16.1807 7.8428 16.1103L7.47372 16.4361ZM16.2991 18.9778H16.0491V19.2278V20.0056V20.2556H16.2991H19.7102H19.9602V20.0056V19.2278V18.9778H19.7102H16.2991ZM11.7225 7.32601C12.1382 7.04825 12.6269 6.9 13.1269 6.9C13.4588 6.9 13.7875 6.96539 14.0942 7.09242C14.4009 7.21945 14.6796 7.40565 14.9143 7.64037C15.149 7.8751 15.3352 8.15376 15.4622 8.46044C15.5893 8.76713 15.6547 9.09583 15.6547 9.42778C15.6547 9.92773 15.5064 10.4164 15.2287 10.8321C14.9509 11.2478 14.5561 11.5718 14.0942 11.7631C13.6323 11.9545 13.1241 12.0045 12.6337 11.907C12.1434 11.8095 11.693 11.5687 11.3395 11.2152C10.986 10.8617 10.7452 10.4113 10.6477 9.92093C10.5501 9.43059 10.6002 8.92233 10.7915 8.46044C10.9828 7.99855 11.3068 7.60377 11.7225 7.32601Z" fill="white" stroke="white" stroke-width="0.5"/>
                    <path d="M22.4276 15.9278H19.5553V17.0389H21.872V21.6889H13.9998V17.0389H17.4998V17.2722C17.4998 17.4196 17.5583 17.5609 17.6625 17.6651C17.7667 17.7692 17.908 17.8278 18.0553 17.8278C18.2027 17.8278 18.344 17.7692 18.4482 17.6651C18.5524 17.5609 18.6109 17.4196 18.6109 17.2722V15.1111C18.6109 14.9638 18.5524 14.8225 18.4482 14.7183C18.344 14.6141 18.2027 14.5556 18.0553 14.5556C17.908 14.5556 17.7667 14.6141 17.6625 14.7183C17.5583 14.8225 17.4998 14.9638 17.4998 15.1111V15.9278H13.4442C13.2969 15.9278 13.1556 15.9863 13.0514 16.0905C12.9472 16.1947 12.8887 16.336 12.8887 16.4833V22.2444C12.8887 22.3918 12.9472 22.5331 13.0514 22.6373C13.1556 22.7415 13.2969 22.8 13.4442 22.8H22.4276C22.5749 22.8 22.7162 22.7415 22.8204 22.6373C22.9246 22.5331 22.9831 22.3918 22.9831 22.2444V16.4833C22.9831 16.336 22.9246 16.1947 22.8204 16.0905C22.7162 15.9863 22.5749 15.9278 22.4276 15.9278Z" fill="white"/>
                    <defs>
                    <filter id="filter0_b_2218_1557" x="-4.28571" y="-4.28541" width="36.5714" height="36.5714" filterUnits="userSpaceOnUse" color-interpolation-filters="sRGB">
                    <feFlood flood-opacity="0" result="BackgroundImageFix"/>
                    <feGaussianBlur in="BackgroundImageFix" stdDeviation="2.14286"/>
                    <feComposite in2="SourceAlpha" operator="in" result="effect1_backgroundBlur_2218_1557"/>
                    <feBlend mode="normal" in="SourceGraphic" in2="effect1_backgroundBlur_2218_1557" result="shape"/>
                    </filter>
                    <linearGradient id="paint0_linear_2218_1557" x1="27.2135" y1="26.3846" x2="5.42714" y2="-3.56618" gradientUnits="userSpaceOnUse">
                    <stop offset="0.00104141" stop-color="#0FD3FE"/>
                    <stop offset="0.730208" stop-color="#0E41ED"/>
                    </linearGradient>
                    </defs>
                    </svg>