<svg width="28" height="28" viewBox="0 0 28 28" fill="none" xmlns="http://www.w3.org/2000/svg">
                    <g filter="url(#filter0_b_2218_1594)">
                    <rect width="28" height="28" rx="14" transform="matrix(1 2.13529e-05 2.13529e-05 -1 0 28)" fill="url(#paint0_linear_2218_1594)"/>
                    </g>
                    <path d="M20.3333 21.5L15.0833 16.25C14.6667 16.5833 14.1875 16.8472 13.6458 17.0417C13.1042 17.2361 12.5278 17.3333 11.9167 17.3333C10.4028 17.3333 9.12167 16.8089 8.07333 15.76C7.025 14.7111 6.50056 13.43 6.5 11.9167C6.5 10.4028 7.02444 9.12167 8.07333 8.07333C9.12222 7.025 10.4033 6.50056 11.9167 6.5C13.4306 6.5 14.7119 7.02444 15.7608 8.07333C16.8097 9.12222 17.3339 10.4033 17.3333 11.9167C17.3333 12.5278 17.2361 13.1042 17.0417 13.6458C16.8472 14.1875 16.5833 14.6667 16.25 15.0833L21.5 20.3333L20.3333 21.5ZM11.9167 15.6667C12.9583 15.6667 13.8439 15.3022 14.5733 14.5733C15.3028 13.8444 15.6672 12.9589 15.6667 11.9167C15.6667 10.875 15.3022 9.98972 14.5733 9.26083C13.8444 8.53194 12.9589 8.16722 11.9167 8.16667C10.875 8.16667 9.98972 8.53139 9.26083 9.26083C8.53194 9.99028 8.16722 10.8756 8.16667 11.9167C8.16667 12.9583 8.53139 13.8439 9.26083 14.5733C9.99028 15.3028 10.8756 15.6672 11.9167 15.6667Z" fill="white"/>
                    <defs>
                    <filter id="filter0_b_2218_1594" x="-4.28571" y="-4.28541" width="36.5714" height="36.5714" filterUnits="userSpaceOnUse" color-interpolation-filters="sRGB">
                    <feFlood flood-opacity="0" result="BackgroundImageFix"/>
                    <feGaussianBlur in="BackgroundImageFix" stdDeviation="2.14286"/>
                    <feComposite in2="SourceAlpha" operator="in" result="effect1_backgroundBlur_2218_1594"/>
                    <feBlend mode="normal" in="SourceGraphic" in2="effect1_backgroundBlur_2218_1594" result="shape"/>
                    </filter>
                    <linearGradient id="paint0_linear_2218_1594" x1="27.2135" y1="26.3846" x2="5.42714" y2="-3.56618" gradientUnits="userSpaceOnUse">
                    <stop offset="0.00104141" stop-color="#0FD3FE"/>
                    <stop offset="0.730208" stop-color="#0E41ED"/>
                    </linearGradient>
                    </defs>
                    </svg>