<svg width="28" height="28" viewBox="0 0 28 28" fill="none" xmlns="http://www.w3.org/2000/svg">
                    <g filter="url(#filter0_b_2218_1585)">
                    <rect width="28" height="28" rx="14" transform="matrix(1 2.13529e-05 2.13529e-05 -1 0 28.0005)" fill="url(#paint0_linear_2218_1585)"/>
                    </g>
                    <path d="M11.25 7.58383H20.4167C20.9029 7.58383 21.3692 7.77699 21.713 8.1208C22.0568 8.46462 22.25 8.93093 22.25 9.41717V18.5838M20.4167 20.4172H7.58333C7.0971 20.4172 6.63079 20.224 6.28697 19.8802C5.94315 19.5364 5.75 19.0701 5.75 18.5838V9.41717C5.75 8.93093 5.94315 8.46462 6.28697 8.1208C6.63079 7.77699 7.0971 7.58383 7.58333 7.58383" stroke="white" stroke-width="2" stroke-linecap="round" stroke-linejoin="round"/>
                    <path d="M5.75 9.41716L14 14.9172L14.5179 14.5716M16.75 13.0838L22.25 9.41716M5.75 5.75049L22.25 22.2505" stroke="white" stroke-width="2" stroke-linecap="round" stroke-linejoin="round"/>
                    <defs>
                    <filter id="filter0_b_2218_1585" x="-4.28571" y="-4.28492" width="36.5714" height="36.5714" filterUnits="userSpaceOnUse" color-interpolation-filters="sRGB">
                    <feFlood flood-opacity="0" result="BackgroundImageFix"/>
                    <feGaussianBlur in="BackgroundImageFix" stdDeviation="2.14286"/>
                    <feComposite in2="SourceAlpha" operator="in" result="effect1_backgroundBlur_2218_1585"/>
                    <feBlend mode="normal" in="SourceGraphic" in2="effect1_backgroundBlur_2218_1585" result="shape"/>
                    </filter>
                    <linearGradient id="paint0_linear_2218_1585" x1="27.2135" y1="26.3846" x2="5.42714" y2="-3.56618" gradientUnits="userSpaceOnUse">
                    <stop offset="0.00104141" stop-color="#0FD3FE"/>
                    <stop offset="0.730208" stop-color="#0E41ED"/>
                    </linearGradient>
                    </defs>
                    </svg>