<svg width="28" height="28" viewBox="0 0 28 28" fill="none" xmlns="http://www.w3.org/2000/svg">
                    <g filter="url(#filter0_b_2218_1578)">
                    <rect width="28" height="28" rx="14" transform="matrix(1 2.13529e-05 2.13529e-05 -1 0 28)" fill="url(#paint0_linear_2218_1578)"/>
                    </g>
                    <path d="M22.7165 6.19686L21.8056 5.28593C21.7712 5.25155 21.7283 5.23651 21.6831 5.23651C21.638 5.23651 21.595 5.2537 21.5607 5.28593L19.9257 6.92089C19.215 6.43932 18.3758 6.18257 17.5173 6.18397C16.4173 6.18397 15.3173 6.60292 14.4773 7.44296L12.288 9.63222C12.256 9.66452 12.2381 9.70814 12.2381 9.7536C12.2381 9.79906 12.256 9.84268 12.288 9.87499L18.1253 15.7123C18.1597 15.7467 18.2027 15.7617 18.2478 15.7617C18.2908 15.7617 18.3359 15.7445 18.3702 15.7123L20.5595 13.523C22.0398 12.0406 22.2138 9.74823 21.0816 8.07675L22.7165 6.44178C22.7831 6.37303 22.7831 6.26346 22.7165 6.19686ZM19.524 12.4896L18.2478 13.7658L14.2345 9.75253L15.5107 8.47636C16.0456 7.94139 16.7589 7.64491 17.5173 7.64491C18.2757 7.64491 18.9868 7.93925 19.524 8.47636C20.0589 9.01132 20.3554 9.7246 20.3554 10.483C20.3554 11.2414 20.0589 11.9525 19.524 12.4896ZM15.4376 14.7455C15.4053 14.7135 15.3617 14.6956 15.3162 14.6956C15.2708 14.6956 15.2272 14.7135 15.1949 14.7455L13.764 16.1764L11.824 14.2363L13.257 12.8033C13.3236 12.7367 13.3236 12.6271 13.257 12.5605L12.4749 11.7785C12.4426 11.7465 12.399 11.7286 12.3535 11.7286C12.3081 11.7286 12.2645 11.7465 12.2322 11.7785L10.7991 13.2115L9.87532 12.2877C9.85928 12.2716 9.84017 12.259 9.81913 12.2505C9.79809 12.242 9.77555 12.2378 9.75286 12.2383C9.70989 12.2383 9.66477 12.2555 9.6304 12.2877L7.44329 14.4769C5.96302 15.9594 5.78899 18.2517 6.92122 19.9232L5.28626 21.5582C5.25427 21.5905 5.23633 21.6341 5.23633 21.6796C5.23633 21.725 5.25427 21.7687 5.28626 21.801L6.1972 22.7119C6.23157 22.7463 6.27454 22.7613 6.31966 22.7613C6.36477 22.7613 6.40774 22.7441 6.44212 22.7119L8.07708 21.0769C8.8011 21.5689 9.64329 21.8139 10.4855 21.8139C11.5855 21.8139 12.6855 21.3949 13.5255 20.5549L15.7148 18.3656C15.7814 18.299 15.7814 18.1894 15.7148 18.1228L14.7909 17.199L16.224 15.766C16.2906 15.6994 16.2906 15.5898 16.224 15.5232L15.4376 14.7455ZM12.49 19.5236C12.227 19.7879 11.9143 19.9975 11.5699 20.1402C11.2254 20.2829 10.8561 20.3559 10.4833 20.3551C9.72493 20.3551 9.0138 20.0607 8.47669 19.5236C8.21239 19.2607 8.00283 18.9479 7.86012 18.6035C7.71741 18.2591 7.64437 17.8898 7.64524 17.517C7.64524 16.7586 7.93958 16.0474 8.47669 15.5103L9.75286 14.2342L13.7661 18.2475L12.49 19.5236Z" fill="white"/>
                    <defs>
                    <filter id="filter0_b_2218_1578" x="-4.28571" y="-4.28541" width="36.5714" height="36.5714" filterUnits="userSpaceOnUse" color-interpolation-filters="sRGB">
                    <feFlood flood-opacity="0" result="BackgroundImageFix"/>
                    <feGaussianBlur in="BackgroundImageFix" stdDeviation="2.14286"/>
                    <feComposite in2="SourceAlpha" operator="in" result="effect1_backgroundBlur_2218_1578"/>
                    <feBlend mode="normal" in="SourceGraphic" in2="effect1_backgroundBlur_2218_1578" result="shape"/>
                    </filter>
                    <linearGradient id="paint0_linear_2218_1578" x1="27.2135" y1="26.3846" x2="5.42714" y2="-3.56618" gradientUnits="userSpaceOnUse">
                    <stop offset="0.00104141" stop-color="#0FD3FE"/>
                    <stop offset="0.730208" stop-color="#0E41ED"/>
                    </linearGradient>
                    </defs>
                    </svg>