<svg width="28" height="28" viewBox="0 0 28 28" fill="none" xmlns="http://www.w3.org/2000/svg">
<g filter="url(#filter0_b_4195_3338)">
<rect width="28" height="28" rx="14" transform="matrix(1 2.13529e-05 2.13529e-05 -1 0 28)" fill="url(#paint0_linear_4195_3338)"/>
</g>
<path d="M22.7165 6.19668L21.8056 5.28574C21.7712 5.25137 21.7283 5.23633 21.6831 5.23633C21.638 5.23633 21.595 5.25352 21.5607 5.28574L19.9257 6.9207C19.215 6.43914 18.3758 6.18239 17.5173 6.18379C16.4173 6.18379 15.3173 6.60273 14.4773 7.44277L12.288 9.63203C12.256 9.66434 12.2381 9.70796 12.2381 9.75342C12.2381 9.79888 12.256 9.8425 12.288 9.8748L18.1253 15.7121C18.1597 15.7465 18.2027 15.7615 18.2478 15.7615C18.2908 15.7615 18.3359 15.7443 18.3702 15.7121L20.5595 13.5229C22.0398 12.0404 22.2138 9.74805 21.0816 8.07656L22.7165 6.4416C22.7831 6.37285 22.7831 6.26328 22.7165 6.19668ZM19.524 12.4895L18.2478 13.7656L14.2345 9.75234L15.5107 8.47617C16.0456 7.94121 16.7589 7.64473 17.5173 7.64473C18.2757 7.64473 18.9868 7.93906 19.524 8.47617C20.0589 9.01113 20.3554 9.72441 20.3554 10.4828C20.3554 11.2412 20.0589 11.9523 19.524 12.4895ZM15.4376 14.7453C15.4053 14.7133 15.3617 14.6954 15.3162 14.6954C15.2708 14.6954 15.2272 14.7133 15.1949 14.7453L13.764 16.1762L11.824 14.2361L13.257 12.8031C13.3236 12.7365 13.3236 12.627 13.257 12.5604L12.4749 11.7783C12.4426 11.7463 12.399 11.7284 12.3535 11.7284C12.3081 11.7284 12.2645 11.7463 12.2322 11.7783L10.7991 13.2113L9.87532 12.2875C9.85928 12.2714 9.84017 12.2588 9.81913 12.2503C9.79809 12.2418 9.77555 12.2377 9.75286 12.2381C9.70989 12.2381 9.66477 12.2553 9.6304 12.2875L7.44329 14.4768C5.96302 15.9592 5.78899 18.2516 6.92122 19.923L5.28626 21.558C5.25427 21.5903 5.23633 21.6339 5.23633 21.6794C5.23633 21.7249 5.25427 21.7685 5.28626 21.8008L6.1972 22.7117C6.23157 22.7461 6.27454 22.7611 6.31966 22.7611C6.36477 22.7611 6.40774 22.7439 6.44212 22.7117L8.07708 21.0768C8.8011 21.5688 9.64329 21.8137 10.4855 21.8137C11.5855 21.8137 12.6855 21.3947 13.5255 20.5547L15.7148 18.3654C15.7814 18.2988 15.7814 18.1893 15.7148 18.1227L14.7909 17.1988L16.224 15.7658C16.2906 15.6992 16.2906 15.5897 16.224 15.523L15.4376 14.7453ZM12.49 19.5234C12.227 19.7877 11.9143 19.9973 11.5699 20.14C11.2254 20.2827 10.8561 20.3558 10.4833 20.3549C9.72493 20.3549 9.0138 20.0605 8.47669 19.5234C8.21239 19.2605 8.00283 18.9478 7.86012 18.6033C7.71741 18.2589 7.64437 17.8896 7.64524 17.5168C7.64524 16.7584 7.93958 16.0473 8.47669 15.5102L9.75286 14.234L13.7661 18.2473L12.49 19.5234Z" fill="white"/>
<defs>
<filter id="filter0_b_4195_3338" x="-4.28571" y="-4.28523" width="36.5714" height="36.5714" filterUnits="userSpaceOnUse" color-interpolation-filters="sRGB">
<feFlood flood-opacity="0" result="BackgroundImageFix"/>
<feGaussianBlur in="BackgroundImageFix" stdDeviation="2.14286"/>
<feComposite in2="SourceAlpha" operator="in" result="effect1_backgroundBlur_4195_3338"/>
<feBlend mode="normal" in="SourceGraphic" in2="effect1_backgroundBlur_4195_3338" result="shape"/>
</filter>
<linearGradient id="paint0_linear_4195_3338" x1="27.2135" y1="26.3846" x2="5.42714" y2="-3.56618" gradientUnits="userSpaceOnUse">
<stop offset="0.00104141" stop-color="#0FD3FE"/>
<stop offset="0.730208" stop-color="#0E41ED"/>
</linearGradient>
</defs>
</svg>
