<svg width="28" height="28" viewBox="0 0 28 28" fill="none" xmlns="http://www.w3.org/2000/svg">
<g filter="url(#filter0_b_4195_3328)">
<rect width="28" height="28" rx="14" transform="matrix(1 0 0 -1 0 28)" fill="url(#paint0_linear_4195_3328)"/>
</g>
<path fill-rule="evenodd" clip-rule="evenodd" d="M15.6673 9.8335C15.4463 9.8335 15.2343 9.92129 15.0781 10.0776C14.9218 10.2339 14.834 10.4458 14.834 10.6668V17.3335C14.834 17.5545 14.9218 17.7665 15.0781 17.9228C15.2343 18.079 15.4463 18.1668 15.6673 18.1668H19.0007C19.2217 18.1668 19.4336 18.079 19.5899 17.9228C19.7462 17.7665 19.834 17.5545 19.834 17.3335V10.6668C19.834 10.4458 19.7462 10.2339 19.5899 10.0776C19.4336 9.92129 19.2217 9.8335 19.0007 9.8335H15.6673ZM18.1673 11.5002H16.5007V16.5002H18.1673V11.5002Z" fill="white"/>
<path d="M9.0013 9.8335C8.78029 9.8335 8.56833 9.92129 8.41205 10.0776C8.25577 10.2339 8.16797 10.4458 8.16797 10.6668C8.16797 10.8878 8.25577 11.0998 8.41205 11.2561C8.56833 11.4124 8.78029 11.5002 9.0013 11.5002H12.3346C12.5556 11.5002 12.7676 11.4124 12.9239 11.2561C13.0802 11.0998 13.168 10.8878 13.168 10.6668C13.168 10.4458 13.0802 10.2339 12.9239 10.0776C12.7676 9.92129 12.5556 9.8335 12.3346 9.8335H9.0013ZM9.0013 13.1668C8.78029 13.1668 8.56833 13.2546 8.41205 13.4109C8.25577 13.5672 8.16797 13.7791 8.16797 14.0002C8.16797 14.2212 8.25577 14.4331 8.41205 14.5894C8.56833 14.7457 8.78029 14.8335 9.0013 14.8335H12.3346C12.5556 14.8335 12.7676 14.7457 12.9239 14.5894C13.0802 14.4331 13.168 14.2212 13.168 14.0002C13.168 13.7791 13.0802 13.5672 12.9239 13.4109C12.7676 13.2546 12.5556 13.1668 12.3346 13.1668H9.0013ZM8.16797 17.3335C8.16797 17.1125 8.25577 16.9005 8.41205 16.7442C8.56833 16.588 8.78029 16.5002 9.0013 16.5002H12.3346C12.5556 16.5002 12.7676 16.588 12.9239 16.7442C13.0802 16.9005 13.168 17.1125 13.168 17.3335C13.168 17.5545 13.0802 17.7665 12.9239 17.9228C12.7676 18.079 12.5556 18.1668 12.3346 18.1668H9.0013C8.78029 18.1668 8.56833 18.079 8.41205 17.9228C8.25577 17.7665 8.16797 17.5545 8.16797 17.3335Z" fill="white"/>
<path fill-rule="evenodd" clip-rule="evenodd" d="M7.33398 6.5C6.67094 6.5 6.03506 6.76339 5.56622 7.23223C5.09738 7.70107 4.83398 8.33696 4.83398 9V19C4.83398 19.663 5.09738 20.2989 5.56622 20.7678C6.03506 21.2366 6.67094 21.5 7.33398 21.5H20.6673C21.3304 21.5 21.9662 21.2366 22.4351 20.7678C22.9039 20.2989 23.1673 19.663 23.1673 19V9C23.1673 8.33696 22.9039 7.70107 22.4351 7.23223C21.9662 6.76339 21.3304 6.5 20.6673 6.5H7.33398ZM20.6673 8.16667H7.33398C7.11297 8.16667 6.90101 8.25446 6.74473 8.41074C6.58845 8.56702 6.50065 8.77899 6.50065 9V19C6.50065 19.221 6.58845 19.433 6.74473 19.5893C6.90101 19.7455 7.11297 19.8333 7.33398 19.8333H20.6673C20.8883 19.8333 21.1003 19.7455 21.2566 19.5893C21.4129 19.433 21.5007 19.221 21.5007 19V9C21.5007 8.77899 21.4129 8.56702 21.2566 8.41074C21.1003 8.25446 20.8883 8.16667 20.6673 8.16667Z" fill="white"/>
<defs>
<filter id="filter0_b_4195_3328" x="-4.28571" y="-4.28571" width="36.5714" height="36.5714" filterUnits="userSpaceOnUse" color-interpolation-filters="sRGB">
<feFlood flood-opacity="0" result="BackgroundImageFix"/>
<feGaussianBlur in="BackgroundImageFix" stdDeviation="2.14286"/>
<feComposite in2="SourceAlpha" operator="in" result="effect1_backgroundBlur_4195_3328"/>
<feBlend mode="normal" in="SourceGraphic" in2="effect1_backgroundBlur_4195_3328" result="shape"/>
</filter>
<linearGradient id="paint0_linear_4195_3328" x1="27.2135" y1="26.3846" x2="5.42714" y2="-3.56618" gradientUnits="userSpaceOnUse">
<stop offset="0.00104141" stop-color="#0FD3FE"/>
<stop offset="0.730208" stop-color="#0E41ED"/>
</linearGradient>
</defs>
</svg>
