<svg width="28" height="28" viewBox="0 0 28 28" fill="none" xmlns="http://www.w3.org/2000/svg">
<g filter="url(#filter0_b_4195_3319)">
<rect width="28" height="28" rx="14" transform="matrix(1 2.13529e-05 2.13529e-05 -1 0 28)" fill="url(#paint0_linear_4195_3319)"/>
</g>
<path d="M16.4713 13.7446V13.9446V15.078V15.3956L16.1626 15.321C15.1687 15.0807 14.1497 14.96 13.1272 14.9613L13.1258 14.9613C11.302 14.9537 9.49876 15.3459 7.84293 16.1104L16.4713 13.7446ZM16.4713 13.7446L16.2762 13.7007M16.4713 13.7446L16.2762 13.7007M16.2762 13.7007C15.5799 13.544 14.8762 13.4402 14.171 13.3886C14.8772 13.2044 15.5286 12.8351 16.0535 12.3102C16.8297 11.534 17.2658 10.4812 17.2658 9.38352C17.2658 8.56492 17.023 7.76471 16.5682 7.08408C16.1135 6.40344 15.4671 5.87295 14.7108 5.55968C13.9545 5.24642 13.1223 5.16446 12.3194 5.32416C11.5166 5.48386 10.7791 5.87805 10.2002 6.45688C9.62141 7.03572 9.22722 7.7732 9.06752 8.57606C8.90782 9.37893 8.98979 10.2111 9.30305 10.9674C9.61631 11.7237 10.1468 12.3701 10.8274 12.8249C11.213 13.0825 11.637 13.2721 12.0809 13.3881C10.3906 13.5109 8.72428 13.9326 7.16206 14.6449L7.16204 14.6449M16.2762 13.7007L7.16204 14.6449M7.16204 14.6449L7.15802 14.6468L7.16204 14.6449ZM7.34361 16.9169H7.34355V20.2224C7.34355 20.3282 7.32271 20.4329 7.28223 20.5307L7.05126 20.435L7.28223 20.5307C7.24175 20.6284 7.18241 20.7172 7.10761 20.792C7.03281 20.8668 6.944 20.9262 6.84627 20.9666C6.74853 21.0071 6.64378 21.028 6.538 21.028C6.43221 21.028 6.32746 21.0071 6.22972 20.9666C6.13199 20.9262 6.04318 20.8668 5.96838 20.792C5.89358 20.7172 5.83424 20.6284 5.79376 20.5307C5.75328 20.4329 5.73244 20.3282 5.73244 20.2224V16.9173V16.9169H5.98244H7.34361ZM7.34361 16.9169L7.34349 16.9113M7.34361 16.9169L7.34349 16.9113M7.34349 16.9113C7.33974 16.7436 7.385 16.5786 7.47372 16.4363M7.34349 16.9113L7.47372 16.4363M7.47372 16.4363C7.56242 16.2941 7.69069 16.1809 7.8428 16.1105L7.47372 16.4363ZM16.2991 18.978H16.0491V19.228V20.0057V20.2557H16.2991H19.7102H19.9602V20.0057V19.228V18.978H19.7102H16.2991ZM11.7225 7.32619C12.1382 7.04844 12.6269 6.90019 13.1269 6.90019C13.4588 6.90019 13.7875 6.96557 14.0942 7.0926C14.4009 7.21963 14.6796 7.40583 14.9143 7.64056C15.149 7.87528 15.3352 8.15394 15.4622 8.46062C15.5893 8.76731 15.6547 9.09601 15.6547 9.42796C15.6547 9.92791 15.5064 10.4166 15.2287 10.8323C14.9509 11.248 14.5561 11.572 14.0942 11.7633C13.6323 11.9546 13.1241 12.0047 12.6337 11.9072C12.1434 11.8096 11.693 11.5689 11.3395 11.2154C10.986 10.8619 10.7452 10.4114 10.6477 9.92111C10.5501 9.43077 10.6002 8.92252 10.7915 8.46062C10.9828 7.99873 11.3068 7.60395 11.7225 7.32619Z" fill="white" stroke="white" stroke-width="0.5"/>
<path d="M22.4276 15.9279H19.5553V17.039H21.872V21.689H13.9998V17.039H17.4998V17.2723C17.4998 17.4197 17.5583 17.561 17.6625 17.6652C17.7667 17.7694 17.908 17.8279 18.0553 17.8279C18.2027 17.8279 18.344 17.7694 18.4482 17.6652C18.5524 17.561 18.6109 17.4197 18.6109 17.2723V15.1112C18.6109 14.9639 18.5524 14.8226 18.4482 14.7184C18.344 14.6142 18.2027 14.5557 18.0553 14.5557C17.908 14.5557 17.7667 14.6142 17.6625 14.7184C17.5583 14.8226 17.4998 14.9639 17.4998 15.1112V15.9279H13.4442C13.2969 15.9279 13.1556 15.9864 13.0514 16.0906C12.9472 16.1948 12.8887 16.3361 12.8887 16.4834V22.2446C12.8887 22.3919 12.9472 22.5332 13.0514 22.6374C13.1556 22.7416 13.2969 22.8001 13.4442 22.8001H22.4276C22.5749 22.8001 22.7162 22.7416 22.8204 22.6374C22.9246 22.5332 22.9831 22.3919 22.9831 22.2446V16.4834C22.9831 16.3361 22.9246 16.1948 22.8204 16.0906C22.7162 15.9864 22.5749 15.9279 22.4276 15.9279Z" fill="white"/>
<defs>
<filter id="filter0_b_4195_3319" x="-4.28571" y="-4.28523" width="36.5714" height="36.5714" filterUnits="userSpaceOnUse" color-interpolation-filters="sRGB">
<feFlood flood-opacity="0" result="BackgroundImageFix"/>
<feGaussianBlur in="BackgroundImageFix" stdDeviation="2.14286"/>
<feComposite in2="SourceAlpha" operator="in" result="effect1_backgroundBlur_4195_3319"/>
<feBlend mode="normal" in="SourceGraphic" in2="effect1_backgroundBlur_4195_3319" result="shape"/>
</filter>
<linearGradient id="paint0_linear_4195_3319" x1="27.2135" y1="26.3846" x2="5.42714" y2="-3.56618" gradientUnits="userSpaceOnUse">
<stop offset="0.00104141" stop-color="#0FD3FE"/>
<stop offset="0.730208" stop-color="#0E41ED"/>
</linearGradient>
</defs>
</svg>
