<svg width="64" height="64" viewBox="0 0 64 64" fill="none" xmlns="http://www.w3.org/2000/svg">
<circle cx="32" cy="32" r="21" fill="#05155C"/>
<circle cx="32" cy="32" r="32" fill="#0A1F7A" fill-opacity="0.24"/>
<path d="M32.936 18.9267L42.2693 22.4267C42.7777 22.6173 43.2159 22.9586 43.5251 23.4048C43.8344 23.8511 44.0001 24.3811 44 24.9241V32.0747C44 34.3033 43.3795 36.4879 42.2079 38.3836C41.0363 40.2794 39.3599 41.8114 37.3667 42.8081L32.8947 45.0427C32.6169 45.1817 32.3106 45.254 32 45.254C31.6894 45.254 31.3831 45.1817 31.1053 45.0427L26.6333 42.8067C24.6401 41.8101 22.9637 40.278 21.7921 38.3823C20.6205 36.4865 20 34.302 20 32.0734V24.9254C19.9997 24.3822 20.1652 23.8519 20.4745 23.4054C20.7838 22.9588 21.222 22.6174 21.7307 22.4267L31.064 18.9267C31.6675 18.7005 32.3325 18.7005 32.936 18.9267ZM32 26.6667C31.6734 26.6668 31.3582 26.7867 31.1142 27.0037C30.8701 27.2207 30.7142 27.5197 30.676 27.8441L30.6667 28.0001V30.6667H28C27.6602 30.6671 27.3333 30.7973 27.0862 31.0305C26.8391 31.2638 26.6904 31.5827 26.6704 31.9219C26.6505 32.2612 26.7609 32.5953 26.979 32.8559C27.1971 33.1165 27.5065 33.2839 27.844 33.3241L28 33.3334H30.6667V36.0001C30.667 36.3399 30.7972 36.6668 31.0305 36.9139C31.2638 37.161 31.5826 37.3097 31.9219 37.3296C32.2611 37.3496 32.5952 37.2392 32.8558 37.0211C33.1164 36.8029 33.2839 36.4935 33.324 36.1561L33.3333 36.0001V33.3334H36C36.3398 33.333 36.6667 33.2029 36.9138 32.9696C37.1609 32.7363 37.3096 32.4175 37.3296 32.0782C37.3495 31.739 37.2391 31.4049 37.021 31.1443C36.8029 30.8837 36.4935 30.7162 36.156 30.6761L36 30.6667H33.3333V28.0001C33.3333 27.6465 33.1929 27.3073 32.9428 27.0573C32.6928 26.8072 32.3536 26.6667 32 26.6667Z" fill="#0FD3FE"/>
</svg>
