<svg xmlns="http://www.w3.org/2000/svg" width="28" height="28" viewBox="0 0 28 28" fill="none">
                        <g filter="url(#filter0_b_1981_1831)">
                          <rect width="28" height="28" rx="14" transform="matrix(1 2.13529e-05 2.13529e-05 -1 0 28)" fill="url(#paint0_linear_1981_1831)"/>
                        </g>
                        <path d="M8.22222 19.778C10 21.5558 12.4444 20.4447 13.1111 19.778L14.4444 18.4447L9.55556 13.5558L8.22222 14.8891C7.55556 15.5558 6.44444 18.0002 8.22222 19.778ZM8.22222 19.778L6 22.0002M19.7778 8.22247C18 6.44469 15.5556 7.5558 14.8889 8.22247L13.5556 9.5558L18.4444 14.4447L19.7778 13.1114C20.4444 12.4447 21.5556 10.0002 19.7778 8.22247ZM19.7778 8.22247L22 6.00024M14.4444 10.4447L12.6667 12.2225M17.5556 13.5558L15.7778 15.3336" stroke="white" stroke-width="1.5" stroke-linecap="round" stroke-linejoin="round"/>
                        <defs>
                          <filter id="filter0_b_1981_1831" x="-4.28571" y="-4.28541" width="36.5714" height="36.5714" filterUnits="userSpaceOnUse" color-interpolation-filters="sRGB">
                            <feFlood flood-opacity="0" result="BackgroundImageFix"/>
                            <feGaussianBlur in="BackgroundImageFix" stdDeviation="2.14286"/>
                            <feComposite in2="SourceAlpha" operator="in" result="effect1_backgroundBlur_1981_1831"/>
                            <feBlend mode="normal" in="SourceGraphic" in2="effect1_backgroundBlur_1981_1831" result="shape"/>
                          </filter>
                          <linearGradient id="paint0_linear_1981_1831" x1="27.2135" y1="26.3846" x2="5.42714" y2="-3.56618" gradientUnits="userSpaceOnUse">
                            <stop offset="0.00104141" stop-color="#0FD3FE"/>
                            <stop offset="0.730208" stop-color="#0E41ED"/>
                          </linearGradient>
                        </defs>
                      </svg>