     <svg width="28" height="28" viewBox="0 0 28 28" fill="none" xmlns="http://www.w3.org/2000/svg">
                    <g filter="url(#filter0_b_2218_1565)">
                    <rect width="28" height="28" rx="14" transform="matrix(1 0 0 -1 0 28)" fill="url(#paint0_linear_2218_1565)"/>
                    </g>
                    <path fill-rule="evenodd" clip-rule="evenodd" d="M15.6673 9.83334C15.4463 9.83334 15.2343 9.92114 15.0781 10.0774C14.9218 10.2337 14.834 10.4457 14.834 10.6667V17.3333C14.834 17.5544 14.9218 17.7663 15.0781 17.9226C15.2343 18.0789 15.4463 18.1667 15.6673 18.1667H19.0007C19.2217 18.1667 19.4336 18.0789 19.5899 17.9226C19.7462 17.7663 19.834 17.5544 19.834 17.3333V10.6667C19.834 10.4457 19.7462 10.2337 19.5899 10.0774C19.4336 9.92114 19.2217 9.83334 19.0007 9.83334H15.6673ZM18.1673 11.5H16.5007V16.5H18.1673V11.5Z" fill="white"/>
                    <path d="M9.0013 9.83334C8.78029 9.83334 8.56833 9.92114 8.41205 10.0774C8.25577 10.2337 8.16797 10.4457 8.16797 10.6667C8.16797 10.8877 8.25577 11.0997 8.41205 11.2559C8.56833 11.4122 8.78029 11.5 9.0013 11.5H12.3346C12.5556 11.5 12.7676 11.4122 12.9239 11.2559C13.0802 11.0997 13.168 10.8877 13.168 10.6667C13.168 10.4457 13.0802 10.2337 12.9239 10.0774C12.7676 9.92114 12.5556 9.83334 12.3346 9.83334H9.0013ZM9.0013 13.1667C8.78029 13.1667 8.56833 13.2545 8.41205 13.4108C8.25577 13.567 8.16797 13.779 8.16797 14C8.16797 14.221 8.25577 14.433 8.41205 14.5893C8.56833 14.7455 8.78029 14.8333 9.0013 14.8333H12.3346C12.5556 14.8333 12.7676 14.7455 12.9239 14.5893C13.0802 14.433 13.168 14.221 13.168 14C13.168 13.779 13.0802 13.567 12.9239 13.4108C12.7676 13.2545 12.5556 13.1667 12.3346 13.1667H9.0013ZM8.16797 17.3333C8.16797 17.1123 8.25577 16.9004 8.41205 16.7441C8.56833 16.5878 8.78029 16.5 9.0013 16.5H12.3346C12.5556 16.5 12.7676 16.5878 12.9239 16.7441C13.0802 16.9004 13.168 17.1123 13.168 17.3333C13.168 17.5544 13.0802 17.7663 12.9239 17.9226C12.7676 18.0789 12.5556 18.1667 12.3346 18.1667H9.0013C8.78029 18.1667 8.56833 18.0789 8.41205 17.9226C8.25577 17.7663 8.16797 17.5544 8.16797 17.3333Z" fill="white"/>
                    <path fill-rule="evenodd" clip-rule="evenodd" d="M7.33398 6.5C6.67094 6.5 6.03506 6.76339 5.56622 7.23223C5.09738 7.70107 4.83398 8.33696 4.83398 9V19C4.83398 19.663 5.09738 20.2989 5.56622 20.7678C6.03506 21.2366 6.67094 21.5 7.33398 21.5H20.6673C21.3304 21.5 21.9662 21.2366 22.4351 20.7678C22.9039 20.2989 23.1673 19.663 23.1673 19V9C23.1673 8.33696 22.9039 7.70107 22.4351 7.23223C21.9662 6.76339 21.3304 6.5 20.6673 6.5H7.33398ZM20.6673 8.16667H7.33398C7.11297 8.16667 6.90101 8.25446 6.74473 8.41074C6.58845 8.56702 6.50065 8.77899 6.50065 9V19C6.50065 19.221 6.58845 19.433 6.74473 19.5893C6.90101 19.7455 7.11297 19.8333 7.33398 19.8333H20.6673C20.8883 19.8333 21.1003 19.7455 21.2566 19.5893C21.4129 19.433 21.5007 19.221 21.5007 19V9C21.5007 8.77899 21.4129 8.56702 21.2566 8.41074C21.1003 8.25446 20.8883 8.16667 20.6673 8.16667Z" fill="white"/>
                    <defs>
                    <filter id="filter0_b_2218_1565" x="-4.28571" y="-4.28571" width="36.5714" height="36.5714" filterUnits="userSpaceOnUse" color-interpolation-filters="sRGB">
                    <feFlood flood-opacity="0" result="BackgroundImageFix"/>
                    <feGaussianBlur in="BackgroundImageFix" stdDeviation="2.14286"/>
                    <feComposite in2="SourceAlpha" operator="in" result="effect1_backgroundBlur_2218_1565"/>
                    <feBlend mode="normal" in="SourceGraphic" in2="effect1_backgroundBlur_2218_1565" result="shape"/>
                    </filter>
                    <linearGradient id="paint0_linear_2218_1565" x1="27.2135" y1="26.3846" x2="5.42714" y2="-3.56618" gradientUnits="userSpaceOnUse">
                    <stop offset="0.00104141" stop-color="#0FD3FE"/>
                    <stop offset="0.730208" stop-color="#0E41ED"/>
                    </linearGradient>
                    </defs>
                    </svg>                    